STARTFONT 2.1
COMMENT This font was automatically resized by bdfresize-1.5
COMMENT   mag_x = 2/1, mag_y = 2/1, blackness = 4
COMMENT "Generated by fontforge, http://fontforge.sourceforge.net"
COMMENT "Based on Siji"
FONT -addy-waffle-Medium-R-Normal--20-200-75-75-M-240-ISO10646-1
SIZE 20 75 75
FONTBOUNDINGBOX 24 24 0 -4
STARTPROPERTIES 28
FOUNDRY "addy"
FAMILY_NAME "waffle"
WEIGHT_NAME "Medium"
SLANT "R"
SETWIDTH_NAME "Normal"
ADD_STYLE_NAME ""
PIXEL_SIZE 20
POINT_SIZE 200
RESOLUTION_X 75
RESOLUTION_Y 75
SPACING "M"
AVERAGE_WIDTH 240
CHARSET_REGISTRY "ISO10646"
CHARSET_ENCODING "1"
FONTNAME_REGISTRY ""
CHARSET_COLLECTIONS "ISO10646-1"
FONT_NAME "wafflemedium"
FACE_NAME "waffle medium"
COPYRIGHT "Copyright (C) 2018 Addy"
FONT_VERSION "1.00"
FONT_ASCENT 16
FONT_DESCENT 4
UNDERLINE_POSITION -1
UNDERLINE_THICKNESS 1
RAW_ASCENT 800
RAW_DESCENT 200
FIGURE_WIDTH -1
_GBDFED_INFO "Edited with gbdfed 1.6."
ENDPROPERTIES
CHARS 786
STARTCHAR U+E000
ENCODING 57344
SWIDTH 2304 0
DWIDTH 24 0
BBX 16 16 4 0
BITMAP
FFFF
FFFF
FFFF
FFFF
FFFF
FFFF
FFFF
FFFF
FFFF
FFFF
FFFF
FFFF
FFFF
FFFF
FFFF
FFFF
ENDCHAR
STARTCHAR U+E001
ENCODING 57345
SWIDTH 2304 0
DWIDTH 24 0
BBX 16 16 4 0
BITMAP
FFFF
FFFF
FFFF
FFFF
F00F
F00F
F00F
F00F
F00F
F00F
F00F
F00F
FFFF
FFFF
FFFF
FFFF
ENDCHAR
STARTCHAR U+E002
ENCODING 57346
SWIDTH 2304 0
DWIDTH 24 0
BBX 16 16 4 0
BITMAP
FF3F
FF3F
FF3F
FF3F
FF00
FF00
FF3F
FF3F
FF3F
FF3F
FF00
FF00
FF3F
FF3F
FF3F
FF3F
ENDCHAR
STARTCHAR U+E003
ENCODING 57347
SWIDTH 2304 0
DWIDTH 24 0
BBX 16 16 4 0
BITMAP
FFFF
FFFF
FFFF
FFFF
FFFF
FFFF
FFFF
FFFF
0000
0000
F3CF
F3CF
F3CF
F3CF
F3CF
F3CF
ENDCHAR
STARTCHAR U+E004
ENCODING 57348
SWIDTH 2304 0
DWIDTH 24 0
BBX 16 16 4 0
BITMAP
FFFF
FFFF
FFFF
FFFF
FFFF
FFFF
FFFF
FFFF
0000
0000
FFFF
FFFF
0000
0000
FFFF
FFFF
ENDCHAR
STARTCHAR U+E005
ENCODING 57349
SWIDTH 2304 0
DWIDTH 24 0
BBX 16 16 4 0
BITMAP
F3CF
F3CF
F3CF
F3CF
0000
0000
F3CF
F3CF
F3CF
F3CF
0000
0000
F3CF
F3CF
F3CF
F3CF
ENDCHAR
STARTCHAR U+E006
ENCODING 57350
SWIDTH 2304 0
DWIDTH 24 0
BBX 16 16 4 0
BITMAP
FF3F
FF3F
FF3F
FF3F
FF3F
FF3F
FF3F
FF3F
003F
003F
FFFF
FFFF
FFFF
FFFF
FFFF
FFFF
ENDCHAR
STARTCHAR U+E007
ENCODING 57351
SWIDTH 2304 0
DWIDTH 24 0
BBX 16 16 4 0
BITMAP
FF3F
FF3F
FF3F
FF3F
FF3F
FF3F
FF3F
FF3F
FF00
FF00
FF33
FF33
FF30
FF30
FF33
FF33
ENDCHAR
STARTCHAR U+E008
ENCODING 57352
SWIDTH 2304 0
DWIDTH 24 0
BBX 16 16 4 0
BITMAP
FF3F
FF3F
FF3F
FF3F
FF3F
FF3F
FF3F
FF3F
FF00
FF00
FF33
FF33
FF03
FF03
FF33
FF33
ENDCHAR
STARTCHAR U+E009
ENCODING 57353
SWIDTH 2304 0
DWIDTH 24 0
BBX 16 16 4 0
BITMAP
FF3F
FF3F
FF3F
FF3F
FF00
FF00
FF3F
FF3F
003F
003F
FF00
FF00
FF3F
FF3F
FF3F
FF3F
ENDCHAR
STARTCHAR U+E00A
ENCODING 57354
SWIDTH 2304 0
DWIDTH 24 0
BBX 16 16 4 0
BITMAP
FF3F
FF3F
FF3F
FF3F
FF3F
FF3F
FF3F
FF3F
0000
0000
F3CF
F3CF
F3CF
F3CF
F3CF
F3CF
ENDCHAR
STARTCHAR U+E00B
ENCODING 57355
SWIDTH 2304 0
DWIDTH 24 0
BBX 14 18 4 -2
BITMAP
03C0
03C0
0330
0330
C30C
C30C
3330
3330
0FC0
0FC0
3330
3330
C30C
C30C
0330
0330
03C0
03C0
ENDCHAR
STARTCHAR U+E00C
ENCODING 57356
SWIDTH 2304 0
DWIDTH 24 0
BBX 10 16 6 0
BITMAP
0C00
0C00
0CC0
0CC0
CCC0
CCC0
CCC0
CCC0
CF00
CF00
3C00
3C00
0C00
0C00
0C00
0C00
ENDCHAR
STARTCHAR U+E00D
ENCODING 57357
SWIDTH 2304 0
DWIDTH 24 0
BBX 16 16 4 0
BITMAP
03C0
03C0
03C0
03C0
33CC
33CC
C3C3
C3C3
C3C3
C3C3
C003
C003
300C
300C
0FF0
0FF0
ENDCHAR
STARTCHAR U+E00E
ENCODING 57358
SWIDTH 2304 0
DWIDTH 24 0
BBX 16 18 4 -2
BITMAP
03C0
03C0
03C0
03C0
0FF0
0FF0
0FF0
0FF0
3FFC
3FFC
3C3C
3C3C
FC3F
FC3F
F00F
F00F
C003
C003
ENDCHAR
STARTCHAR U+E00F
ENCODING 57359
SWIDTH 2304 0
DWIDTH 24 0
BBX 16 16 4 0
BITMAP
0FF0
0FF0
3CFC
3CFC
FFF0
FFF0
FFC0
FFC0
FF00
FF00
FFFF
FFFF
3FFC
3FFC
0FF0
0FF0
ENDCHAR
STARTCHAR U+E010
ENCODING 57360
SWIDTH 2304 0
DWIDTH 24 0
BBX 16 16 4 0
BITMAP
FFFF
FFFF
FFFF
FFFF
FFFF
FFFF
FC3F
FC3F
FC3F
FC3F
FFFF
FFFF
FFFF
FFFF
FFFF
FFFF
ENDCHAR
STARTCHAR U+E011
ENCODING 57361
SWIDTH 2304 0
DWIDTH 24 0
BBX 16 16 4 0
BITMAP
FFFF
FFFF
FFC3
FFC3
FFC3
FFC3
FFFF
FFFF
FFFF
FFFF
C3FF
C3FF
C3FF
C3FF
FFFF
FFFF
ENDCHAR
STARTCHAR U+E012
ENCODING 57362
SWIDTH 2304 0
DWIDTH 24 0
BBX 16 16 4 0
BITMAP
FFFF
FFFF
FFC3
FFC3
FFC3
FFC3
FC3F
FC3F
FC3F
FC3F
C3FF
C3FF
C3FF
C3FF
FFFF
FFFF
ENDCHAR
STARTCHAR U+E013
ENCODING 57363
SWIDTH 2304 0
DWIDTH 24 0
BBX 16 16 4 0
BITMAP
FFFF
FFFF
C3C3
C3C3
C3C3
C3C3
FFFF
FFFF
FFFF
FFFF
C3C3
C3C3
C3C3
C3C3
FFFF
FFFF
ENDCHAR
STARTCHAR U+E014
ENCODING 57364
SWIDTH 2304 0
DWIDTH 24 0
BBX 16 16 4 0
BITMAP
FFFF
FFFF
C3C3
C3C3
C3C3
C3C3
FC3F
FC3F
FC3F
FC3F
C3C3
C3C3
C3C3
C3C3
FFFF
FFFF
ENDCHAR
STARTCHAR U+E015
ENCODING 57365
SWIDTH 2304 0
DWIDTH 24 0
BBX 16 16 4 0
BITMAP
0FF0
0FF0
3CFC
3CFC
FCFF
FCFF
FCFF
FCFF
FC03
FC03
FFFF
FFFF
3FFC
3FFC
0FF0
0FF0
ENDCHAR
STARTCHAR U+E016
ENCODING 57366
SWIDTH 2304 0
DWIDTH 24 0
BBX 16 16 4 0
BITMAP
0FF0
0FF0
300C
300C
C303
C303
C303
C303
C3F3
C3F3
C003
C003
300C
300C
0FF0
0FF0
ENDCHAR
STARTCHAR U+E017
ENCODING 57367
SWIDTH 2304 0
DWIDTH 24 0
BBX 16 16 4 0
BITMAP
FFFF
FFFF
FCFF
FCFF
FCFF
FCFF
FCFF
FCFF
FC03
FC03
FFFF
FFFF
FFFF
FFFF
FFFF
FFFF
ENDCHAR
STARTCHAR U+E018
ENCODING 57368
SWIDTH 2304 0
DWIDTH 24 0
BBX 16 16 4 0
BITMAP
FFFF
FFFF
C003
C003
C303
C303
C303
C303
C3F3
C3F3
C003
C003
C003
C003
FFFF
FFFF
ENDCHAR
STARTCHAR U+E019
ENCODING 57369
SWIDTH 2304 0
DWIDTH 24 0
BBX 16 16 4 0
BITMAP
03C0
03C0
0CF0
0CF0
3CFC
3CFC
FCFF
FCFF
FC03
FC03
3FFC
3FFC
0FF0
0FF0
03C0
03C0
ENDCHAR
STARTCHAR U+E01A
ENCODING 57370
SWIDTH 2304 0
DWIDTH 24 0
BBX 16 16 4 0
BITMAP
03C0
03C0
0C30
0C30
330C
330C
C303
C303
C3F3
C3F3
300C
300C
0C30
0C30
03C0
03C0
ENDCHAR
STARTCHAR U+E01B
ENCODING 57371
SWIDTH 2304 0
DWIDTH 24 0
BBX 16 16 4 0
BITMAP
030F
030F
003F
003F
30FC
30FC
0330
0330
3CC0
3CC0
C300
C300
C300
C300
3C00
3C00
ENDCHAR
STARTCHAR U+E01C
ENCODING 57372
SWIDTH 2304 0
DWIDTH 24 0
BBX 12 16 6 0
BITMAP
0C30
0C30
3F00
3F00
3F30
3F30
3F00
3F00
3330
3330
C0C0
C0C0
C0C0
C0C0
3F00
3F00
ENDCHAR
STARTCHAR U+E01D
ENCODING 57373
SWIDTH 2304 0
DWIDTH 24 0
BBX 10 16 6 0
BITMAP
3C00
3C00
3FC0
3FC0
3C00
3C00
3FC0
3FC0
3C00
3C00
FF00
FF00
FF00
FF00
3C00
3C00
ENDCHAR
STARTCHAR U+E01E
ENCODING 57374
SWIDTH 2304 0
DWIDTH 24 0
BBX 14 16 4 0
BITMAP
3FF0
3FF0
FFFC
FFFC
C00C
C00C
C30C
C30C
C0CC
C0CC
C30C
C30C
C00C
C00C
3FF0
3FF0
ENDCHAR
STARTCHAR U+E01F
ENCODING 57375
SWIDTH 2304 0
DWIDTH 24 0
BBX 14 16 4 0
BITMAP
3FF0
3FF0
FFFC
FFFC
C00C
C00C
CFCC
CFCC
C00C
C00C
CFCC
CFCC
C00C
C00C
3FF0
3FF0
ENDCHAR
STARTCHAR U+E020
ENCODING 57376
SWIDTH 2304 0
DWIDTH 24 0
BBX 14 16 4 0
BITMAP
CCCC
CCCC
0000
0000
FFFC
FFFC
FFFC
FFFC
FFFC
FFFC
FFFC
FFFC
0000
0000
CCCC
CCCC
ENDCHAR
STARTCHAR U+E021
ENCODING 57377
SWIDTH 2304 0
DWIDTH 24 0
BBX 16 16 4 0
BITMAP
F3CF
F3CF
0000
0000
FFFF
FFFF
FFFF
FFFF
FFFF
FFFF
FFFF
FFFF
0000
0000
F3CF
F3CF
ENDCHAR
STARTCHAR U+E022
ENCODING 57378
SWIDTH 2304 0
DWIDTH 24 0
BBX 16 16 4 0
BITMAP
F00F
F00F
CFF3
CFF3
3FFC
3FFC
3FFC
3FFC
3FFC
3FFC
3FFC
3FFC
CFF3
CFF3
F00F
F00F
ENDCHAR
STARTCHAR U+E023
ENCODING 57379
SWIDTH 2304 0
DWIDTH 24 0
BBX 14 14 4 0
BITMAP
F03C
F03C
CFCC
CFCC
3FF0
3FF0
3FF0
3FF0
3FF0
3FF0
CFCC
CFCC
F03C
F03C
ENDCHAR
STARTCHAR U+E024
ENCODING 57380
SWIDTH 2304 0
DWIDTH 24 0
BBX 16 16 4 0
BITMAP
C003
C003
3FFC
3FFC
3FFC
3FFC
3FFC
3FFC
3FFC
3FFC
3FFC
3FFC
3FFC
3FFC
C003
C003
ENDCHAR
STARTCHAR U+E025
ENCODING 57381
SWIDTH 2304 0
DWIDTH 24 0
BBX 14 14 4 0
BITMAP
C00C
C00C
3FF0
3FF0
3FF0
3FF0
3FF0
3FF0
3FF0
3FF0
3FF0
3FF0
C00C
C00C
ENDCHAR
STARTCHAR U+E026
ENCODING 57382
SWIDTH 2304 0
DWIDTH 24 0
BBX 16 16 4 0
BITMAP
F3CF
F3CF
F00F
F00F
0FF0
0FF0
CFF3
CFF3
CFF3
CFF3
0FF0
0FF0
F00F
F00F
F3CF
F3CF
ENDCHAR
STARTCHAR U+E027
ENCODING 57383
SWIDTH 2304 0
DWIDTH 24 0
BBX 16 16 4 0
BITMAP
3000
3000
33FF
33FF
3FF0
3FF0
3C3C
3C3C
3C3C
3C3C
0FFC
0FFC
FFCC
FFCC
000C
000C
ENDCHAR
STARTCHAR U+E028
ENCODING 57384
SWIDTH 2304 0
DWIDTH 24 0
BBX 14 14 4 0
BITMAP
CCCC
CCCC
0000
0000
FFFC
FFFC
FFFC
FFFC
FFFC
FFFC
0000
0000
CCCC
CCCC
ENDCHAR
STARTCHAR U+E029
ENCODING 57385
SWIDTH 2304 0
DWIDTH 24 0
BBX 14 16 4 0
BITMAP
3FF0
3FF0
C00C
C00C
C00C
C00C
C00C
C00C
FFFC
FFFC
FFFC
FFFC
FFFC
FFFC
FFFC
FFFC
ENDCHAR
STARTCHAR U+E02A
ENCODING 57386
SWIDTH 2304 0
DWIDTH 24 0
BBX 14 14 4 0
BITMAP
FFFC
FFFC
CFCC
CFCC
C00C
C00C
FFFC
FFFC
CFCC
CFCC
C00C
C00C
FFFC
FFFC
ENDCHAR
STARTCHAR U+E02B
ENCODING 57387
SWIDTH 2304 0
DWIDTH 24 0
BBX 16 16 4 0
BITMAP
FFFF
FFFF
CFF3
CFF3
C003
C003
FFFF
FFFF
CFF3
CFF3
C003
C003
C003
C003
FFFF
FFFF
ENDCHAR
STARTCHAR U+E02C
ENCODING 57388
SWIDTH 2304 0
DWIDTH 24 0
BBX 14 16 4 0
BITMAP
3FF0
3FF0
F03C
F03C
CFCC
CFCC
CFCC
CFCC
CFCC
CFCC
F03C
F03C
3FF0
3FF0
C00C
C00C
ENDCHAR
STARTCHAR U+E02D
ENCODING 57389
SWIDTH 2304 0
DWIDTH 24 0
BBX 16 16 4 0
BITMAP
FFC0
FFC0
C030
C030
FF0C
FF0C
C0C3
C0C3
FC33
FC33
C333
C333
F333
F333
FFFF
FFFF
ENDCHAR
STARTCHAR U+E02E
ENCODING 57390
SWIDTH 2304 0
DWIDTH 24 0
BBX 10 16 6 0
BITMAP
3F00
3F00
3F00
3F00
0000
0000
FF00
FF00
3F00
3F00
3F00
3F00
3F00
3F00
FFC0
FFC0
ENDCHAR
STARTCHAR U+E02F
ENCODING 57391
SWIDTH 2304 0
DWIDTH 24 0
BBX 12 16 6 0
BITMAP
3FC0
3FC0
3FC0
3FC0
0000
0000
FFC0
FFC0
3FC0
3FC0
3FC0
3FC0
3FC0
3FC0
FFF0
FFF0
ENDCHAR
STARTCHAR U+E030
ENCODING 57392
SWIDTH 2304 0
DWIDTH 24 0
BBX 12 16 6 0
BITMAP
0F00
0F00
FFF0
FFF0
C030
C030
C030
C030
C030
C030
C030
C030
C030
C030
FFF0
FFF0
ENDCHAR
STARTCHAR U+E031
ENCODING 57393
SWIDTH 2304 0
DWIDTH 24 0
BBX 12 16 6 0
BITMAP
0F00
0F00
FFF0
FFF0
C030
C030
C030
C030
CC30
CC30
CF30
CF30
C030
C030
FFF0
FFF0
ENDCHAR
STARTCHAR U+E032
ENCODING 57394
SWIDTH 2304 0
DWIDTH 24 0
BBX 12 16 6 0
BITMAP
0F00
0F00
FFF0
FFF0
C030
C030
CC30
CC30
CF30
CF30
CF30
CF30
C030
C030
FFF0
FFF0
ENDCHAR
STARTCHAR U+E033
ENCODING 57395
SWIDTH 2304 0
DWIDTH 24 0
BBX 12 16 6 0
BITMAP
0F00
0F00
FFF0
FFF0
C030
C030
CF30
CF30
CF30
CF30
CF30
CF30
C030
C030
FFF0
FFF0
ENDCHAR
STARTCHAR U+E034
ENCODING 57396
SWIDTH 2304 0
DWIDTH 24 0
BBX 14 16 4 0
BITMAP
0FC0
0FC0
FFFC
FFFC
C00C
C00C
C00C
C00C
C00C
C00C
C00C
C00C
C00C
C00C
FFFC
FFFC
ENDCHAR
STARTCHAR U+E035
ENCODING 57397
SWIDTH 2304 0
DWIDTH 24 0
BBX 14 16 4 0
BITMAP
0FC0
0FC0
FFFC
FFFC
C00C
C00C
C00C
C00C
CC0C
CC0C
CF0C
CF0C
C00C
C00C
FFFC
FFFC
ENDCHAR
STARTCHAR U+E036
ENCODING 57398
SWIDTH 2304 0
DWIDTH 24 0
BBX 14 16 4 0
BITMAP
0FC0
0FC0
FFFC
FFFC
C00C
C00C
CC0C
CC0C
CF0C
CF0C
CFCC
CFCC
C00C
C00C
FFFC
FFFC
ENDCHAR
STARTCHAR U+E037
ENCODING 57399
SWIDTH 2304 0
DWIDTH 24 0
BBX 14 16 4 0
BITMAP
0FC0
0FC0
FFFC
FFFC
C00C
C00C
CFCC
CFCC
CFCC
CFCC
CFCC
CFCC
C00C
C00C
FFFC
FFFC
ENDCHAR
STARTCHAR U+E038
ENCODING 57400
SWIDTH 2304 0
DWIDTH 24 0
BBX 16 12 4 0
BITMAP
FFFC
FFFC
C00C
C00C
C00F
C00F
C00F
C00F
C00C
C00C
FFFC
FFFC
ENDCHAR
STARTCHAR U+E039
ENCODING 57401
SWIDTH 2304 0
DWIDTH 24 0
BBX 16 12 4 0
BITMAP
FFFC
FFFC
C00C
C00C
CC0F
CC0F
CF0F
CF0F
C00C
C00C
FFFC
FFFC
ENDCHAR
STARTCHAR U+E03A
ENCODING 57402
SWIDTH 2304 0
DWIDTH 24 0
BBX 16 12 4 0
BITMAP
FFFC
FFFC
C00C
C00C
CF0F
CF0F
CFCF
CFCF
C00C
C00C
FFFC
FFFC
ENDCHAR
STARTCHAR U+E03B
ENCODING 57403
SWIDTH 2304 0
DWIDTH 24 0
BBX 16 12 4 0
BITMAP
FFFC
FFFC
C00C
C00C
CFCF
CFCF
CFCF
CFCF
C00C
C00C
FFFC
FFFC
ENDCHAR
STARTCHAR U+E03C
ENCODING 57404
SWIDTH 2304 0
DWIDTH 24 0
BBX 16 14 4 0
BITMAP
FFFC
FFFC
C00C
C00C
C00F
C00F
C00F
C00F
C00F
C00F
C00C
C00C
FFFC
FFFC
ENDCHAR
STARTCHAR U+E03D
ENCODING 57405
SWIDTH 2304 0
DWIDTH 24 0
BBX 16 14 4 0
BITMAP
FFFC
FFFC
C00C
C00C
C00F
C00F
CC0F
CC0F
CF0F
CF0F
C00C
C00C
FFFC
FFFC
ENDCHAR
STARTCHAR U+E03E
ENCODING 57406
SWIDTH 2304 0
DWIDTH 24 0
BBX 16 14 4 0
BITMAP
FFFC
FFFC
C00C
C00C
CC0F
CC0F
CF0F
CF0F
CFCF
CFCF
C00C
C00C
FFFC
FFFC
ENDCHAR
STARTCHAR U+E03F
ENCODING 57407
SWIDTH 2304 0
DWIDTH 24 0
BBX 16 14 4 0
BITMAP
FFFC
FFFC
C00C
C00C
CFCF
CFCF
CFCF
CFCF
CFCF
CFCF
C00C
C00C
FFFC
FFFC
ENDCHAR
STARTCHAR U+E040
ENCODING 57408
SWIDTH 2304 0
DWIDTH 24 0
BBX 12 20 6 -2
BITMAP
00C0
00C0
0300
0300
0F00
0F00
3C00
3C00
3FF0
3FF0
FFC0
FFC0
03C0
03C0
0F00
0F00
0C00
0C00
3000
3000
ENDCHAR
STARTCHAR U+E041
ENCODING 57409
SWIDTH 2304 0
DWIDTH 24 0
BBX 12 16 6 0
BITMAP
30C0
30C0
30C0
30C0
FFF0
FFF0
FFF0
FFF0
FFF0
FFF0
3FC0
3FC0
0F00
0F00
0F00
0F00
ENDCHAR
STARTCHAR U+E042
ENCODING 57410
SWIDTH 2304 0
DWIDTH 24 0
BBX 16 12 4 2
BITMAP
03F0
03F0
0FFF
0FFF
FFF0
FFF0
FFF0
FFF0
0FFF
0FFF
03F0
03F0
ENDCHAR
STARTCHAR U+E043
ENCODING 57411
SWIDTH 2304 0
DWIDTH 24 0
BBX 16 16 4 0
BITMAP
0FC0
0FC0
30C0
30C0
C0FF
C0FF
C0C0
C0C0
C0C0
C0C0
C0FF
C0FF
30C0
30C0
0FC0
0FC0
ENDCHAR
STARTCHAR U+E044
ENCODING 57412
SWIDTH 2304 0
DWIDTH 24 0
BBX 8 8 8 4
BITMAP
03
03
F3
F3
F3
F3
03
03
ENDCHAR
STARTCHAR U+E045
ENCODING 57413
SWIDTH 2304 0
DWIDTH 24 0
BBX 12 12 6 2
BITMAP
0030
0030
0330
0330
F330
F330
F330
F330
0330
0330
0030
0030
ENDCHAR
STARTCHAR U+E046
ENCODING 57414
SWIDTH 2304 0
DWIDTH 24 0
BBX 16 16 4 0
BITMAP
0003
0003
0033
0033
0333
0333
F333
F333
F333
F333
0333
0333
0033
0033
0003
0003
ENDCHAR
STARTCHAR U+E047
ENCODING 57415
SWIDTH 2304 0
DWIDTH 24 0
BBX 10 12 10 0
BITMAP
03C0
03C0
03C0
03C0
F3C0
F3C0
F3C0
F3C0
F3C0
F3C0
F3C0
F3C0
ENDCHAR
STARTCHAR U+E048
ENCODING 57416
SWIDTH 2304 0
DWIDTH 24 0
BBX 16 16 4 0
BITMAP
000F
000F
000F
000F
03CF
03CF
03CF
03CF
F3CF
F3CF
F3CF
F3CF
F3CF
F3CF
F3CF
F3CF
ENDCHAR
STARTCHAR U+E049
ENCODING 57417
SWIDTH 2304 0
DWIDTH 24 0
BBX 8 8 8 0
BITMAP
FF
FF
00
00
3C
3C
3C
3C
ENDCHAR
STARTCHAR U+E04A
ENCODING 57418
SWIDTH 2304 0
DWIDTH 24 0
BBX 12 12 6 0
BITMAP
FFF0
FFF0
0000
0000
3FC0
3FC0
0000
0000
0F00
0F00
0F00
0F00
ENDCHAR
STARTCHAR U+E04B
ENCODING 57419
SWIDTH 2304 0
DWIDTH 24 0
BBX 16 16 4 0
BITMAP
FFFF
FFFF
0000
0000
3FFC
3FFC
0000
0000
0FF0
0FF0
0000
0000
03C0
03C0
03C0
03C0
ENDCHAR
STARTCHAR U+E04C
ENCODING 57420
SWIDTH 2304 0
DWIDTH 24 0
BBX 12 16 6 0
BITMAP
0F00
0F00
0F00
0F00
CF30
CF30
CF30
CF30
C030
C030
3FC0
3FC0
0F00
0F00
FFF0
FFF0
ENDCHAR
STARTCHAR U+E04D
ENCODING 57421
SWIDTH 2304 0
DWIDTH 24 0
BBX 16 16 4 0
BITMAP
0FF0
0FF0
300C
300C
C003
C003
C003
C003
C003
C003
FC3F
FC3F
FC3F
FC3F
3C3C
3C3C
ENDCHAR
STARTCHAR U+E04E
ENCODING 57422
SWIDTH 2304 0
DWIDTH 24 0
BBX 10 16 6 0
BITMAP
00C0
00C0
03C0
03C0
FFC0
FFC0
FFC0
FFC0
FFC0
FFC0
FFC0
FFC0
03C0
03C0
00C0
00C0
ENDCHAR
STARTCHAR U+E04F
ENCODING 57423
SWIDTH 2304 0
DWIDTH 24 0
BBX 14 16 6 0
BITMAP
00C0
00C0
03C0
03C0
FFCC
FFCC
FF30
FF30
FCC0
FCC0
F300
F300
0CC0
0CC0
30C0
30C0
ENDCHAR
STARTCHAR U+E050
ENCODING 57424
SWIDTH 2304 0
DWIDTH 24 0
BBX 14 16 4 0
BITMAP
00C0
00C0
03C0
03C0
FFCC
FFCC
FFCC
FFCC
FFCC
FFCC
FFCC
FFCC
03C0
03C0
00C0
00C0
ENDCHAR
STARTCHAR U+E051
ENCODING 57425
SWIDTH 2304 0
DWIDTH 24 0
BBX 10 14 6 0
BITMAP
00C0
00C0
03C0
03C0
FFC0
FFC0
FFC0
FFC0
FFC0
FFC0
03C0
03C0
00C0
00C0
ENDCHAR
STARTCHAR U+E052
ENCODING 57426
SWIDTH 2304 0
DWIDTH 24 0
BBX 14 14 4 0
BITMAP
00C0
00C0
03C0
03C0
FFCC
FFCC
FF30
FF30
FCC0
FCC0
0300
0300
0CC0
0CC0
ENDCHAR
STARTCHAR U+E053
ENCODING 57427
SWIDTH 2304 0
DWIDTH 24 0
BBX 14 14 4 0
BITMAP
00C0
00C0
03C0
03C0
FFCC
FFCC
FFCC
FFCC
FFCC
FFCC
03C0
03C0
00C0
00C0
ENDCHAR
STARTCHAR U+E054
ENCODING 57428
SWIDTH 2304 0
DWIDTH 24 0
BBX 12 16 6 0
BITMAP
C030
C030
C0F0
C0F0
C3F0
C3F0
CFF0
CFF0
CFF0
CFF0
C3F0
C3F0
C0F0
C0F0
C030
C030
ENDCHAR
STARTCHAR U+E055
ENCODING 57429
SWIDTH 2304 0
DWIDTH 24 0
BBX 16 16 4 0
BITMAP
0303
0303
0F0F
0F0F
3F3F
3F3F
FFFF
FFFF
FFFF
FFFF
3F3F
3F3F
0F0F
0F0F
0303
0303
ENDCHAR
STARTCHAR U+E056
ENCODING 57430
SWIDTH 2304 0
DWIDTH 24 0
BBX 16 16 4 0
BITMAP
0FF0
0FF0
3FFC
3FFC
FFFF
FFFF
FFFF
FFFF
FFFF
FFFF
FFFF
FFFF
3FFC
3FFC
0FF0
0FF0
ENDCHAR
STARTCHAR U+E057
ENCODING 57431
SWIDTH 2304 0
DWIDTH 24 0
BBX 16 16 4 0
BITMAP
FFFF
FFFF
FFFF
FFFF
FFFF
FFFF
FFFF
FFFF
FFFF
FFFF
FFFF
FFFF
FFFF
FFFF
FFFF
FFFF
ENDCHAR
STARTCHAR U+E058
ENCODING 57432
SWIDTH 2304 0
DWIDTH 24 0
BBX 8 16 8 0
BITMAP
C0
C0
F0
F0
FC
FC
FF
FF
FF
FF
FC
FC
F0
F0
C0
C0
ENDCHAR
STARTCHAR U+E059
ENCODING 57433
SWIDTH 2304 0
DWIDTH 24 0
BBX 10 16 6 0
BITMAP
F3C0
F3C0
F3C0
F3C0
F3C0
F3C0
F3C0
F3C0
F3C0
F3C0
F3C0
F3C0
F3C0
F3C0
F3C0
F3C0
ENDCHAR
STARTCHAR U+E05A
ENCODING 57434
SWIDTH 2304 0
DWIDTH 24 0
BBX 12 16 6 0
BITMAP
C030
C030
F030
F030
FC30
FC30
FF30
FF30
FF30
FF30
FC30
FC30
F030
F030
C030
C030
ENDCHAR
STARTCHAR U+E05B
ENCODING 57435
SWIDTH 2304 0
DWIDTH 24 0
BBX 16 16 4 0
BITMAP
C0C0
C0C0
F0F0
F0F0
FCFC
FCFC
FFFF
FFFF
FFFF
FFFF
FCFC
FCFC
F0F0
F0F0
C0C0
C0C0
ENDCHAR
STARTCHAR U+E05C
ENCODING 57436
SWIDTH 2304 0
DWIDTH 24 0
BBX 16 16 4 0
BITMAP
0FFF
0FFF
0FFF
0FFF
0C03
0C03
0C03
0C03
0C03
0C03
3C0F
3C0F
FC3F
FC3F
F03C
F03C
ENDCHAR
STARTCHAR U+E05D
ENCODING 57437
SWIDTH 2304 0
DWIDTH 24 0
BBX 16 16 4 0
BITMAP
0300
0300
0F0C
0F0C
FF03
FF03
FF33
FF33
FF33
FF33
FF03
FF03
0F0C
0F0C
0300
0300
ENDCHAR
STARTCHAR U+E05E
ENCODING 57438
SWIDTH 2304 0
DWIDTH 24 0
BBX 14 12 4 0
BITMAP
C0C0
C0C0
FFF0
FFF0
FFFC
FFFC
FFFC
FFFC
3FF0
3FF0
00C0
00C0
ENDCHAR
STARTCHAR U+E05F
ENCODING 57439
SWIDTH 2304 0
DWIDTH 24 0
BBX 14 12 4 0
BITMAP
0C0C
0C0C
3FFC
3FFC
FFFC
FFFC
FFFC
FFFC
3FF0
3FF0
0C00
0C00
ENDCHAR
STARTCHAR U+E060
ENCODING 57440
SWIDTH 2304 0
DWIDTH 24 0
BBX 16 16 4 0
BITMAP
03C0
03C0
0FF0
0FF0
3FFC
3FFC
FFFF
FFFF
0FF0
0FF0
0FF0
0FF0
0FF0
0FF0
0FF0
0FF0
ENDCHAR
STARTCHAR U+E061
ENCODING 57441
SWIDTH 2304 0
DWIDTH 24 0
BBX 16 16 4 0
BITMAP
0FF0
0FF0
0FF0
0FF0
0FF0
0FF0
0FF0
0FF0
FFFF
FFFF
3FFC
3FFC
0FF0
0FF0
03C0
03C0
ENDCHAR
STARTCHAR U+E062
ENCODING 57442
SWIDTH 2304 0
DWIDTH 24 0
BBX 16 16 4 0
BITMAP
00C0
00C0
00F0
00F0
FFFC
FFFC
FFFF
FFFF
FFFF
FFFF
FFFC
FFFC
00F0
00F0
00C0
00C0
ENDCHAR
STARTCHAR U+E063
ENCODING 57443
SWIDTH 2304 0
DWIDTH 24 0
BBX 16 16 4 0
BITMAP
0300
0300
0F00
0F00
3FFF
3FFF
FFFF
FFFF
FFFF
FFFF
3FFF
3FFF
0F00
0F00
0300
0300
ENDCHAR
STARTCHAR U+E064
ENCODING 57444
SWIDTH 2304 0
DWIDTH 24 0
BBX 16 16 4 0
BITMAP
03C0
03C0
0FF0
0FF0
3FFC
3FFC
FFFF
FFFF
0FF0
0FF0
0FF0
0FF0
0FF0
0FF0
03FC
03FC
ENDCHAR
STARTCHAR U+E065
ENCODING 57445
SWIDTH 2304 0
DWIDTH 24 0
BBX 16 16 4 0
BITMAP
03FC
03FC
0FF0
0FF0
0FF0
0FF0
0FF0
0FF0
FFFF
FFFF
3FFC
3FFC
0FF0
0FF0
03C0
03C0
ENDCHAR
STARTCHAR U+E066
ENCODING 57446
SWIDTH 2304 0
DWIDTH 24 0
BBX 16 16 4 0
BITMAP
03C0
03C0
0FF0
0FF0
3FFC
3FFC
FFFF
FFFF
0FF0
0FF0
0FF0
0FF0
0FF0
0FF0
3FC0
3FC0
ENDCHAR
STARTCHAR U+E067
ENCODING 57447
SWIDTH 2304 0
DWIDTH 24 0
BBX 16 16 4 0
BITMAP
3FC0
3FC0
0FF0
0FF0
0FF0
0FF0
0FF0
0FF0
FFFF
FFFF
3FFC
3FFC
0FF0
0FF0
03C0
03C0
ENDCHAR
STARTCHAR U+E068
ENCODING 57448
SWIDTH 2304 0
DWIDTH 24 0
BBX 16 16 4 0
BITMAP
00C0
00C0
00F0
00F0
3FFC
3FFC
FFFF
FFFF
FFFF
FFFF
FFFC
FFFC
C0F0
C0F0
00C0
00C0
ENDCHAR
STARTCHAR U+E069
ENCODING 57449
SWIDTH 2304 0
DWIDTH 24 0
BBX 16 16 4 0
BITMAP
0300
0300
0F00
0F00
3FFC
3FFC
FFFF
FFFF
FFFF
FFFF
3FFF
3FFF
0F03
0F03
0300
0300
ENDCHAR
STARTCHAR U+E06A
ENCODING 57450
SWIDTH 2304 0
DWIDTH 24 0
BBX 16 16 4 0
BITMAP
00C0
00C0
C0F0
C0F0
FFFC
FFFC
FFFF
FFFF
FFFF
FFFF
3FFC
3FFC
00F0
00F0
00C0
00C0
ENDCHAR
STARTCHAR U+E06B
ENCODING 57451
SWIDTH 2304 0
DWIDTH 24 0
BBX 16 16 4 0
BITMAP
0300
0300
0F03
0F03
3FFF
3FFF
FFFF
FFFF
FFFF
FFFF
3FFC
3FFC
0F00
0F00
0300
0300
ENDCHAR
STARTCHAR U+E06C
ENCODING 57452
SWIDTH 2304 0
DWIDTH 24 0
BBX 12 14 6 0
BITMAP
0F00
0F00
3FC0
3FC0
FFF0
FFF0
3FC0
3FC0
3FC0
3FC0
3FC0
3FC0
3FC0
3FC0
ENDCHAR
STARTCHAR U+E06D
ENCODING 57453
SWIDTH 2304 0
DWIDTH 24 0
BBX 12 14 6 0
BITMAP
3FC0
3FC0
3FC0
3FC0
3FC0
3FC0
3FC0
3FC0
FFF0
FFF0
3FC0
3FC0
0F00
0F00
ENDCHAR
STARTCHAR U+E06E
ENCODING 57454
SWIDTH 2304 0
DWIDTH 24 0
BBX 14 12 4 0
BITMAP
00C0
00C0
FFF0
FFF0
FFFC
FFFC
FFFC
FFFC
FFF0
FFF0
00C0
00C0
ENDCHAR
STARTCHAR U+E06F
ENCODING 57455
SWIDTH 2304 0
DWIDTH 24 0
BBX 14 12 4 0
BITMAP
0C00
0C00
3FFC
3FFC
FFFC
FFFC
FFFC
FFFC
3FFC
3FFC
0C00
0C00
ENDCHAR
STARTCHAR U+E070
ENCODING 57456
SWIDTH 2304 0
DWIDTH 24 0
BBX 16 16 4 0
BITMAP
FFFF
FFFF
3FFC
3FFC
CFF3
CFF3
F3CF
F3CF
FC3F
FC3F
FFFF
FFFF
FFFF
FFFF
FFFF
FFFF
ENDCHAR
STARTCHAR U+E071
ENCODING 57457
SWIDTH 2304 0
DWIDTH 24 0
BBX 16 16 4 0
BITMAP
FFFF
FFFF
C003
C003
F00F
F00F
CC33
CC33
C3C3
C3C3
C003
C003
C003
C003
FFFF
FFFF
ENDCHAR
STARTCHAR U+E072
ENCODING 57458
SWIDTH 2304 0
DWIDTH 24 0
BBX 16 14 4 0
BITMAP
FFFF
FFFF
3FFC
3FFC
CFF3
CFF3
F3CF
F3CF
FC3F
FC3F
FFFF
FFFF
FFFF
FFFF
ENDCHAR
STARTCHAR U+E073
ENCODING 57459
SWIDTH 2304 0
DWIDTH 24 0
BBX 16 14 4 0
BITMAP
FFFF
FFFF
C003
C003
F00F
F00F
CC33
CC33
C3C3
C3C3
C003
C003
FFFF
FFFF
ENDCHAR
STARTCHAR U+E074
ENCODING 57460
SWIDTH 2304 0
DWIDTH 24 0
BBX 16 16 4 0
BITMAP
F000
F000
FCF0
FCF0
F3FC
F3FC
33FC
33FC
FCF0
FCF0
F3FC
F3FC
0FFF
0FFF
0FFF
0FFF
ENDCHAR
STARTCHAR U+E075
ENCODING 57461
SWIDTH 2304 0
DWIDTH 24 0
BBX 12 14 6 0
BITMAP
0F00
0F00
3FC0
3FC0
3FC0
3FC0
0F00
0F00
3FC0
3FC0
FFF0
FFF0
FFF0
FFF0
ENDCHAR
STARTCHAR U+E076
ENCODING 57462
SWIDTH 2304 0
DWIDTH 24 0
BBX 16 16 4 0
BITMAP
FFFF
FFFF
CFF3
CFF3
F3CF
F3CF
FC3F
FC3F
FC3F
FC3F
F3CF
F3CF
CFF3
CFF3
FFFF
FFFF
ENDCHAR
STARTCHAR U+E077
ENCODING 57463
SWIDTH 2304 0
DWIDTH 24 0
BBX 12 16 6 0
BITMAP
3FC0
3FC0
F0F0
F0F0
F0F0
F0F0
F0F0
F0F0
F0F0
F0F0
FFF0
FFF0
F0F0
F0F0
3FC0
3FC0
ENDCHAR
STARTCHAR U+E078
ENCODING 57464
SWIDTH 2304 0
DWIDTH 24 0
BBX 12 16 6 0
BITMAP
3FC0
3FC0
F0F0
F0F0
FFF0
FFF0
F0F0
F0F0
F0F0
F0F0
F0F0
F0F0
F0F0
F0F0
3FC0
3FC0
ENDCHAR
STARTCHAR U+E079
ENCODING 57465
SWIDTH 2304 0
DWIDTH 24 0
BBX 16 16 4 0
BITMAP
0FF0
0FF0
3FFC
3FFC
FFFF
FFFF
F00F
F00F
F00F
F00F
FFFF
FFFF
3FFC
3FFC
0FF0
0FF0
ENDCHAR
STARTCHAR U+E07A
ENCODING 57466
SWIDTH 2304 0
DWIDTH 24 0
BBX 12 14 6 0
BITMAP
0F00
0F00
3FC0
3FC0
FFF0
FFF0
3FC0
3FC0
3FC0
3FC0
3FC0
3FC0
0FF0
0FF0
ENDCHAR
STARTCHAR U+E07B
ENCODING 57467
SWIDTH 2304 0
DWIDTH 24 0
BBX 12 14 6 0
BITMAP
0FF0
0FF0
3FC0
3FC0
3FC0
3FC0
3FC0
3FC0
FFF0
FFF0
3FC0
3FC0
0F00
0F00
ENDCHAR
STARTCHAR U+E07C
ENCODING 57468
SWIDTH 2304 0
DWIDTH 24 0
BBX 12 14 6 0
BITMAP
0F00
0F00
3FC0
3FC0
FFF0
FFF0
3FC0
3FC0
3FC0
3FC0
3FC0
3FC0
FF00
FF00
ENDCHAR
STARTCHAR U+E07D
ENCODING 57469
SWIDTH 2304 0
DWIDTH 24 0
BBX 12 14 6 0
BITMAP
FF00
FF00
3FC0
3FC0
3FC0
3FC0
3FC0
3FC0
FFF0
FFF0
3FC0
3FC0
0F00
0F00
ENDCHAR
STARTCHAR U+E07E
ENCODING 57470
SWIDTH 2304 0
DWIDTH 24 0
BBX 14 12 4 0
BITMAP
00C0
00C0
3FF0
3FF0
FFFC
FFFC
FFFC
FFFC
FFF0
FFF0
C0C0
C0C0
ENDCHAR
STARTCHAR U+E07F
ENCODING 57471
SWIDTH 2304 0
DWIDTH 24 0
BBX 14 12 4 0
BITMAP
0C00
0C00
3FF0
3FF0
FFFC
FFFC
FFFC
FFFC
3FFC
3FFC
0C0C
0C0C
ENDCHAR
STARTCHAR U+E080
ENCODING 57472
SWIDTH 2304 0
DWIDTH 24 0
BBX 14 14 4 0
BITMAP
0300
0300
0CC0
0CC0
3CF0
3CF0
FC0C
FC0C
3FF0
3FF0
0FC0
0FC0
0300
0300
ENDCHAR
STARTCHAR U+E081
ENCODING 57473
SWIDTH 2304 0
DWIDTH 24 0
BBX 14 14 4 0
BITMAP
FFFC
FFFC
FCFC
FCFC
FCFC
FCFC
FC0C
FC0C
FFFC
FFFC
FFFC
FFFC
FFFC
FFFC
ENDCHAR
STARTCHAR U+E082
ENCODING 57474
SWIDTH 2304 0
DWIDTH 24 0
BBX 14 14 4 0
BITMAP
F33C
F33C
F03C
F03C
0FC0
0FC0
CFCC
CFCC
0FC0
0FC0
F03C
F03C
F33C
F33C
ENDCHAR
STARTCHAR U+E083
ENCODING 57475
SWIDTH 2304 0
DWIDTH 24 0
BBX 14 14 4 0
BITMAP
3000
3000
33FC
33FC
3FC0
3FC0
3CF0
3CF0
0FF0
0FF0
FF30
FF30
0030
0030
ENDCHAR
STARTCHAR U+E084
ENCODING 57476
SWIDTH 2304 0
DWIDTH 24 0
BBX 16 10 4 2
BITMAP
FFFC
FFFC
C00F
C00F
C00F
C00F
C00F
C00F
FFFC
FFFC
ENDCHAR
STARTCHAR U+E085
ENCODING 57477
SWIDTH 2304 0
DWIDTH 24 0
BBX 16 10 4 2
BITMAP
FFFC
FFFC
C00F
C00F
CF0F
CF0F
C00F
C00F
FFFC
FFFC
ENDCHAR
STARTCHAR U+E086
ENCODING 57478
SWIDTH 2304 0
DWIDTH 24 0
BBX 16 10 4 2
BITMAP
FFFC
FFFC
C00F
C00F
CFCF
CFCF
C00F
C00F
FFFC
FFFC
ENDCHAR
STARTCHAR U+E087
ENCODING 57479
SWIDTH 2304 0
DWIDTH 24 0
BBX 12 14 6 0
BITMAP
0F00
0F00
FFF0
FFF0
C030
C030
C030
C030
C030
C030
C030
C030
FFF0
FFF0
ENDCHAR
STARTCHAR U+E088
ENCODING 57480
SWIDTH 2304 0
DWIDTH 24 0
BBX 12 14 6 0
BITMAP
0F00
0F00
FFF0
FFF0
C030
C030
CC30
CC30
CF30
CF30
C030
C030
FFF0
FFF0
ENDCHAR
STARTCHAR U+E089
ENCODING 57481
SWIDTH 2304 0
DWIDTH 24 0
BBX 12 14 6 0
BITMAP
0F00
0F00
FFF0
FFF0
C030
C030
CF30
CF30
CF30
CF30
C030
C030
FFF0
FFF0
ENDCHAR
STARTCHAR U+E08A
ENCODING 57482
SWIDTH 2304 0
DWIDTH 24 0
BBX 10 14 6 0
BITMAP
3F00
3F00
FFC0
FFC0
C0C0
C0C0
C0C0
C0C0
C0C0
C0C0
C0C0
C0C0
FFC0
FFC0
ENDCHAR
STARTCHAR U+E08B
ENCODING 57483
SWIDTH 2304 0
DWIDTH 24 0
BBX 10 14 6 0
BITMAP
3F00
3F00
FFC0
FFC0
C0C0
C0C0
C0C0
C0C0
CCC0
CCC0
C0C0
C0C0
FFC0
FFC0
ENDCHAR
STARTCHAR U+E08C
ENCODING 57484
SWIDTH 2304 0
DWIDTH 24 0
BBX 10 14 6 0
BITMAP
3F00
3F00
FFC0
FFC0
C0C0
C0C0
CCC0
CCC0
CCC0
CCC0
C0C0
C0C0
FFC0
FFC0
ENDCHAR
STARTCHAR U+E08D
ENCODING 57485
SWIDTH 2304 0
DWIDTH 24 0
BBX 10 16 6 0
BITMAP
3F00
3F00
FFC0
FFC0
C0C0
C0C0
C0C0
C0C0
C0C0
C0C0
C0C0
C0C0
C0C0
C0C0
FFC0
FFC0
ENDCHAR
STARTCHAR U+E08E
ENCODING 57486
SWIDTH 2304 0
DWIDTH 24 0
BBX 10 16 6 0
BITMAP
3F00
3F00
FFC0
FFC0
C0C0
C0C0
C0C0
C0C0
CCC0
CCC0
CCC0
CCC0
C0C0
C0C0
FFC0
FFC0
ENDCHAR
STARTCHAR U+E08F
ENCODING 57487
SWIDTH 2304 0
DWIDTH 24 0
BBX 10 16 6 0
BITMAP
3F00
3F00
FFC0
FFC0
C0C0
C0C0
CCC0
CCC0
CCC0
CCC0
CCC0
CCC0
C0C0
C0C0
FFC0
FFC0
ENDCHAR
STARTCHAR U+E090
ENCODING 57488
SWIDTH 2304 0
DWIDTH 24 0
BBX 16 12 4 0
BITMAP
3FFF
3FFF
3003
3003
F003
F003
F003
F003
3003
3003
3FFF
3FFF
ENDCHAR
STARTCHAR U+E091
ENCODING 57489
SWIDTH 2304 0
DWIDTH 24 0
BBX 16 12 4 0
BITMAP
3FFF
3FFF
3003
3003
F033
F033
F0F3
F0F3
3003
3003
3FFF
3FFF
ENDCHAR
STARTCHAR U+E092
ENCODING 57490
SWIDTH 2304 0
DWIDTH 24 0
BBX 16 12 4 0
BITMAP
3FFF
3FFF
3003
3003
F0F3
F0F3
F3F3
F3F3
3003
3003
3FFF
3FFF
ENDCHAR
STARTCHAR U+E093
ENCODING 57491
SWIDTH 2304 0
DWIDTH 24 0
BBX 16 12 4 0
BITMAP
3FFF
3FFF
3003
3003
F3F3
F3F3
F3F3
F3F3
3003
3003
3FFF
3FFF
ENDCHAR
STARTCHAR U+E094
ENCODING 57492
SWIDTH 2304 0
DWIDTH 24 0
BBX 16 16 4 0
BITMAP
00C0
00C0
30F0
30F0
C0FF
C0FF
CCFF
CCFF
CCFF
CCFF
C0FF
C0FF
30F0
30F0
00C0
00C0
ENDCHAR
STARTCHAR U+E095
ENCODING 57493
SWIDTH 2304 0
DWIDTH 24 0
BBX 14 16 4 0
BITMAP
0C00
0C00
0F00
0F00
CFFC
CFFC
CFFC
CFFC
CFFC
CFFC
CFFC
CFFC
0F00
0F00
0C00
0C00
ENDCHAR
STARTCHAR U+E096
ENCODING 57494
SWIDTH 2304 0
DWIDTH 24 0
BBX 12 14 6 0
BITMAP
C030
C030
C0F0
C0F0
C3F0
C3F0
CFF0
CFF0
C3F0
C3F0
C0F0
C0F0
C030
C030
ENDCHAR
STARTCHAR U+E097
ENCODING 57495
SWIDTH 2304 0
DWIDTH 24 0
BBX 16 14 4 0
BITMAP
0303
0303
0F0F
0F0F
3F3F
3F3F
FFFF
FFFF
3F3F
3F3F
0F0F
0F0F
0303
0303
ENDCHAR
STARTCHAR U+E098
ENCODING 57496
SWIDTH 2304 0
DWIDTH 24 0
BBX 14 14 4 0
BITMAP
0FC0
0FC0
3FF0
3FF0
FFFC
FFFC
FFFC
FFFC
FFFC
FFFC
3FF0
3FF0
0FC0
0FC0
ENDCHAR
STARTCHAR U+E099
ENCODING 57497
SWIDTH 2304 0
DWIDTH 24 0
BBX 14 14 4 0
BITMAP
FFFC
FFFC
FFFC
FFFC
FFFC
FFFC
FFFC
FFFC
FFFC
FFFC
FFFC
FFFC
FFFC
FFFC
ENDCHAR
STARTCHAR U+E09A
ENCODING 57498
SWIDTH 2304 0
DWIDTH 24 0
BBX 8 14 8 0
BITMAP
C0
C0
F0
F0
FC
FC
FF
FF
FC
FC
F0
F0
C0
C0
ENDCHAR
STARTCHAR U+E09B
ENCODING 57499
SWIDTH 2304 0
DWIDTH 24 0
BBX 10 14 6 0
BITMAP
F3C0
F3C0
F3C0
F3C0
F3C0
F3C0
F3C0
F3C0
F3C0
F3C0
F3C0
F3C0
F3C0
F3C0
ENDCHAR
STARTCHAR U+E09C
ENCODING 57500
SWIDTH 2304 0
DWIDTH 24 0
BBX 12 14 6 0
BITMAP
C030
C030
F030
F030
FC30
FC30
FF30
FF30
FC30
FC30
F030
F030
C030
C030
ENDCHAR
STARTCHAR U+E09D
ENCODING 57501
SWIDTH 2304 0
DWIDTH 24 0
BBX 16 14 4 0
BITMAP
C0C0
C0C0
F0F0
F0F0
FCFC
FCFC
FFFF
FFFF
FCFC
FCFC
F0F0
F0F0
C0C0
C0C0
ENDCHAR
STARTCHAR U+E09E
ENCODING 57502
SWIDTH 2304 0
DWIDTH 24 0
BBX 12 18 6 -2
BITMAP
00C0
00C0
0300
0300
0F00
0F00
3C00
3C00
FFF0
FFF0
03C0
03C0
0F00
0F00
0C00
0C00
3000
3000
ENDCHAR
STARTCHAR U+E09F
ENCODING 57503
SWIDTH 2304 0
DWIDTH 24 0
BBX 16 16 4 0
BITMAP
FFFF
FFFF
C003
C003
C003
C003
C003
C003
C003
C003
FFFF
FFFF
03C0
03C0
3FFC
3FFC
ENDCHAR
STARTCHAR U+E0A0
ENCODING 57504
SWIDTH 2304 0
DWIDTH 24 0
BBX 12 12 6 0
BITMAP
3FC0
3FC0
F3F0
F3F0
FFC0
FFC0
FF00
FF00
FFF0
FFF0
3FC0
3FC0
ENDCHAR
STARTCHAR U+E0A1
ENCODING 57505
SWIDTH 2304 0
DWIDTH 24 0
BBX 16 16 4 0
BITMAP
03C0
03C0
03C0
03C0
0FF0
0FF0
0FF0
0FF0
3FFC
3FFC
3C3C
3C3C
FC3F
FC3F
F00F
F00F
ENDCHAR
STARTCHAR U+E0A2
ENCODING 57506
SWIDTH 2304 0
DWIDTH 24 0
BBX 12 12 6 0
BITMAP
3FC0
3FC0
F3F0
F3F0
F3F0
F3F0
F030
F030
FFF0
FFF0
3FC0
3FC0
ENDCHAR
STARTCHAR U+E0A3
ENCODING 57507
SWIDTH 2304 0
DWIDTH 24 0
BBX 14 14 4 0
BITMAP
0FC0
0FC0
3CF0
3CF0
FCFC
FCFC
FC0C
FC0C
FFFC
FFFC
3FF0
3FF0
0FC0
0FC0
ENDCHAR
STARTCHAR U+E0A4
ENCODING 57508
SWIDTH 2304 0
DWIDTH 24 0
BBX 10 14 6 0
BITMAP
3C00
3C00
3FC0
3FC0
3C00
3C00
3FC0
3FC0
3C00
3C00
FF00
FF00
3C00
3C00
ENDCHAR
STARTCHAR U+E0A5
ENCODING 57509
SWIDTH 2304 0
DWIDTH 24 0
BBX 12 14 6 0
BITMAP
0C30
0C30
3F00
3F00
3F30
3F30
3300
3300
C0C0
C0C0
C0C0
C0C0
3F00
3F00
ENDCHAR
STARTCHAR U+E0A6
ENCODING 57510
SWIDTH 2304 0
DWIDTH 24 0
BBX 12 14 6 0
BITMAP
3FC0
3FC0
C030
C030
C030
C030
C030
C030
FFF0
FFF0
FFF0
FFF0
FFF0
FFF0
ENDCHAR
STARTCHAR U+E0A7
ENCODING 57511
SWIDTH 2304 0
DWIDTH 24 0
BBX 12 16 6 0
BITMAP
FFF0
FFF0
F0F0
F0F0
F0F0
F0F0
F0F0
F0F0
F0F0
F0F0
FFF0
FFF0
F0F0
F0F0
FFF0
FFF0
ENDCHAR
STARTCHAR U+E0A8
ENCODING 57512
SWIDTH 2304 0
DWIDTH 24 0
BBX 12 16 6 0
BITMAP
FFF0
FFF0
F0F0
F0F0
FFF0
FFF0
F0F0
F0F0
F0F0
F0F0
F0F0
F0F0
F0F0
F0F0
FFF0
FFF0
ENDCHAR
STARTCHAR U+E0A9
ENCODING 57513
SWIDTH 2304 0
DWIDTH 24 0
BBX 16 12 4 0
BITMAP
0FF0
0FF0
300C
300C
C3C3
C3C3
C3C3
C3C3
300C
300C
0FF0
0FF0
ENDCHAR
STARTCHAR U+E0AA
ENCODING 57514
SWIDTH 2304 0
DWIDTH 24 0
BBX 14 16 4 0
BITMAP
0FC0
0FC0
3FF0
3FF0
F33C
F33C
F33C
F33C
FFFC
FFFC
FFFC
FFFC
FFFC
FFFC
CCCC
CCCC
ENDCHAR
STARTCHAR U+E0AB
ENCODING 57515
SWIDTH 2304 0
DWIDTH 24 0
BBX 16 16 4 0
BITMAP
0FF0
0FF0
3FFC
3FFC
FC3F
FC3F
F3CF
F3CF
F3CF
F3CF
FC3F
FC3F
3FFC
3FFC
0FF0
0FF0
ENDCHAR
STARTCHAR U+E0AC
ENCODING 57516
SWIDTH 2304 0
DWIDTH 24 0
BBX 12 12 6 0
BITMAP
FF00
FF00
C0C0
C0C0
FC30
FC30
C330
C330
F330
F330
FFF0
FFF0
ENDCHAR
STARTCHAR U+E0AD
ENCODING 57517
SWIDTH 2304 0
DWIDTH 24 0
BBX 16 16 4 0
BITMAP
3FFC
3FFC
C003
C003
C003
C003
C003
C003
C003
C003
3FCC
3FCC
00F0
00F0
00C0
00C0
ENDCHAR
STARTCHAR U+E0AE
ENCODING 57518
SWIDTH 2304 0
DWIDTH 24 0
BBX 16 16 4 0
BITMAP
03C0
03C0
0C30
0C30
3C3C
3C3C
FC3F
FC3F
FC3F
FC3F
3FFC
3FFC
0C30
0C30
03C0
03C0
ENDCHAR
STARTCHAR U+E0AF
ENCODING 57519
SWIDTH 2304 0
DWIDTH 24 0
BBX 12 14 6 0
BITMAP
FFF0
FFF0
C030
C030
C030
C030
C030
C030
FFF0
FFF0
0F00
0F00
FFF0
FFF0
ENDCHAR
STARTCHAR U+E0B0
ENCODING 57520
SWIDTH 2304 0
DWIDTH 24 0
BBX 12 14 6 0
BITMAP
0300
0300
C3C0
C3C0
3330
3330
0FC0
0FC0
3330
3330
C3C0
C3C0
0300
0300
ENDCHAR
STARTCHAR U+E0B1
ENCODING 57521
SWIDTH 2304 0
DWIDTH 24 0
BBX 16 16 4 0
BITMAP
FFC0
FFC0
FFC0
FFC0
FFC0
FFC0
FFCF
FFCF
FFCF
FFCF
000F
000F
03FF
03FF
03FF
03FF
ENDCHAR
STARTCHAR U+E0B2
ENCODING 57522
SWIDTH 2304 0
DWIDTH 24 0
BBX 16 16 4 0
BITMAP
03C0
03C0
0FF0
0FF0
3FFC
3FFC
FFFF
FFFF
300C
300C
33CC
33CC
33CC
33CC
3FFC
3FFC
ENDCHAR
STARTCHAR U+E0B3
ENCODING 57523
SWIDTH 2304 0
DWIDTH 24 0
BBX 6 16 8 0
BITMAP
FC
FC
FC
FC
FC
FC
FC
FC
FC
FC
00
00
FC
FC
FC
FC
ENDCHAR
STARTCHAR U+E0B4
ENCODING 57524
SWIDTH 2304 0
DWIDTH 24 0
BBX 16 14 4 0
BITMAP
FFFF
FFFF
C003
C003
C003
C003
C003
C003
C003
C003
C003
C003
FFFF
FFFF
ENDCHAR
STARTCHAR U+E0B5
ENCODING 57525
SWIDTH 2304 0
DWIDTH 24 0
BBX 16 14 4 0
BITMAP
FFFF
FFFF
C0C3
C0C3
C0FF
C0FF
C0C3
C0C3
C0FF
C0FF
C0C3
C0C3
FFFF
FFFF
ENDCHAR
STARTCHAR U+E0B6
ENCODING 57526
SWIDTH 2304 0
DWIDTH 24 0
BBX 16 14 4 0
BITMAP
FFFF
FFFF
C003
C003
C003
C003
FFFF
FFFF
CC33
CC33
CC33
CC33
FFFF
FFFF
ENDCHAR
STARTCHAR U+E0B7
ENCODING 57527
SWIDTH 2304 0
DWIDTH 24 0
BBX 16 14 4 0
BITMAP
FFFF
FFFF
C003
C003
C003
C003
C003
C003
FFFF
FFFF
C003
C003
FFFF
FFFF
ENDCHAR
STARTCHAR U+E0B8
ENCODING 57528
SWIDTH 2304 0
DWIDTH 24 0
BBX 16 14 4 0
BITMAP
FFFF
FFFF
CC33
CC33
FFFF
FFFF
CC33
CC33
FFFF
FFFF
CC33
CC33
FFFF
FFFF
ENDCHAR
STARTCHAR U+E0B9
ENCODING 57529
SWIDTH 2304 0
DWIDTH 24 0
BBX 16 14 4 0
BITMAP
FFC0
FFC0
C0C0
C0C0
C0C0
C0C0
FFCF
FFCF
0003
0003
0303
0303
03FF
03FF
ENDCHAR
STARTCHAR U+E0BA
ENCODING 57530
SWIDTH 2304 0
DWIDTH 24 0
BBX 16 14 4 0
BITMAP
FFFF
FFFF
C303
C303
C3FF
C3FF
C333
C333
C33F
C33F
C333
C333
FFFF
FFFF
ENDCHAR
STARTCHAR U+E0BB
ENCODING 57531
SWIDTH 2304 0
DWIDTH 24 0
BBX 16 14 4 0
BITMAP
FFFF
FFFF
C303
C303
C3FF
C3FF
C333
C333
C3F3
C3F3
C333
C333
FFFF
FFFF
ENDCHAR
STARTCHAR U+E0BC
ENCODING 57532
SWIDTH 2304 0
DWIDTH 24 0
BBX 16 14 4 0
BITMAP
FFFF
FFFF
C0C3
C0C3
C0FF
C0FF
FFC3
FFC3
C0FF
C0FF
C0C3
C0C3
FFFF
FFFF
ENDCHAR
STARTCHAR U+E0BD
ENCODING 57533
SWIDTH 2304 0
DWIDTH 24 0
BBX 16 14 4 0
BITMAP
FFFF
FFFF
C0C3
C0C3
C0C3
C0C3
FFFF
FFFF
CC33
CC33
CC33
CC33
FFFF
FFFF
ENDCHAR
STARTCHAR U+E0BE
ENCODING 57534
SWIDTH 2304 0
DWIDTH 24 0
BBX 16 14 4 0
BITMAP
FFFF
FFFF
C0C3
C0C3
C0C3
C0C3
FFC3
FFC3
C003
C003
C003
C003
FFFF
FFFF
ENDCHAR
STARTCHAR U+E0BF
ENCODING 57535
SWIDTH 2304 0
DWIDTH 24 0
BBX 16 16 4 0
BITMAP
03C0
03C0
0C30
0C30
300C
300C
FFFF
FFFF
300C
300C
33CC
33CC
33CC
33CC
3FFC
3FFC
ENDCHAR
STARTCHAR U+E0C0
ENCODING 57536
SWIDTH 2304 0
DWIDTH 24 0
BBX 14 14 4 0
BITMAP
F03C
F03C
CFCC
CFCC
3030
3030
3030
3030
3030
3030
CFCC
CFCC
F03C
F03C
ENDCHAR
STARTCHAR U+E0C1
ENCODING 57537
SWIDTH 2304 0
DWIDTH 24 0
BBX 16 16 4 0
BITMAP
F00F
F00F
CFF3
CFF3
300C
300C
300C
300C
300C
300C
300C
300C
CFF3
CFF3
F00F
F00F
ENDCHAR
STARTCHAR U+E0C2
ENCODING 57538
SWIDTH 2304 0
DWIDTH 24 0
BBX 14 14 4 0
BITMAP
C00C
C00C
3FF0
3FF0
3030
3030
3030
3030
3030
3030
3FF0
3FF0
C00C
C00C
ENDCHAR
STARTCHAR U+E0C3
ENCODING 57539
SWIDTH 2304 0
DWIDTH 24 0
BBX 16 16 4 0
BITMAP
C003
C003
3FFC
3FFC
300C
300C
300C
300C
300C
300C
300C
300C
3FFC
3FFC
C003
C003
ENDCHAR
STARTCHAR U+E0C4
ENCODING 57540
SWIDTH 2304 0
DWIDTH 24 0
BBX 14 14 4 0
BITMAP
CCCC
CCCC
0000
0000
FFFC
FFFC
C00C
C00C
FFFC
FFFC
0000
0000
CCCC
CCCC
ENDCHAR
STARTCHAR U+E0C5
ENCODING 57541
SWIDTH 2304 0
DWIDTH 24 0
BBX 14 16 4 0
BITMAP
CCCC
CCCC
0000
0000
FFFC
FFFC
C00C
C00C
C00C
C00C
FFFC
FFFC
0000
0000
CCCC
CCCC
ENDCHAR
STARTCHAR U+E0C6
ENCODING 57542
SWIDTH 2304 0
DWIDTH 24 0
BBX 14 14 4 0
BITMAP
0FC0
0FC0
3FF0
3FF0
F33C
F33C
F33C
F33C
FFFC
FFFC
FFFC
FFFC
CCCC
CCCC
ENDCHAR
STARTCHAR U+E0C7
ENCODING 57543
SWIDTH 2304 0
DWIDTH 24 0
BBX 14 14 4 0
BITMAP
0FC0
0FC0
3FF0
3FF0
F33C
F33C
FFFC
FFFC
FFFC
FFFC
FFFC
FFFC
CCCC
CCCC
ENDCHAR
STARTCHAR U+E0C8
ENCODING 57544
SWIDTH 2304 0
DWIDTH 24 0
BBX 14 16 4 0
BITMAP
0FC0
0FC0
3FF0
3FF0
F33C
F33C
FFFC
FFFC
FFFC
FFFC
FFFC
FFFC
FFFC
FFFC
CCCC
CCCC
ENDCHAR
STARTCHAR U+E0C9
ENCODING 57545
SWIDTH 2304 0
DWIDTH 24 0
BBX 14 14 4 0
BITMAP
0C3C
0C3C
C0FC
C0FC
03F0
03F0
3CC0
3CC0
C300
C300
C300
C300
3C00
3C00
ENDCHAR
STARTCHAR U+E0CA
ENCODING 57546
SWIDTH 2304 0
DWIDTH 24 0
BBX 16 16 4 0
BITMAP
030F
030F
0033
0033
30CC
30CC
0330
0330
3CC0
3CC0
C300
C300
C300
C300
3C00
3C00
ENDCHAR
STARTCHAR U+E0CB
ENCODING 57547
SWIDTH 2304 0
DWIDTH 24 0
BBX 14 14 4 0
BITMAP
0C3C
0C3C
C0CC
C0CC
0330
0330
3CC0
3CC0
C300
C300
C300
C300
3C00
3C00
ENDCHAR
STARTCHAR U+E0CC
ENCODING 57548
SWIDTH 2304 0
DWIDTH 24 0
BBX 12 16 6 0
BITMAP
0C30
0C30
3F00
3F00
3330
3330
3300
3300
3330
3330
C0C0
C0C0
C0C0
C0C0
3F00
3F00
ENDCHAR
STARTCHAR U+E0CD
ENCODING 57549
SWIDTH 2304 0
DWIDTH 24 0
BBX 12 14 6 0
BITMAP
0C30
0C30
3F00
3F00
3330
3330
3300
3300
C0C0
C0C0
C0C0
C0C0
3F00
3F00
ENDCHAR
STARTCHAR U+E0CE
ENCODING 57550
SWIDTH 2304 0
DWIDTH 24 0
BBX 12 14 6 0
BITMAP
3F00
3F00
33F0
33F0
3300
3300
33F0
33F0
3300
3300
C0C0
C0C0
3F00
3F00
ENDCHAR
STARTCHAR U+E0CF
ENCODING 57551
SWIDTH 2304 0
DWIDTH 24 0
BBX 12 16 6 0
BITMAP
3F00
3F00
33F0
33F0
3300
3300
33F0
33F0
3300
3300
C0C0
C0C0
C0C0
C0C0
3F00
3F00
ENDCHAR
STARTCHAR U+E0D0
ENCODING 57552
SWIDTH 2304 0
DWIDTH 24 0
BBX 16 16 4 0
BITMAP
03C0
03C0
0C30
0C30
300C
300C
FC3F
FC3F
0C30
0C30
0C30
0C30
0C30
0C30
0FF0
0FF0
ENDCHAR
STARTCHAR U+E0D1
ENCODING 57553
SWIDTH 2304 0
DWIDTH 24 0
BBX 16 16 4 0
BITMAP
0FF0
0FF0
0C30
0C30
0C30
0C30
0C30
0C30
FC3F
FC3F
300C
300C
0C30
0C30
03C0
03C0
ENDCHAR
STARTCHAR U+E0D2
ENCODING 57554
SWIDTH 2304 0
DWIDTH 24 0
BBX 16 16 4 0
BITMAP
00C0
00C0
00F0
00F0
FFCC
FFCC
C003
C003
C003
C003
FFCC
FFCC
00F0
00F0
00C0
00C0
ENDCHAR
STARTCHAR U+E0D3
ENCODING 57555
SWIDTH 2304 0
DWIDTH 24 0
BBX 16 16 4 0
BITMAP
0300
0300
0F00
0F00
33FF
33FF
C003
C003
C003
C003
33FF
33FF
0F00
0F00
0300
0300
ENDCHAR
STARTCHAR U+E0D4
ENCODING 57556
SWIDTH 2304 0
DWIDTH 24 0
BBX 14 14 4 0
BITMAP
0300
0300
0CC0
0CC0
3030
3030
FCFC
FCFC
0CC0
0CC0
0CC0
0CC0
0FC0
0FC0
ENDCHAR
STARTCHAR U+E0D5
ENCODING 57557
SWIDTH 2304 0
DWIDTH 24 0
BBX 14 14 4 0
BITMAP
0FC0
0FC0
0CC0
0CC0
0CC0
0CC0
FCFC
FCFC
3030
3030
0CC0
0CC0
0300
0300
ENDCHAR
STARTCHAR U+E0D6
ENCODING 57558
SWIDTH 2304 0
DWIDTH 24 0
BBX 14 14 4 0
BITMAP
0300
0300
03C0
03C0
FF30
FF30
C00C
C00C
FF30
FF30
03C0
03C0
0300
0300
ENDCHAR
STARTCHAR U+E0D7
ENCODING 57559
SWIDTH 2304 0
DWIDTH 24 0
BBX 14 14 4 0
BITMAP
0300
0300
0F00
0F00
33FC
33FC
C00C
C00C
33FC
33FC
0F00
0F00
0300
0300
ENDCHAR
STARTCHAR U+E0D8
ENCODING 57560
SWIDTH 2304 0
DWIDTH 24 0
BBX 16 14 4 0
BITMAP
03C0
03C0
0CC0
0CC0
F0FF
F0FF
C0C0
C0C0
F0FF
F0FF
0CC0
0CC0
03C0
03C0
ENDCHAR
STARTCHAR U+E0D9
ENCODING 57561
SWIDTH 2304 0
DWIDTH 24 0
BBX 16 16 4 0
BITMAP
03C0
03C0
0CC0
0CC0
30FF
30FF
C0C0
C0C0
C0C0
C0C0
30FF
30FF
0CC0
0CC0
03C0
03C0
ENDCHAR
STARTCHAR U+E0DA
ENCODING 57562
SWIDTH 2304 0
DWIDTH 24 0
BBX 12 16 6 0
BITMAP
30C0
30C0
30C0
30C0
30C0
30C0
FFF0
FFF0
C030
C030
30C0
30C0
0F00
0F00
0F00
0F00
ENDCHAR
STARTCHAR U+E0DB
ENCODING 57563
SWIDTH 2304 0
DWIDTH 24 0
BBX 12 14 6 0
BITMAP
30C0
30C0
30C0
30C0
FFF0
FFF0
C030
C030
30C0
30C0
0F00
0F00
0F00
0F00
ENDCHAR
STARTCHAR U+E0DC
ENCODING 57564
SWIDTH 2304 0
DWIDTH 24 0
BBX 16 14 4 0
BITMAP
0FF0
0FF0
300C
300C
C330
C330
C0C0
C0C0
C0FF
C0FF
300C
300C
0FF0
0FF0
ENDCHAR
STARTCHAR U+E0DD
ENCODING 57565
SWIDTH 2304 0
DWIDTH 24 0
BBX 16 16 4 0
BITMAP
03C0
03C0
0C30
0C30
0C30
0C30
300C
300C
300C
300C
C3C3
C3C3
CC33
CC33
F00F
F00F
ENDCHAR
STARTCHAR U+E0DE
ENCODING 57566
SWIDTH 2304 0
DWIDTH 24 0
BBX 16 16 4 0
BITMAP
0FF0
0FF0
300C
300C
C30C
C30C
C030
C030
C0C0
C0C0
C03F
C03F
300C
300C
0FF0
0FF0
ENDCHAR
STARTCHAR U+E0DF
ENCODING 57567
SWIDTH 2304 0
DWIDTH 24 0
BBX 14 14 4 0
BITMAP
0300
0300
0CC0
0CC0
0CC0
0CC0
3030
3030
3330
3330
CCCC
CCCC
F03C
F03C
ENDCHAR
STARTCHAR U+E0E0
ENCODING 57568
SWIDTH 2304 0
DWIDTH 24 0
BBX 16 16 4 0
BITMAP
0300
0300
0F0C
0F0C
F303
F303
C333
C333
C333
C333
F303
F303
0F0C
0F0C
0300
0300
ENDCHAR
STARTCHAR U+E0E1
ENCODING 57569
SWIDTH 2304 0
DWIDTH 24 0
BBX 16 14 4 0
BITMAP
0300
0300
0F0C
0F0C
F303
F303
C333
C333
F303
F303
0F0C
0F0C
0300
0300
ENDCHAR
STARTCHAR U+E0E2
ENCODING 57570
SWIDTH 2304 0
DWIDTH 24 0
BBX 14 16 4 0
BITMAP
00C0
00C0
03C0
03C0
FCCC
FCCC
C0CC
C0CC
C0CC
C0CC
FCCC
FCCC
03C0
03C0
00C0
00C0
ENDCHAR
STARTCHAR U+E0E3
ENCODING 57571
SWIDTH 2304 0
DWIDTH 24 0
BBX 14 14 4 0
BITMAP
00C0
00C0
03C0
03C0
FCCC
FCCC
C0CC
C0CC
FCCC
FCCC
03C0
03C0
00C0
00C0
ENDCHAR
STARTCHAR U+E0E4
ENCODING 57572
SWIDTH 2304 0
DWIDTH 24 0
BBX 12 16 6 0
BITMAP
C030
C030
C0F0
C0F0
C330
C330
CC30
CC30
CC30
CC30
C330
C330
C0F0
C0F0
C030
C030
ENDCHAR
STARTCHAR U+E0E5
ENCODING 57573
SWIDTH 2304 0
DWIDTH 24 0
BBX 16 16 4 0
BITMAP
0303
0303
0F0F
0F0F
3333
3333
C3C3
C3C3
C3C3
C3C3
3333
3333
0F0F
0F0F
0303
0303
ENDCHAR
STARTCHAR U+E0E6
ENCODING 57574
SWIDTH 2304 0
DWIDTH 24 0
BBX 16 16 4 0
BITMAP
0FF0
0FF0
300C
300C
C003
C003
C003
C003
C003
C003
C003
C003
300C
300C
0FF0
0FF0
ENDCHAR
STARTCHAR U+E0E7
ENCODING 57575
SWIDTH 2304 0
DWIDTH 24 0
BBX 16 16 4 0
BITMAP
FFFF
FFFF
C003
C003
C003
C003
C003
C003
C003
C003
C003
C003
C003
C003
FFFF
FFFF
ENDCHAR
STARTCHAR U+E0E8
ENCODING 57576
SWIDTH 2304 0
DWIDTH 24 0
BBX 8 16 8 0
BITMAP
C0
C0
F0
F0
CC
CC
C3
C3
C3
C3
CC
CC
F0
F0
C0
C0
ENDCHAR
STARTCHAR U+E0E9
ENCODING 57577
SWIDTH 2304 0
DWIDTH 24 0
BBX 8 16 8 0
BITMAP
C3
C3
C3
C3
C3
C3
C3
C3
C3
C3
C3
C3
C3
C3
C3
C3
ENDCHAR
STARTCHAR U+E0EA
ENCODING 57578
SWIDTH 2304 0
DWIDTH 24 0
BBX 12 16 6 0
BITMAP
C030
C030
F030
F030
CC30
CC30
C330
C330
C330
C330
CC30
CC30
F030
F030
C030
C030
ENDCHAR
STARTCHAR U+E0EB
ENCODING 57579
SWIDTH 2304 0
DWIDTH 24 0
BBX 16 16 4 0
BITMAP
C0C0
C0C0
F0F0
F0F0
CCCC
CCCC
C3C3
C3C3
C3C3
C3C3
CCCC
CCCC
F0F0
F0F0
C0C0
C0C0
ENDCHAR
STARTCHAR U+E0EC
ENCODING 57580
SWIDTH 2304 0
DWIDTH 24 0
BBX 14 14 4 0
BITMAP
0FFC
0FFC
0C0C
0C0C
0C0C
0C0C
0C0C
0C0C
3C3C
3C3C
CCCC
CCCC
F0F0
F0F0
ENDCHAR
STARTCHAR U+E0ED
ENCODING 57581
SWIDTH 2304 0
DWIDTH 24 0
BBX 14 16 4 0
BITMAP
0FFC
0FFC
0C0C
0C0C
0C0C
0C0C
0C0C
0C0C
0C0C
0C0C
3C3C
3C3C
CCCC
CCCC
F0F0
F0F0
ENDCHAR
STARTCHAR U+E0EE
ENCODING 57582
SWIDTH 2304 0
DWIDTH 24 0
BBX 6 8 12 0
BITMAP
0C
0C
0C
0C
CC
CC
CC
CC
ENDCHAR
STARTCHAR U+E0EF
ENCODING 57583
SWIDTH 2304 0
DWIDTH 24 0
BBX 10 12 8 0
BITMAP
00C0
00C0
00C0
00C0
0CC0
0CC0
0CC0
0CC0
CCC0
CCC0
CCC0
CCC0
ENDCHAR
STARTCHAR U+E0F0
ENCODING 57584
SWIDTH 2304 0
DWIDTH 24 0
BBX 14 16 4 0
BITMAP
000C
000C
000C
000C
00CC
00CC
00CC
00CC
0CCC
0CCC
0CCC
0CCC
CCCC
CCCC
CCCC
CCCC
ENDCHAR
STARTCHAR U+E0F1
ENCODING 57585
SWIDTH 2304 0
DWIDTH 24 0
BBX 6 6 12 0
BITMAP
0C
0C
0C
0C
CC
CC
ENDCHAR
STARTCHAR U+E0F2
ENCODING 57586
SWIDTH 2304 0
DWIDTH 24 0
BBX 10 10 8 0
BITMAP
00C0
00C0
00C0
00C0
0CC0
0CC0
0CC0
0CC0
CCC0
CCC0
ENDCHAR
STARTCHAR U+E0F3
ENCODING 57587
SWIDTH 2304 0
DWIDTH 24 0
BBX 14 14 4 0
BITMAP
000C
000C
000C
000C
00CC
00CC
00CC
00CC
0CCC
0CCC
0CCC
0CCC
CCCC
CCCC
ENDCHAR
STARTCHAR U+E0F4
ENCODING 57588
SWIDTH 2304 0
DWIDTH 24 0
BBX 12 14 6 0
BITMAP
C030
C030
C0F0
C0F0
C330
C330
CC30
CC30
C330
C330
C0F0
C0F0
C030
C030
ENDCHAR
STARTCHAR U+E0F5
ENCODING 57589
SWIDTH 2304 0
DWIDTH 24 0
BBX 16 14 4 0
BITMAP
0303
0303
0F0F
0F0F
3333
3333
C3C3
C3C3
3333
3333
0F0F
0F0F
0303
0303
ENDCHAR
STARTCHAR U+E0F6
ENCODING 57590
SWIDTH 2304 0
DWIDTH 24 0
BBX 14 14 4 0
BITMAP
0FC0
0FC0
3030
3030
C00C
C00C
C00C
C00C
C00C
C00C
3030
3030
0FC0
0FC0
ENDCHAR
STARTCHAR U+E0F7
ENCODING 57591
SWIDTH 2304 0
DWIDTH 24 0
BBX 14 14 4 0
BITMAP
FFFC
FFFC
C00C
C00C
C00C
C00C
C00C
C00C
C00C
C00C
C00C
C00C
FFFC
FFFC
ENDCHAR
STARTCHAR U+E0F8
ENCODING 57592
SWIDTH 2304 0
DWIDTH 24 0
BBX 8 14 8 0
BITMAP
C0
C0
F0
F0
CC
CC
C3
C3
CC
CC
F0
F0
C0
C0
ENDCHAR
STARTCHAR U+E0F9
ENCODING 57593
SWIDTH 2304 0
DWIDTH 24 0
BBX 8 14 8 0
BITMAP
C3
C3
C3
C3
C3
C3
C3
C3
C3
C3
C3
C3
C3
C3
ENDCHAR
STARTCHAR U+E0FA
ENCODING 57594
SWIDTH 2304 0
DWIDTH 24 0
BBX 12 14 6 0
BITMAP
C030
C030
F030
F030
CC30
CC30
C330
C330
CC30
CC30
F030
F030
C030
C030
ENDCHAR
STARTCHAR U+E0FB
ENCODING 57595
SWIDTH 2304 0
DWIDTH 24 0
BBX 16 14 4 0
BITMAP
C0C0
C0C0
F0F0
F0F0
CCCC
CCCC
C3C3
C3C3
CCCC
CCCC
F0F0
F0F0
C0C0
C0C0
ENDCHAR
STARTCHAR U+E0FC
ENCODING 57596
SWIDTH 2304 0
DWIDTH 24 0
BBX 16 14 4 0
BITMAP
0FF0
0FF0
300C
300C
C003
C003
C003
C003
FC3F
FC3F
CC33
CC33
3C3C
3C3C
ENDCHAR
STARTCHAR U+E0FD
ENCODING 57597
SWIDTH 2304 0
DWIDTH 24 0
BBX 16 14 4 0
BITMAP
0FF0
0FF0
300C
300C
C003
C003
C003
C003
FC3F
FC3F
FC3F
FC3F
3C3C
3C3C
ENDCHAR
STARTCHAR U+E0FE
ENCODING 57598
SWIDTH 2304 0
DWIDTH 24 0
BBX 14 14 4 0
BITMAP
0FFC
0FFC
0FFC
0FFC
0C0C
0C0C
0C0C
0C0C
3C3C
3C3C
FCFC
FCFC
F0F0
F0F0
ENDCHAR
STARTCHAR U+E0FF
ENCODING 57599
SWIDTH 2304 0
DWIDTH 24 0
BBX 6 16 8 0
BITMAP
FC
FC
FC
FC
00
00
FC
FC
FC
FC
FC
FC
FC
FC
FC
FC
ENDCHAR
STARTCHAR U+E100
ENCODING 57600
SWIDTH 2304 0
DWIDTH 24 0
BBX 14 14 4 0
BITMAP
FF0C
FF0C
3FFC
3FFC
303C
303C
F33C
F33C
F030
F030
FFF0
FFF0
C3FC
C3FC
ENDCHAR
STARTCHAR U+E101
ENCODING 57601
SWIDTH 2304 0
DWIDTH 24 0
BBX 12 12 6 0
BITMAP
FC30
FC30
3FF0
3FF0
30F0
30F0
F0C0
F0C0
FFC0
FFC0
C3F0
C3F0
ENDCHAR
STARTCHAR U+E102
ENCODING 57602
SWIDTH 2304 0
DWIDTH 24 0
BBX 16 12 4 0
BITMAP
FFFF
FFFF
F00F
F00F
CC33
CC33
C3C3
C3C3
C003
C003
FFFF
FFFF
ENDCHAR
STARTCHAR U+E103
ENCODING 57603
SWIDTH 2304 0
DWIDTH 24 0
BBX 16 12 4 0
BITMAP
FFFF
FFFF
3FFC
3FFC
CFF3
CFF3
F00F
F00F
FFFF
FFFF
FFFF
FFFF
ENDCHAR
STARTCHAR U+E104
ENCODING 57604
SWIDTH 2304 0
DWIDTH 24 0
BBX 16 16 4 0
BITMAP
03C0
03C0
0FF0
0FF0
3FFC
3FFC
FFFF
FFFF
FFFF
FFFF
3FFC
3FFC
0FF0
0FF0
03C0
03C0
ENDCHAR
STARTCHAR U+E105
ENCODING 57605
SWIDTH 2304 0
DWIDTH 24 0
BBX 14 14 4 0
BITMAP
0300
0300
0FC0
0FC0
3FF0
3FF0
FFFC
FFFC
3FF0
3FF0
0FC0
0FC0
0300
0300
ENDCHAR
STARTCHAR U+E106
ENCODING 57606
SWIDTH 2304 0
DWIDTH 24 0
BBX 16 16 4 0
BITMAP
3C3C
3C3C
FFFF
FFFF
FFFF
FFFF
FFFF
FFFF
FFFF
FFFF
3FFC
3FFC
0FF0
0FF0
03C0
03C0
ENDCHAR
STARTCHAR U+E107
ENCODING 57607
SWIDTH 2304 0
DWIDTH 24 0
BBX 16 14 4 0
BITMAP
3C3C
3C3C
FFFF
FFFF
FFFF
FFFF
FFFF
FFFF
3FFC
3FFC
0FF0
0FF0
03C0
03C0
ENDCHAR
STARTCHAR U+E108
ENCODING 57608
SWIDTH 2304 0
DWIDTH 24 0
BBX 14 16 4 0
BITMAP
0300
0300
0CC0
0CC0
3030
3030
FCFC
FCFC
0CC0
0CC0
0CC0
0CC0
0CC0
0CC0
0FC0
0FC0
ENDCHAR
STARTCHAR U+E109
ENCODING 57609
SWIDTH 2304 0
DWIDTH 24 0
BBX 14 16 4 0
BITMAP
0FC0
0FC0
0CC0
0CC0
0CC0
0CC0
0CC0
0CC0
FCFC
FCFC
3030
3030
0CC0
0CC0
0300
0300
ENDCHAR
STARTCHAR U+E10A
ENCODING 57610
SWIDTH 2304 0
DWIDTH 24 0
BBX 16 14 4 0
BITMAP
00C0
00C0
00F0
00F0
FFCC
FFCC
C003
C003
FFCC
FFCC
00F0
00F0
00C0
00C0
ENDCHAR
STARTCHAR U+E10B
ENCODING 57611
SWIDTH 2304 0
DWIDTH 24 0
BBX 16 14 4 0
BITMAP
0300
0300
0F00
0F00
33FF
33FF
C003
C003
33FF
33FF
0F00
0F00
0300
0300
ENDCHAR
STARTCHAR U+E10C
ENCODING 57612
SWIDTH 2304 0
DWIDTH 24 0
BBX 14 16 4 0
BITMAP
0300
0300
0300
0300
3330
3330
C30C
C30C
C30C
C30C
C00C
C00C
3030
3030
0FC0
0FC0
ENDCHAR
STARTCHAR U+E10D
ENCODING 57613
SWIDTH 2304 0
DWIDTH 24 0
BBX 14 14 4 0
BITMAP
0300
0300
3330
3330
C30C
C30C
C30C
C30C
C00C
C00C
3030
3030
0FC0
0FC0
ENDCHAR
STARTCHAR U+E10E
ENCODING 57614
SWIDTH 2304 0
DWIDTH 24 0
BBX 14 14 4 0
BITMAP
0300
0300
0CC0
0CC0
3030
3030
FFFC
FFFC
3030
3030
3330
3330
3FF0
3FF0
ENDCHAR
STARTCHAR U+E10F
ENCODING 57615
SWIDTH 2304 0
DWIDTH 24 0
BBX 12 14 6 0
BITMAP
30C0
30C0
33F0
33F0
30C0
30C0
30C0
30C0
30C0
30C0
FCC0
FCC0
30C0
30C0
ENDCHAR
STARTCHAR U+E110
ENCODING 57616
SWIDTH 2304 0
DWIDTH 24 0
BBX 10 14 6 0
BITMAP
0C00
0C00
FFC0
FFC0
C0C0
C0C0
C0C0
C0C0
C0C0
C0C0
C0C0
C0C0
FFC0
FFC0
ENDCHAR
STARTCHAR U+E111
ENCODING 57617
SWIDTH 2304 0
DWIDTH 24 0
BBX 10 14 6 0
BITMAP
0C00
0C00
FFC0
FFC0
C0C0
C0C0
C0C0
C0C0
CCC0
CCC0
C0C0
C0C0
FFC0
FFC0
ENDCHAR
STARTCHAR U+E112
ENCODING 57618
SWIDTH 2304 0
DWIDTH 24 0
BBX 10 14 6 0
BITMAP
0C00
0C00
FFC0
FFC0
C0C0
C0C0
CCC0
CCC0
CCC0
CCC0
C0C0
C0C0
FFC0
FFC0
ENDCHAR
STARTCHAR U+E113
ENCODING 57619
SWIDTH 2304 0
DWIDTH 24 0
BBX 16 10 4 2
BITMAP
FFFC
FFFC
C00C
C00C
C00F
C00F
C00C
C00C
FFFC
FFFC
ENDCHAR
STARTCHAR U+E114
ENCODING 57620
SWIDTH 2304 0
DWIDTH 24 0
BBX 16 10 4 2
BITMAP
FFFC
FFFC
C00C
C00C
CC0F
CC0F
C00C
C00C
FFFC
FFFC
ENDCHAR
STARTCHAR U+E115
ENCODING 57621
SWIDTH 2304 0
DWIDTH 24 0
BBX 16 10 4 2
BITMAP
FFFC
FFFC
C00C
C00C
CF0F
CF0F
C00C
C00C
FFFC
FFFC
ENDCHAR
STARTCHAR U+E116
ENCODING 57622
SWIDTH 2304 0
DWIDTH 24 0
BBX 16 10 4 2
BITMAP
FFFC
FFFC
C00C
C00C
CFCF
CFCF
C00C
C00C
FFFC
FFFC
ENDCHAR
STARTCHAR U+E117
ENCODING 57623
SWIDTH 2304 0
DWIDTH 24 0
BBX 16 10 4 2
BITMAP
3FFF
3FFF
3003
3003
F003
F003
3003
3003
3FFF
3FFF
ENDCHAR
STARTCHAR U+E118
ENCODING 57624
SWIDTH 2304 0
DWIDTH 24 0
BBX 16 10 4 2
BITMAP
3FFF
3FFF
3003
3003
F033
F033
3003
3003
3FFF
3FFF
ENDCHAR
STARTCHAR U+E119
ENCODING 57625
SWIDTH 2304 0
DWIDTH 24 0
BBX 16 10 4 2
BITMAP
3FFF
3FFF
3003
3003
F0F3
F0F3
3003
3003
3FFF
3FFF
ENDCHAR
STARTCHAR U+E11A
ENCODING 57626
SWIDTH 2304 0
DWIDTH 24 0
BBX 16 10 4 2
BITMAP
3FFF
3FFF
3003
3003
F3F3
F3F3
3003
3003
3FFF
3FFF
ENDCHAR
STARTCHAR U+E11B
ENCODING 57627
SWIDTH 2304 0
DWIDTH 24 0
BBX 16 16 4 0
BITMAP
00C0
00C0
30F0
30F0
C0CF
C0CF
CCC3
CCC3
CCC3
CCC3
C0CF
C0CF
30F0
30F0
00C0
00C0
ENDCHAR
STARTCHAR U+E11C
ENCODING 57628
SWIDTH 2304 0
DWIDTH 24 0
BBX 16 14 4 0
BITMAP
00C0
00C0
30F0
30F0
C0CF
C0CF
CCC3
CCC3
C0CF
C0CF
30F0
30F0
00C0
00C0
ENDCHAR
STARTCHAR U+E11D
ENCODING 57629
SWIDTH 2304 0
DWIDTH 24 0
BBX 14 16 4 0
BITMAP
0C00
0C00
0F00
0F00
CCFC
CCFC
CC0C
CC0C
CC0C
CC0C
CCFC
CCFC
0F00
0F00
0C00
0C00
ENDCHAR
STARTCHAR U+E11E
ENCODING 57630
SWIDTH 2304 0
DWIDTH 24 0
BBX 14 14 4 0
BITMAP
0C00
0C00
0F00
0F00
CCFC
CCFC
CC0C
CC0C
CCFC
CCFC
0F00
0F00
0C00
0C00
ENDCHAR
STARTCHAR U+E11F
ENCODING 57631
SWIDTH 2304 0
DWIDTH 24 0
BBX 14 12 4 0
BITMAP
0030
0030
FFFC
FFFC
0030
0030
3000
3000
FFFC
FFFC
3000
3000
ENDCHAR
STARTCHAR U+E120
ENCODING 57632
SWIDTH 2304 0
DWIDTH 24 0
BBX 14 14 4 0
BITMAP
FFFC
FFFC
C00C
C00C
F03C
F03C
CFCC
CFCC
C00C
C00C
C00C
C00C
FFFC
FFFC
ENDCHAR
STARTCHAR U+E121
ENCODING 57633
SWIDTH 2304 0
DWIDTH 24 0
BBX 14 14 4 0
BITMAP
FFFC
FFFC
3FF0
3FF0
CFCC
CFCC
F03C
F03C
FFFC
FFFC
FFFC
FFFC
FFFC
FFFC
ENDCHAR
STARTCHAR U+E122
ENCODING 57634
SWIDTH 2304 0
DWIDTH 24 0
BBX 14 12 4 0
BITMAP
FFFC
FFFC
C00C
C00C
F03C
F03C
CFCC
CFCC
C00C
C00C
FFFC
FFFC
ENDCHAR
STARTCHAR U+E123
ENCODING 57635
SWIDTH 2304 0
DWIDTH 24 0
BBX 14 12 4 0
BITMAP
FFFC
FFFC
3FF0
3FF0
CFCC
CFCC
F03C
F03C
FFFC
FFFC
FFFC
FFFC
ENDCHAR
STARTCHAR U+E124
ENCODING 57636
SWIDTH 2304 0
DWIDTH 24 0
BBX 14 14 4 0
BITMAP
FFFC
FFFC
F03C
F03C
CCCC
CCCC
C30C
C30C
C00C
C00C
C00C
C00C
FFFC
FFFC
ENDCHAR
STARTCHAR U+E125
ENCODING 57637
SWIDTH 2304 0
DWIDTH 24 0
BBX 14 12 4 0
BITMAP
FFFC
FFFC
F03C
F03C
CCCC
CCCC
C30C
C30C
C00C
C00C
FFFC
FFFC
ENDCHAR
STARTCHAR U+E126
ENCODING 57638
SWIDTH 2304 0
DWIDTH 24 0
BBX 14 10 4 2
BITMAP
FFFC
FFFC
F03C
F03C
CFCC
CFCC
C00C
C00C
FFFC
FFFC
ENDCHAR
STARTCHAR U+E127
ENCODING 57639
SWIDTH 2304 0
DWIDTH 24 0
BBX 14 10 4 2
BITMAP
FFFC
FFFC
3FF0
3FF0
CFCC
CFCC
F03C
F03C
FFFC
FFFC
ENDCHAR
STARTCHAR U+E128
ENCODING 57640
SWIDTH 2304 0
DWIDTH 24 0
BBX 14 14 4 0
BITMAP
0FC0
0FC0
3030
3030
C30C
C30C
C3CC
C3CC
C00C
C00C
3030
3030
0FC0
0FC0
ENDCHAR
STARTCHAR U+E129
ENCODING 57641
SWIDTH 2304 0
DWIDTH 24 0
BBX 14 14 4 0
BITMAP
0300
0300
0CC0
0CC0
3330
3330
C3CC
C3CC
3030
3030
0CC0
0CC0
0300
0300
ENDCHAR
STARTCHAR U+E12A
ENCODING 57642
SWIDTH 2304 0
DWIDTH 24 0
BBX 14 14 4 0
BITMAP
FFFC
FFFC
C00C
C00C
C30C
C30C
C3CC
C3CC
C00C
C00C
C00C
C00C
FFFC
FFFC
ENDCHAR
STARTCHAR U+E12B
ENCODING 57643
SWIDTH 2304 0
DWIDTH 24 0
BBX 10 16 6 0
BITMAP
0C00
0C00
3F00
3F00
FFC0
FFC0
0C00
0C00
0C00
0C00
0C00
0C00
0C00
0C00
0C00
0C00
ENDCHAR
STARTCHAR U+E12C
ENCODING 57644
SWIDTH 2304 0
DWIDTH 24 0
BBX 10 16 6 0
BITMAP
0C00
0C00
0C00
0C00
0C00
0C00
0C00
0C00
0C00
0C00
FFC0
FFC0
3F00
3F00
0C00
0C00
ENDCHAR
STARTCHAR U+E12D
ENCODING 57645
SWIDTH 2304 0
DWIDTH 24 0
BBX 16 10 4 2
BITMAP
0030
0030
003C
003C
FFFF
FFFF
003C
003C
0030
0030
ENDCHAR
STARTCHAR U+E12E
ENCODING 57646
SWIDTH 2304 0
DWIDTH 24 0
BBX 16 10 4 2
BITMAP
0C00
0C00
3C00
3C00
FFFF
FFFF
3C00
3C00
0C00
0C00
ENDCHAR
STARTCHAR U+E12F
ENCODING 57647
SWIDTH 2304 0
DWIDTH 24 0
BBX 12 16 6 0
BITMAP
30C0
30C0
33F0
33F0
30C0
30C0
30C0
30C0
30C0
30C0
30C0
30C0
FCC0
FCC0
30C0
30C0
ENDCHAR
STARTCHAR U+E130
ENCODING 57648
SWIDTH 2304 0
DWIDTH 24 0
BBX 16 16 4 0
BITMAP
FFFF
FFFF
C003
C003
C003
C003
C003
C003
C003
C003
C003
C003
C003
C003
FFFF
FFFF
ENDCHAR
STARTCHAR U+E131
ENCODING 57649
SWIDTH 2304 0
DWIDTH 24 0
BBX 16 16 4 0
BITMAP
FFFF
FFFF
C0C3
C0C3
C0FF
C0FF
C0C3
C0C3
C0C3
C0C3
C0FF
C0FF
C0C3
C0C3
FFFF
FFFF
ENDCHAR
STARTCHAR U+E132
ENCODING 57650
SWIDTH 2304 0
DWIDTH 24 0
BBX 16 16 4 0
BITMAP
FFFF
FFFF
C003
C003
C003
C003
C003
C003
FFFF
FFFF
CC33
CC33
CC33
CC33
FFFF
FFFF
ENDCHAR
STARTCHAR U+E133
ENCODING 57651
SWIDTH 2304 0
DWIDTH 24 0
BBX 16 16 4 0
BITMAP
FFFF
FFFF
C003
C003
C003
C003
FFFF
FFFF
C003
C003
FFFF
FFFF
C003
C003
FFFF
FFFF
ENDCHAR
STARTCHAR U+E134
ENCODING 57652
SWIDTH 2304 0
DWIDTH 24 0
BBX 16 16 4 0
BITMAP
FFFF
FFFF
CC33
CC33
FFFF
FFFF
CC33
CC33
CC33
CC33
FFFF
FFFF
CC33
CC33
FFFF
FFFF
ENDCHAR
STARTCHAR U+E135
ENCODING 57653
SWIDTH 2304 0
DWIDTH 24 0
BBX 16 16 4 0
BITMAP
FFC0
FFC0
C0C0
C0C0
C0C0
C0C0
C0CF
C0CF
FFC3
FFC3
0003
0003
0303
0303
03FF
03FF
ENDCHAR
STARTCHAR U+E136
ENCODING 57654
SWIDTH 2304 0
DWIDTH 24 0
BBX 16 16 4 0
BITMAP
FFFF
FFFF
C303
C303
C303
C303
C3FF
C3FF
C333
C333
C33F
C33F
C333
C333
FFFF
FFFF
ENDCHAR
STARTCHAR U+E137
ENCODING 57655
SWIDTH 2304 0
DWIDTH 24 0
BBX 16 16 4 0
BITMAP
FFFF
FFFF
C303
C303
C303
C303
C3FF
C3FF
C333
C333
C3F3
C3F3
C333
C333
FFFF
FFFF
ENDCHAR
STARTCHAR U+E138
ENCODING 57656
SWIDTH 2304 0
DWIDTH 24 0
BBX 16 16 4 0
BITMAP
FFFF
FFFF
C303
C303
C3FF
C3FF
C303
C303
FF03
FF03
C3FF
C3FF
C303
C303
FFFF
FFFF
ENDCHAR
STARTCHAR U+E139
ENCODING 57657
SWIDTH 2304 0
DWIDTH 24 0
BBX 16 16 4 0
BITMAP
FFFF
FFFF
C0C3
C0C3
C0C3
C0C3
C0C3
C0C3
FFFF
FFFF
CC33
CC33
CC33
CC33
FFFF
FFFF
ENDCHAR
STARTCHAR U+E13A
ENCODING 57658
SWIDTH 2304 0
DWIDTH 24 0
BBX 16 16 4 0
BITMAP
FFFF
FFFF
C0C3
C0C3
C0C3
C0C3
C0C3
C0C3
FFC3
FFC3
C003
C003
C003
C003
FFFF
FFFF
ENDCHAR
STARTCHAR U+E13B
ENCODING 57659
SWIDTH 2304 0
DWIDTH 24 0
BBX 10 14 6 0
BITMAP
0C00
0C00
3F00
3F00
FFC0
FFC0
0C00
0C00
0C00
0C00
0C00
0C00
0C00
0C00
ENDCHAR
STARTCHAR U+E13C
ENCODING 57660
SWIDTH 2304 0
DWIDTH 24 0
BBX 10 14 6 0
BITMAP
0C00
0C00
0C00
0C00
0C00
0C00
0C00
0C00
FFC0
FFC0
3F00
3F00
0C00
0C00
ENDCHAR
STARTCHAR U+E13D
ENCODING 57661
SWIDTH 2304 0
DWIDTH 24 0
BBX 14 10 4 2
BITMAP
00C0
00C0
00F0
00F0
FFFC
FFFC
00F0
00F0
00C0
00C0
ENDCHAR
STARTCHAR U+E13E
ENCODING 57662
SWIDTH 2304 0
DWIDTH 24 0
BBX 14 10 4 2
BITMAP
0C00
0C00
3C00
3C00
FFFC
FFFC
3C00
3C00
0C00
0C00
ENDCHAR
STARTCHAR U+E13F
ENCODING 57663
SWIDTH 2304 0
DWIDTH 24 0
BBX 16 12 4 0
BITMAP
000C
000C
FFFF
FFFF
000C
000C
3000
3000
FFFF
FFFF
3000
3000
ENDCHAR
STARTCHAR U+E140
ENCODING 57664
SWIDTH 2304 0
DWIDTH 24 0
BBX 14 16 4 0
BITMAP
0FC0
0FC0
3030
3030
CCCC
CCCC
CCCC
CCCC
C00C
C00C
C00C
C00C
F33C
F33C
CCCC
CCCC
ENDCHAR
STARTCHAR U+E141
ENCODING 57665
SWIDTH 2304 0
DWIDTH 24 0
BBX 14 14 4 0
BITMAP
0FC0
0FC0
3030
3030
CCCC
CCCC
CCCC
CCCC
C00C
C00C
F33C
F33C
CCCC
CCCC
ENDCHAR
STARTCHAR U+E142
ENCODING 57666
SWIDTH 2304 0
DWIDTH 24 0
BBX 14 16 4 0
BITMAP
0FC0
0FC0
3030
3030
CCCC
CCCC
C00C
C00C
C00C
C00C
C00C
C00C
F33C
F33C
CCCC
CCCC
ENDCHAR
STARTCHAR U+E143
ENCODING 57667
SWIDTH 2304 0
DWIDTH 24 0
BBX 14 14 4 0
BITMAP
0FC0
0FC0
3030
3030
CCCC
CCCC
C00C
C00C
C00C
C00C
F33C
F33C
CCCC
CCCC
ENDCHAR
STARTCHAR U+E144
ENCODING 57668
SWIDTH 2304 0
DWIDTH 24 0
BBX 14 14 4 0
BITMAP
FFFC
FFFC
C00C
C00C
C00C
C00C
CFCC
CFCC
CCCC
CCCC
CCCC
CCCC
3FFC
3FFC
ENDCHAR
STARTCHAR U+E145
ENCODING 57669
SWIDTH 2304 0
DWIDTH 24 0
BBX 14 14 4 0
BITMAP
FFFC
FFFC
C00C
C00C
C00C
C00C
CFCC
CFCC
CFCC
CFCC
CFCC
CFCC
3FFC
3FFC
ENDCHAR
STARTCHAR U+E146
ENCODING 57670
SWIDTH 2304 0
DWIDTH 24 0
BBX 16 16 4 0
BITMAP
FFFF
FFFF
C003
C003
C003
C003
C003
C003
CFF3
CFF3
CC33
CC33
CC33
CC33
3FFF
3FFF
ENDCHAR
STARTCHAR U+E147
ENCODING 57671
SWIDTH 2304 0
DWIDTH 24 0
BBX 16 16 4 0
BITMAP
FFFF
FFFF
C003
C003
C003
C003
C003
C003
CFF3
CFF3
CCF3
CCF3
CCF3
CCF3
3FFF
3FFF
ENDCHAR
STARTCHAR U+E148
ENCODING 57672
SWIDTH 2304 0
DWIDTH 24 0
BBX 14 14 4 0
BITMAP
0FC0
0FC0
0FC0
0FC0
FFFC
FFFC
FFFC
FFFC
CCCC
CCCC
FFFC
FFFC
FFFC
FFFC
ENDCHAR
STARTCHAR U+E149
ENCODING 57673
SWIDTH 2304 0
DWIDTH 24 0
BBX 14 16 4 0
BITMAP
0FC0
0FC0
0FC0
0FC0
FFFC
FFFC
FFFC
FFFC
FFFC
FFFC
CCCC
CCCC
FFFC
FFFC
FFFC
FFFC
ENDCHAR
STARTCHAR U+E14A
ENCODING 57674
SWIDTH 2304 0
DWIDTH 24 0
BBX 16 14 4 0
BITMAP
FFFF
FFFF
C003
C003
C003
C003
C003
C003
FFFF
FFFF
03C0
03C0
3FFC
3FFC
ENDCHAR
STARTCHAR U+E14B
ENCODING 57675
SWIDTH 2304 0
DWIDTH 24 0
BBX 12 16 6 0
BITMAP
FFF0
FFF0
FFF0
FFF0
0000
0000
3FC0
3FC0
3FC0
3FC0
0000
0000
0F00
0F00
0F00
0F00
ENDCHAR
STARTCHAR U+E14C
ENCODING 57676
SWIDTH 2304 0
DWIDTH 24 0
BBX 16 12 4 0
BITMAP
000F
000F
03CF
03CF
F3CF
F3CF
F3CF
F3CF
03CF
03CF
000F
000F
ENDCHAR
STARTCHAR U+E14D
ENCODING 57677
SWIDTH 2304 0
DWIDTH 24 0
BBX 14 14 4 0
BITMAP
0FF0
0FF0
3CFC
3CFC
FFF0
FFF0
FFC0
FFC0
FF00
FF00
3FFC
3FFC
0FF0
0FF0
ENDCHAR
STARTCHAR U+E14E
ENCODING 57678
SWIDTH 2304 0
DWIDTH 24 0
BBX 14 14 4 0
BITMAP
003C
003C
03FC
03FC
3FFC
3FFC
FFFC
FFFC
3FFC
3FFC
03FC
03FC
003C
003C
ENDCHAR
STARTCHAR U+E14F
ENCODING 57679
SWIDTH 2304 0
DWIDTH 24 0
BBX 14 14 4 0
BITMAP
F000
F000
FF00
FF00
FFF0
FFF0
FFFC
FFFC
FFF0
FFF0
FF00
FF00
F000
F000
ENDCHAR
STARTCHAR U+E150
ENCODING 57680
SWIDTH 2304 0
DWIDTH 24 0
BBX 16 14 4 0
BITMAP
03C0
03C0
0CF0
0CF0
3CFC
3CFC
FC0F
FC0F
3FFC
3FFC
0FF0
0FF0
03C0
03C0
ENDCHAR
STARTCHAR U+E151
ENCODING 57681
SWIDTH 2304 0
DWIDTH 24 0
BBX 14 14 4 0
BITMAP
0FC0
0FC0
3CF0
3CF0
FCFC
FCFC
FC0C
FC0C
FFFC
FFFC
3FF0
3FF0
0FC0
0FC0
ENDCHAR
STARTCHAR U+E152
ENCODING 57682
SWIDTH 2304 0
DWIDTH 24 0
BBX 16 14 4 0
BITMAP
0300
0300
0F0C
0F0C
FF03
FF03
FF33
FF33
FF03
FF03
0F0C
0F0C
0300
0300
ENDCHAR
STARTCHAR U+E153
ENCODING 57683
SWIDTH 2304 0
DWIDTH 24 0
BBX 16 16 4 0
BITMAP
03C0
03C0
0FF0
0FF0
3FFC
3FFC
FFFF
FFFF
FFFF
FFFF
3FFC
3FFC
03C0
03C0
0FF0
0FF0
ENDCHAR
STARTCHAR U+E154
ENCODING 57684
SWIDTH 2304 0
DWIDTH 24 0
BBX 16 14 4 0
BITMAP
03C0
03C0
0FF0
0FF0
3FFC
3FFC
FFFF
FFFF
3FFC
3FFC
03C0
03C0
0FF0
0FF0
ENDCHAR
STARTCHAR U+E155
ENCODING 57685
SWIDTH 2304 0
DWIDTH 24 0
BBX 16 14 4 0
BITMAP
03C0
03C0
0FF0
0FF0
3FFC
3FFC
FFFF
FFFF
0FF0
0FF0
0FF0
0FF0
0FF0
0FF0
ENDCHAR
STARTCHAR U+E156
ENCODING 57686
SWIDTH 2304 0
DWIDTH 24 0
BBX 16 14 4 0
BITMAP
0FF0
0FF0
0FF0
0FF0
0FF0
0FF0
FFFF
FFFF
3FFC
3FFC
0FF0
0FF0
03C0
03C0
ENDCHAR
STARTCHAR U+E157
ENCODING 57687
SWIDTH 2304 0
DWIDTH 24 0
BBX 14 14 4 0
BITMAP
0300
0300
03C0
03C0
FFF0
FFF0
FFFC
FFFC
FFF0
FFF0
03C0
03C0
0300
0300
ENDCHAR
STARTCHAR U+E158
ENCODING 57688
SWIDTH 2304 0
DWIDTH 24 0
BBX 14 14 4 0
BITMAP
0300
0300
0F00
0F00
3FFC
3FFC
FFFC
FFFC
3FFC
3FFC
0F00
0F00
0300
0300
ENDCHAR
STARTCHAR U+E159
ENCODING 57689
SWIDTH 2304 0
DWIDTH 24 0
BBX 16 12 4 0
BITMAP
03C0
03C0
0FF0
0FF0
3FFC
3FFC
FFFF
FFFF
0000
0000
FFFF
FFFF
ENDCHAR
STARTCHAR U+E15A
ENCODING 57690
SWIDTH 2304 0
DWIDTH 24 0
BBX 14 12 4 0
BITMAP
0300
0300
0FC0
0FC0
3FF0
3FF0
FFFC
FFFC
0000
0000
FFFC
FFFC
ENDCHAR
STARTCHAR U+E15B
ENCODING 57691
SWIDTH 2304 0
DWIDTH 24 0
BBX 16 12 4 0
BITMAP
FFFC
FFFC
C00C
C00C
C00F
C00F
C00F
C00F
C00C
C00C
FFFC
FFFC
ENDCHAR
STARTCHAR U+E15C
ENCODING 57692
SWIDTH 2304 0
DWIDTH 24 0
BBX 16 12 4 0
BITMAP
FFFC
FFFC
C00C
C00C
CC0F
CC0F
CF0F
CF0F
C00C
C00C
FFFC
FFFC
ENDCHAR
STARTCHAR U+E15D
ENCODING 57693
SWIDTH 2304 0
DWIDTH 24 0
BBX 16 12 4 0
BITMAP
FFFC
FFFC
C00C
C00C
CF0F
CF0F
CFCF
CFCF
C00C
C00C
FFFC
FFFC
ENDCHAR
STARTCHAR U+E15E
ENCODING 57694
SWIDTH 2304 0
DWIDTH 24 0
BBX 16 12 4 0
BITMAP
FFFC
FFFC
C00C
C00C
CFCF
CFCF
CFCF
CFCF
C00C
C00C
FFFC
FFFC
ENDCHAR
STARTCHAR U+E15F
ENCODING 57695
SWIDTH 2304 0
DWIDTH 24 0
BBX 10 14 6 0
BITMAP
3F00
3F00
F3C0
F3C0
F3C0
F3C0
FFC0
FFC0
F3C0
F3C0
F3C0
F3C0
3F00
3F00
ENDCHAR
STARTCHAR U+E160
ENCODING 57696
SWIDTH 2304 0
DWIDTH 24 0
BBX 8 14 8 0
BITMAP
3C
3C
FC
FC
3C
3C
3C
3C
3C
3C
3C
3C
FF
FF
ENDCHAR
STARTCHAR U+E161
ENCODING 57697
SWIDTH 2304 0
DWIDTH 24 0
BBX 10 14 6 0
BITMAP
3F00
3F00
F3C0
F3C0
03C0
03C0
0F00
0F00
3C00
3C00
F000
F000
FFC0
FFC0
ENDCHAR
STARTCHAR U+E162
ENCODING 57698
SWIDTH 2304 0
DWIDTH 24 0
BBX 10 14 6 0
BITMAP
3F00
3F00
F3C0
F3C0
03C0
03C0
3F00
3F00
03C0
03C0
F3C0
F3C0
3F00
3F00
ENDCHAR
STARTCHAR U+E163
ENCODING 57699
SWIDTH 2304 0
DWIDTH 24 0
BBX 12 14 6 0
BITMAP
03C0
03C0
0FC0
0FC0
33C0
33C0
C3C0
C3C0
FFF0
FFF0
03C0
03C0
03C0
03C0
ENDCHAR
STARTCHAR U+E164
ENCODING 57700
SWIDTH 2304 0
DWIDTH 24 0
BBX 10 14 6 0
BITMAP
FFC0
FFC0
F000
F000
FF00
FF00
03C0
03C0
03C0
03C0
F3C0
F3C0
3F00
3F00
ENDCHAR
STARTCHAR U+E165
ENCODING 57701
SWIDTH 2304 0
DWIDTH 24 0
BBX 10 14 6 0
BITMAP
0F00
0F00
3C00
3C00
F000
F000
FF00
FF00
F3C0
F3C0
F3C0
F3C0
3F00
3F00
ENDCHAR
STARTCHAR U+E166
ENCODING 57702
SWIDTH 2304 0
DWIDTH 24 0
BBX 10 14 6 0
BITMAP
FFC0
FFC0
03C0
03C0
0F00
0F00
0F00
0F00
3C00
3C00
3C00
3C00
3C00
3C00
ENDCHAR
STARTCHAR U+E167
ENCODING 57703
SWIDTH 2304 0
DWIDTH 24 0
BBX 10 14 6 0
BITMAP
3F00
3F00
F3C0
F3C0
F3C0
F3C0
3F00
3F00
F3C0
F3C0
F3C0
F3C0
3F00
3F00
ENDCHAR
STARTCHAR U+E168
ENCODING 57704
SWIDTH 2304 0
DWIDTH 24 0
BBX 10 14 6 0
BITMAP
3F00
3F00
F3C0
F3C0
F3C0
F3C0
3FC0
3FC0
03C0
03C0
0F00
0F00
3C00
3C00
ENDCHAR
STARTCHAR U+E169
ENCODING 57705
SWIDTH 2304 0
DWIDTH 24 0
BBX 12 16 6 0
BITMAP
3FC0
3FC0
F0F0
F0F0
F0F0
F0F0
F3F0
F3F0
FCF0
FCF0
F0F0
F0F0
F0F0
F0F0
3FC0
3FC0
ENDCHAR
STARTCHAR U+E16A
ENCODING 57706
SWIDTH 2304 0
DWIDTH 24 0
BBX 8 16 8 0
BITMAP
3C
3C
FC
FC
3C
3C
3C
3C
3C
3C
3C
3C
3C
3C
FF
FF
ENDCHAR
STARTCHAR U+E16B
ENCODING 57707
SWIDTH 2304 0
DWIDTH 24 0
BBX 12 16 6 0
BITMAP
3FC0
3FC0
F0F0
F0F0
00F0
00F0
03C0
03C0
0F00
0F00
3C00
3C00
F000
F000
FFF0
FFF0
ENDCHAR
STARTCHAR U+E16C
ENCODING 57708
SWIDTH 2304 0
DWIDTH 24 0
BBX 12 16 6 0
BITMAP
3FC0
3FC0
F0F0
F0F0
00F0
00F0
0FC0
0FC0
00F0
00F0
00F0
00F0
F0F0
F0F0
3FC0
3FC0
ENDCHAR
STARTCHAR U+E16D
ENCODING 57709
SWIDTH 2304 0
DWIDTH 24 0
BBX 12 16 6 0
BITMAP
03C0
03C0
0FC0
0FC0
33C0
33C0
C3C0
C3C0
FFF0
FFF0
03C0
03C0
03C0
03C0
03C0
03C0
ENDCHAR
STARTCHAR U+E16E
ENCODING 57710
SWIDTH 2304 0
DWIDTH 24 0
BBX 12 16 6 0
BITMAP
FFF0
FFF0
F000
F000
F000
F000
FFC0
FFC0
00F0
00F0
00F0
00F0
F0F0
F0F0
3FC0
3FC0
ENDCHAR
STARTCHAR U+E16F
ENCODING 57711
SWIDTH 2304 0
DWIDTH 24 0
BBX 12 16 6 0
BITMAP
0FC0
0FC0
3C00
3C00
F000
F000
FFC0
FFC0
F0F0
F0F0
F0F0
F0F0
F0F0
F0F0
3FC0
3FC0
ENDCHAR
STARTCHAR U+E170
ENCODING 57712
SWIDTH 2304 0
DWIDTH 24 0
BBX 12 16 6 0
BITMAP
FFF0
FFF0
00F0
00F0
00F0
00F0
03C0
03C0
03C0
03C0
0F00
0F00
0F00
0F00
0F00
0F00
ENDCHAR
STARTCHAR U+E171
ENCODING 57713
SWIDTH 2304 0
DWIDTH 24 0
BBX 12 16 6 0
BITMAP
3FC0
3FC0
F0F0
F0F0
F0F0
F0F0
3FC0
3FC0
F0F0
F0F0
F0F0
F0F0
F0F0
F0F0
3FC0
3FC0
ENDCHAR
STARTCHAR U+E172
ENCODING 57714
SWIDTH 2304 0
DWIDTH 24 0
BBX 12 16 6 0
BITMAP
3FC0
3FC0
F0F0
F0F0
F0F0
F0F0
F0F0
F0F0
3FF0
3FF0
00F0
00F0
03C0
03C0
3F00
3F00
ENDCHAR
STARTCHAR U+E173
ENCODING 57715
SWIDTH 2304 0
DWIDTH 24 0
BBX 12 14 6 0
BITMAP
FFF0
FFF0
F0F0
F0F0
F3F0
F3F0
FFF0
FFF0
FCF0
FCF0
F0F0
F0F0
FFF0
FFF0
ENDCHAR
STARTCHAR U+E174
ENCODING 57716
SWIDTH 2304 0
DWIDTH 24 0
BBX 6 14 8 0
BITMAP
3C
3C
FC
FC
3C
3C
3C
3C
3C
3C
3C
3C
3C
3C
ENDCHAR
STARTCHAR U+E175
ENCODING 57717
SWIDTH 2304 0
DWIDTH 24 0
BBX 12 14 6 0
BITMAP
FFF0
FFF0
00F0
00F0
00F0
00F0
FFF0
FFF0
F000
F000
F000
F000
FFF0
FFF0
ENDCHAR
STARTCHAR U+E176
ENCODING 57718
SWIDTH 2304 0
DWIDTH 24 0
BBX 12 14 6 0
BITMAP
FFF0
FFF0
00F0
00F0
00F0
00F0
FFF0
FFF0
00F0
00F0
00F0
00F0
FFF0
FFF0
ENDCHAR
STARTCHAR U+E177
ENCODING 57719
SWIDTH 2304 0
DWIDTH 24 0
BBX 12 14 6 0
BITMAP
F0F0
F0F0
F0F0
F0F0
F0F0
F0F0
FFF0
FFF0
00F0
00F0
00F0
00F0
00F0
00F0
ENDCHAR
STARTCHAR U+E178
ENCODING 57720
SWIDTH 2304 0
DWIDTH 24 0
BBX 12 14 6 0
BITMAP
FFF0
FFF0
F000
F000
F000
F000
FFF0
FFF0
00F0
00F0
00F0
00F0
FFF0
FFF0
ENDCHAR
STARTCHAR U+E179
ENCODING 57721
SWIDTH 2304 0
DWIDTH 24 0
BBX 12 14 6 0
BITMAP
FFF0
FFF0
F000
F000
F000
F000
FFF0
FFF0
F0F0
F0F0
F0F0
F0F0
FFF0
FFF0
ENDCHAR
STARTCHAR U+E17A
ENCODING 57722
SWIDTH 2304 0
DWIDTH 24 0
BBX 12 14 6 0
BITMAP
FFF0
FFF0
00F0
00F0
00F0
00F0
00F0
00F0
00F0
00F0
00F0
00F0
00F0
00F0
ENDCHAR
STARTCHAR U+E17B
ENCODING 57723
SWIDTH 2304 0
DWIDTH 24 0
BBX 12 14 6 0
BITMAP
FFF0
FFF0
F0F0
F0F0
F0F0
F0F0
3FC0
3FC0
F0F0
F0F0
F0F0
F0F0
FFF0
FFF0
ENDCHAR
STARTCHAR U+E17C
ENCODING 57724
SWIDTH 2304 0
DWIDTH 24 0
BBX 12 14 6 0
BITMAP
FFF0
FFF0
F0F0
F0F0
F0F0
F0F0
FFF0
FFF0
00F0
00F0
00F0
00F0
00F0
00F0
ENDCHAR
STARTCHAR U+E17D
ENCODING 57725
SWIDTH 2304 0
DWIDTH 24 0
BBX 12 16 6 0
BITMAP
FFF0
FFF0
F0F0
F0F0
F3F0
F3F0
F3F0
F3F0
FCF0
FCF0
FCF0
FCF0
F0F0
F0F0
FFF0
FFF0
ENDCHAR
STARTCHAR U+E17E
ENCODING 57726
SWIDTH 2304 0
DWIDTH 24 0
BBX 8 16 8 0
BITMAP
0F
0F
3F
3F
FF
FF
0F
0F
0F
0F
0F
0F
0F
0F
0F
0F
ENDCHAR
STARTCHAR U+E17F
ENCODING 57727
SWIDTH 2304 0
DWIDTH 24 0
BBX 12 16 6 0
BITMAP
FFF0
FFF0
00F0
00F0
00F0
00F0
FFF0
FFF0
F000
F000
F000
F000
F000
F000
FFF0
FFF0
ENDCHAR
STARTCHAR U+E180
ENCODING 57728
SWIDTH 2304 0
DWIDTH 24 0
BBX 12 16 6 0
BITMAP
FFF0
FFF0
00F0
00F0
00F0
00F0
FFF0
FFF0
00F0
00F0
00F0
00F0
00F0
00F0
FFF0
FFF0
ENDCHAR
STARTCHAR U+E181
ENCODING 57729
SWIDTH 2304 0
DWIDTH 24 0
BBX 12 16 6 0
BITMAP
F0F0
F0F0
F0F0
F0F0
F0F0
F0F0
FFF0
FFF0
00F0
00F0
00F0
00F0
00F0
00F0
00F0
00F0
ENDCHAR
STARTCHAR U+E182
ENCODING 57730
SWIDTH 2304 0
DWIDTH 24 0
BBX 12 16 6 0
BITMAP
FFF0
FFF0
F000
F000
F000
F000
FFF0
FFF0
00F0
00F0
00F0
00F0
00F0
00F0
FFF0
FFF0
ENDCHAR
STARTCHAR U+E183
ENCODING 57731
SWIDTH 2304 0
DWIDTH 24 0
BBX 12 16 6 0
BITMAP
FFF0
FFF0
F000
F000
F000
F000
FFF0
FFF0
F0F0
F0F0
F0F0
F0F0
F0F0
F0F0
FFF0
FFF0
ENDCHAR
STARTCHAR U+E184
ENCODING 57732
SWIDTH 2304 0
DWIDTH 24 0
BBX 12 16 6 0
BITMAP
FFF0
FFF0
00F0
00F0
00F0
00F0
00F0
00F0
00F0
00F0
00F0
00F0
00F0
00F0
00F0
00F0
ENDCHAR
STARTCHAR U+E185
ENCODING 57733
SWIDTH 2304 0
DWIDTH 24 0
BBX 12 16 6 0
BITMAP
FFF0
FFF0
F0F0
F0F0
F0F0
F0F0
3FC0
3FC0
F0F0
F0F0
F0F0
F0F0
F0F0
F0F0
FFF0
FFF0
ENDCHAR
STARTCHAR U+E186
ENCODING 57734
SWIDTH 2304 0
DWIDTH 24 0
BBX 12 16 6 0
BITMAP
FFF0
FFF0
F0F0
F0F0
F0F0
F0F0
FFF0
FFF0
00F0
00F0
00F0
00F0
00F0
00F0
FFF0
FFF0
ENDCHAR
STARTCHAR U+E187
ENCODING 57735
SWIDTH 2304 0
DWIDTH 24 0
BBX 14 16 6 0
BITMAP
FFFC
FFFC
FCFC
FCFC
F0FC
F0FC
FCFC
FCFC
FCFC
FCFC
FCFC
FCFC
F03C
F03C
FFFC
FFFC
ENDCHAR
STARTCHAR U+E188
ENCODING 57736
SWIDTH 2304 0
DWIDTH 24 0
BBX 14 16 6 0
BITMAP
FFFC
FFFC
F03C
F03C
CFCC
CFCC
FF3C
FF3C
FCFC
FCFC
F3FC
F3FC
C00C
C00C
FFFC
FFFC
ENDCHAR
STARTCHAR U+E189
ENCODING 57737
SWIDTH 2304 0
DWIDTH 24 0
BBX 14 16 6 0
BITMAP
FFFC
FFFC
F03C
F03C
CFCC
CFCC
FC3C
FC3C
FFCC
FFCC
CFCC
CFCC
F03C
F03C
FFFC
FFFC
ENDCHAR
STARTCHAR U+E18A
ENCODING 57738
SWIDTH 2304 0
DWIDTH 24 0
BBX 14 16 6 0
BITMAP
FFFC
FFFC
FF3C
FF3C
FC3C
FC3C
F33C
F33C
C00C
C00C
FF3C
FF3C
FF3C
FF3C
FFFC
FFFC
ENDCHAR
STARTCHAR U+E18B
ENCODING 57739
SWIDTH 2304 0
DWIDTH 24 0
BBX 14 16 6 0
BITMAP
FFFC
FFFC
C00C
C00C
CFFC
CFFC
C03C
C03C
FFCC
FFCC
CFCC
CFCC
F03C
F03C
FFFC
FFFC
ENDCHAR
STARTCHAR U+E18C
ENCODING 57740
SWIDTH 2304 0
DWIDTH 24 0
BBX 14 16 6 0
BITMAP
FFFC
FFFC
F03C
F03C
CFFC
CFFC
C03C
C03C
CFCC
CFCC
CFCC
CFCC
F03C
F03C
FFFC
FFFC
ENDCHAR
STARTCHAR U+E18D
ENCODING 57741
SWIDTH 2304 0
DWIDTH 24 0
BBX 14 16 6 0
BITMAP
FFFC
FFFC
C00C
C00C
FFCC
FFCC
FF3C
FF3C
FF3C
FF3C
FCFC
FCFC
FCFC
FCFC
FFFC
FFFC
ENDCHAR
STARTCHAR U+E18E
ENCODING 57742
SWIDTH 2304 0
DWIDTH 24 0
BBX 14 16 6 0
BITMAP
FFFC
FFFC
F03C
F03C
CFCC
CFCC
F03C
F03C
CFCC
CFCC
CFCC
CFCC
F03C
F03C
FFFC
FFFC
ENDCHAR
STARTCHAR U+E18F
ENCODING 57743
SWIDTH 2304 0
DWIDTH 24 0
BBX 14 16 6 0
BITMAP
FFFC
FFFC
F03C
F03C
CFCC
CFCC
CFCC
CFCC
F00C
F00C
FFCC
FFCC
F03C
F03C
FFFC
FFFC
ENDCHAR
STARTCHAR U+E190
ENCODING 57744
SWIDTH 2304 0
DWIDTH 24 0
BBX 20 8 2 2
BITMAP
3C03C0
3C03C0
FF0FF0
FF0FF0
FF0FF0
FF0FF0
3C03C0
3C03C0
ENDCHAR
STARTCHAR U+E191
ENCODING 57745
SWIDTH 2304 0
DWIDTH 24 0
BBX 8 8 8 2
BITMAP
3C
3C
FF
FF
FF
FF
3C
3C
ENDCHAR
STARTCHAR U+E192
ENCODING 57746
SWIDTH 2304 0
DWIDTH 24 0
BBX 4 10 10 2
BITMAP
F0
F0
F0
F0
00
00
F0
F0
F0
F0
ENDCHAR
STARTCHAR U+E193
ENCODING 57747
SWIDTH 2304 0
DWIDTH 24 0
BBX 4 12 10 0
BITMAP
F0
F0
F0
F0
00
00
00
00
F0
F0
F0
F0
ENDCHAR
STARTCHAR U+E194
ENCODING 57748
SWIDTH 2304 0
DWIDTH 24 0
BBX 12 10 6 2
BITMAP
F0F0
F0F0
F0F0
F0F0
0000
0000
F0F0
F0F0
F0F0
F0F0
ENDCHAR
STARTCHAR U+E195
ENCODING 57749
SWIDTH 2304 0
DWIDTH 24 0
BBX 12 12 6 0
BITMAP
F0F0
F0F0
F0F0
F0F0
0000
0000
0000
0000
F0F0
F0F0
F0F0
F0F0
ENDCHAR
STARTCHAR U+E196
ENCODING 57750
SWIDTH 2304 0
DWIDTH 24 0
BBX 12 16 6 0
BITMAP
F0F0
F0F0
F0F0
F0F0
0000
0000
F0F0
F0F0
F0F0
F0F0
0000
0000
F0F0
F0F0
F0F0
F0F0
ENDCHAR
STARTCHAR char57751
ENCODING 57751
SWIDTH 2304 0
DWIDTH 24 0
BBX 14 16 4 0
BITMAP
00CC
00CC
00CC
00CC
CCFC
CCFC
FC30
FC30
FC30
FC30
3030
3030
FFF0
FFF0
FC30
FC30
ENDCHAR
STARTCHAR char57752
ENCODING 57752
SWIDTH 2304 0
DWIDTH 24 0
BBX 16 16 4 0
BITMAP
000C
000C
C0F3
C0F3
3F33
3F33
3F3F
3F3F
3F0C
3F0C
0C0C
0C0C
3FFC
3FFC
3F0C
3F0C
ENDCHAR
STARTCHAR char57753
ENCODING 57753
SWIDTH 2304 0
DWIDTH 24 0
BBX 16 16 4 0
BITMAP
0033
0033
C0F3
C0F3
3F3F
3F3F
3F0C
3F0C
3F0C
3F0C
0C0C
0C0C
3FFC
3FFC
3F0C
3F0C
ENDCHAR
STARTCHAR char57754
ENCODING 57754
SWIDTH 2304 0
DWIDTH 24 0
BBX 16 16 4 0
BITMAP
C003
C003
C003
C003
FFFF
FFFF
33CC
33CC
F3CF
F3CF
FFFF
FFFF
300C
300C
3FFC
3FFC
ENDCHAR
STARTCHAR char57755
ENCODING 57755
SWIDTH 2304 0
DWIDTH 24 0
BBX 16 16 4 0
BITMAP
3FFC
3FFC
FFFF
FFFF
FFFF
FFFF
FFFF
FFFF
FFFC
FFFC
F000
F000
F000
F000
3C00
3C00
ENDCHAR
STARTCHAR char57756
ENCODING 57756
SWIDTH 2304 0
DWIDTH 24 0
BBX 16 16 4 0
BITMAP
FFC0
FFC0
C0C0
C0C0
C3FF
C3FF
FF03
FF03
0F03
0F03
0FFF
0FFF
0C30
0C30
FFFF
FFFF
ENDCHAR
STARTCHAR char57757
ENCODING 57757
SWIDTH 2304 0
DWIDTH 24 0
BBX 16 16 4 0
BITMAP
300C
300C
0C30
0C30
3FFC
3FFC
33CC
33CC
FFFF
FFFF
CC33
CC33
CFF3
CFF3
0C30
0C30
ENDCHAR
STARTCHAR char57758
ENCODING 57758
SWIDTH 2304 0
DWIDTH 24 0
BBX 16 16 4 0
BITMAP
FFFF
FFFF
FFFF
FFFF
03C0
03C0
03C0
03C0
FFFF
FFFF
F3CF
F3CF
F00F
F00F
FFFF
FFFF
ENDCHAR
STARTCHAR char57759
ENCODING 57759
SWIDTH 2304 0
DWIDTH 24 0
BBX 16 16 4 0
BITMAP
3FFC
3FFC
FFFF
FFFF
FFFF
FFFF
FFFF
FFFF
3FFF
3FFF
003C
003C
0030
0030
00C0
00C0
ENDCHAR
STARTCHAR char57760
ENCODING 57760
SWIDTH 2304 0
DWIDTH 24 0
BBX 16 16 4 0
BITMAP
0FF0
0FF0
3C3C
3C3C
FF3F
FF3F
FF33
FF33
CC33
CC33
CC3F
CC3F
30FC
30FC
0FF0
0FF0
ENDCHAR
STARTCHAR char57761
ENCODING 57761
SWIDTH 2304 0
DWIDTH 24 0
BBX 16 16 4 0
BITMAP
3FFC
3FFC
FFFF
FFFF
C003
C003
CC03
CC03
C303
C303
CC03
CC03
C003
C003
3FFC
3FFC
ENDCHAR
STARTCHAR char57762
ENCODING 57762
SWIDTH 2304 0
DWIDTH 24 0
BBX 16 16 4 0
BITMAP
3FFC
3FFC
FFFF
FFFF
C003
C003
CFF3
CFF3
C003
C003
CFF3
CFF3
C003
C003
3FFC
3FFC
ENDCHAR
STARTCHAR char57763
ENCODING 57763
SWIDTH 2304 0
DWIDTH 24 0
BBX 16 16 4 0
BITMAP
3FFC
3FFC
FFFF
FFFF
C003
C003
CC33
CC33
C003
C003
CFF3
CFF3
C003
C003
3FFC
3FFC
ENDCHAR
STARTCHAR char57764
ENCODING 57764
SWIDTH 2304 0
DWIDTH 24 0
BBX 16 16 4 0
BITMAP
FF3F
FF3F
FF3F
FF3F
FF00
FF00
003F
003F
FF3F
FF3F
FF00
FF00
FF3F
FF3F
FF3F
FF3F
ENDCHAR
STARTCHAR char57765
ENCODING 57765
SWIDTH 2304 0
DWIDTH 24 0
BBX 16 16 4 0
BITMAP
FCFF
FCFF
FCFF
FCFF
FCFF
FCFF
FCFF
FCFF
0000
0000
F3CF
F3CF
F3CF
F3CF
F3CF
F3CF
ENDCHAR
STARTCHAR char57766
ENCODING 57766
SWIDTH 2304 0
DWIDTH 24 0
BBX 16 16 4 0
BITMAP
0FFF
0FFF
0FFF
0FFF
0C03
0C03
0C03
0C03
0C03
0C03
0C03
0C03
FC3F
FC3F
FC3F
FC3F
ENDCHAR
STARTCHAR char57767
ENCODING 57767
SWIDTH 2304 0
DWIDTH 24 0
BBX 16 16 4 0
BITMAP
3FFC
3FFC
FFFF
FFFF
FFFF
FFFF
FFFF
FFFF
FFFF
FFFF
3FFC
3FFC
00F0
00F0
03C0
03C0
ENDCHAR
STARTCHAR char57768
ENCODING 57768
SWIDTH 2304 0
DWIDTH 24 0
BBX 18 14 2 0
BITMAP
FFFFC0
FFFFC0
CFFCC0
CFFCC0
F3F3C0
F3F3C0
FCCFC0
FCCFC0
F333C0
F333C0
CFFCC0
CFFCC0
FFFFC0
FFFFC0
ENDCHAR
STARTCHAR char57769
ENCODING 57769
SWIDTH 2304 0
DWIDTH 24 0
BBX 12 24 6 -4
BITMAP
C000
C000
F000
F000
FC00
FC00
FF00
FF00
FFC0
FFC0
FFF0
FFF0
FFF0
FFF0
FFC0
FFC0
FF00
FF00
FC00
FC00
F000
F000
C000
C000
ENDCHAR
STARTCHAR char57770
ENCODING 57770
SWIDTH 2304 0
DWIDTH 24 0
BBX 12 24 6 -4
BITMAP
C000
C000
3000
3000
0C00
0C00
0300
0300
00C0
00C0
0030
0030
0030
0030
00C0
00C0
0300
0300
0C00
0C00
3000
3000
C000
C000
ENDCHAR
STARTCHAR char57771
ENCODING 57771
SWIDTH 2304 0
DWIDTH 24 0
BBX 12 24 6 -4
BITMAP
0030
0030
00F0
00F0
03F0
03F0
0FF0
0FF0
3FF0
3FF0
FFF0
FFF0
FFF0
FFF0
3FF0
3FF0
0FF0
0FF0
03F0
03F0
00F0
00F0
0030
0030
ENDCHAR
STARTCHAR char57772
ENCODING 57772
SWIDTH 2304 0
DWIDTH 24 0
BBX 12 24 6 -4
BITMAP
0030
0030
00C0
00C0
0300
0300
0C00
0C00
3000
3000
C000
C000
C000
C000
3000
3000
0C00
0C00
0300
0300
00C0
00C0
0030
0030
ENDCHAR
STARTCHAR char57773
ENCODING 57773
SWIDTH 2304 0
DWIDTH 24 0
BBX 10 24 6 -4
BITMAP
C000
C000
F000
F000
FC00
FC00
FF00
FF00
FFC0
FFC0
FFC0
FFC0
FFC0
FFC0
FFC0
FFC0
FFC0
FFC0
FFC0
FFC0
FFC0
FFC0
FFC0
FFC0
ENDCHAR
STARTCHAR char57774
ENCODING 57774
SWIDTH 2304 0
DWIDTH 24 0
BBX 10 24 6 -4
BITMAP
FFC0
FFC0
FFC0
FFC0
FFC0
FFC0
FFC0
FFC0
FFC0
FFC0
FFC0
FFC0
FFC0
FFC0
FFC0
FFC0
3FC0
3FC0
0FC0
0FC0
03C0
03C0
00C0
00C0
ENDCHAR
STARTCHAR char57775
ENCODING 57775
SWIDTH 2304 0
DWIDTH 24 0
BBX 18 14 2 0
BITMAP
3FFF00
3FFF00
C000C0
C000C0
0FFC00
0FFC00
300300
300300
03F000
03F000
000000
000000
00C000
00C000
ENDCHAR
STARTCHAR char57776
ENCODING 57776
SWIDTH 2304 0
DWIDTH 24 0
BBX 12 16 6 0
BITMAP
3FC0
3FC0
FFF0
FFF0
C030
C030
CF30
CF30
CF30
CF30
CF30
CF30
C030
C030
FFF0
FFF0
ENDCHAR
STARTCHAR char57777
ENCODING 57777
SWIDTH 2304 0
DWIDTH 24 0
BBX 2 24 10 -4
BITMAP
C0
C0
C0
C0
C0
C0
C0
C0
C0
C0
C0
C0
C0
C0
C0
C0
C0
C0
C0
C0
C0
C0
C0
C0
ENDCHAR
STARTCHAR char57778
ENCODING 57778
SWIDTH 2304 0
DWIDTH 24 0
BBX 16 16 4 0
BITMAP
FFFF
FFFF
03FF
03FF
00FF
00FF
3CFF
3CFF
FF3C
FF3C
FF00
FF00
FFC0
FFC0
FFFF
FFFF
ENDCHAR
STARTCHAR char57779
ENCODING 57779
SWIDTH 2304 0
DWIDTH 24 0
BBX 16 16 4 0
BITMAP
00F0
00F0
0330
0330
0C3F
0C3F
FC30
FC30
FC30
FC30
0C3F
0C3F
0330
0330
00F0
00F0
ENDCHAR
STARTCHAR char57780
ENCODING 57780
SWIDTH 2304 0
DWIDTH 24 0
BBX 14 16 4 0
BITMAP
0300
0300
0300
0300
0FC0
0FC0
0FC0
0FC0
3CF0
3CF0
3030
3030
FCFC
FCFC
C00C
C00C
ENDCHAR
STARTCHAR char57781
ENCODING 57781
SWIDTH 2304 0
DWIDTH 24 0
BBX 12 16 6 0
BITMAP
0F00
0F00
CCC0
CCC0
3CF0
3CF0
0FC0
0FC0
0FC0
0FC0
3CF0
3CF0
CCC0
CCC0
0F00
0F00
ENDCHAR
STARTCHAR char57782
ENCODING 57782
SWIDTH 2304 0
DWIDTH 24 0
BBX 16 16 4 0
BITMAP
F00F
F00F
0C30
0C30
03C0
03C0
F3CF
F3CF
0FF0
0FF0
3FFC
3FFC
CFF3
CFF3
C3C3
C3C3
ENDCHAR
STARTCHAR char57783
ENCODING 57783
SWIDTH 2304 0
DWIDTH 24 0
BBX 16 16 4 0
BITMAP
F00F
F00F
0C30
0C30
0C30
0C30
F3CF
F3CF
0FF0
0FF0
3FFC
3FFC
C3C3
C3C3
300C
300C
ENDCHAR
STARTCHAR char57784
ENCODING 57784
SWIDTH 2304 0
DWIDTH 24 0
BBX 16 16 4 0
BITMAP
C003
C003
F00F
F00F
CFF3
CFF3
FFFF
FFFF
C3C3
C3C3
FFFF
FFFF
3FFC
3FFC
CFF3
CFF3
ENDCHAR
STARTCHAR char57785
ENCODING 57785
SWIDTH 2304 0
DWIDTH 24 0
BBX 16 16 4 0
BITMAP
0FF0
0FF0
3FCC
3FCC
FF3F
FF3F
FCFF
FCFF
FC03
FC03
FFFF
FFFF
3FFC
3FFC
0FF0
0FF0
ENDCHAR
STARTCHAR char57786
ENCODING 57786
SWIDTH 2304 0
DWIDTH 24 0
BBX 16 16 4 0
BITMAP
C003
C003
F3FC
F3FC
3C0C
3C0C
3F0C
3F0C
0FCC
0FCC
3FF0
3FF0
FCFC
FCFC
F00F
F00F
ENDCHAR
STARTCHAR char57787
ENCODING 57787
SWIDTH 2304 0
DWIDTH 24 0
BBX 16 16 4 0
BITMAP
FFFF
FFFF
C003
C003
C003
C003
C003
C003
CFF3
CFF3
CCF3
CCF3
CCF3
CCF3
3FFF
3FFF
ENDCHAR
STARTCHAR char57788
ENCODING 57788
SWIDTH 2304 0
DWIDTH 24 0
BBX 16 16 4 0
BITMAP
0FF0
0FF0
300C
300C
C003
C003
C003
C003
C003
C003
C003
C003
300C
300C
0FF0
0FF0
ENDCHAR
STARTCHAR char57789
ENCODING 57789
SWIDTH 2304 0
DWIDTH 24 0
BBX 16 12 4 0
BITMAP
F3C0
F3C0
3000
3000
3000
3000
0C03
0C03
C3FF
C3FF
3000
3000
ENDCHAR
STARTCHAR char57790
ENCODING 57790
SWIDTH 2304 0
DWIDTH 24 0
BBX 16 12 4 0
BITMAP
03CF
03CF
000C
000C
000C
000C
C030
C030
FFC3
FFC3
000C
000C
ENDCHAR
STARTCHAR char57791
ENCODING 57791
SWIDTH 2304 0
DWIDTH 24 0
BBX 16 16 4 0
BITMAP
C003
C003
F00F
F00F
CFF3
CFF3
FFFF
FFFF
C3C3
C3C3
F3CF
F3CF
3FFC
3FFC
03C0
03C0
ENDCHAR
STARTCHAR char57792
ENCODING 57792
SWIDTH 2304 0
DWIDTH 24 0
BBX 16 16 4 0
BITMAP
3C0C
3C0C
C3C3
C3C3
0FF3
0FF3
3C3C
3C3C
3C3C
3C3C
CFF0
CFF0
C3C3
C3C3
303C
303C
ENDCHAR
STARTCHAR char57793
ENCODING 57793
SWIDTH 2304 0
DWIDTH 24 0
BBX 16 16 4 0
BITMAP
C0FF
C0FF
F3CC
F3CC
CFF0
CFF0
FC3C
FC3C
3C3F
3C3F
0FF3
0FF3
33CF
33CF
FF03
FF03
ENDCHAR
STARTCHAR char57794
ENCODING 57794
SWIDTH 2304 0
DWIDTH 24 0
BBX 16 16 4 0
BITMAP
0FF0
0FF0
3FFC
3FFC
FFFF
FFFF
FFFF
FFFF
FFFF
FFFF
FFFF
FFFF
3FFC
3FFC
0FF0
0FF0
ENDCHAR
STARTCHAR char57795
ENCODING 57795
SWIDTH 2304 0
DWIDTH 24 0
BBX 16 16 4 0
BITMAP
0FF0
0FF0
3F0C
3F0C
FF03
FF03
FF03
FF03
FF03
FF03
FF03
FF03
3F0C
3F0C
0FF0
0FF0
ENDCHAR
STARTCHAR char57796
ENCODING 57796
SWIDTH 2304 0
DWIDTH 24 0
BBX 16 16 4 0
BITMAP
0FF0
0FF0
3C3C
3C3C
FFFF
FFFF
FC3F
FC3F
FC3F
FC3F
FC3F
FC3F
3C3C
3C3C
0FF0
0FF0
ENDCHAR
STARTCHAR char57797
ENCODING 57797
SWIDTH 2304 0
DWIDTH 24 0
BBX 16 16 4 0
BITMAP
FFFF
FFFF
FC3F
FC3F
FFFF
FFFF
FC3F
FC3F
FC3F
FC3F
FC3F
FC3F
FC3F
FC3F
FFFF
FFFF
ENDCHAR
STARTCHAR char57798
ENCODING 57798
SWIDTH 2304 0
DWIDTH 24 0
BBX 14 16 4 0
BITMAP
FCFC
FCFC
FCFC
FCFC
FCFC
FCFC
C00C
C00C
FFFC
FFFC
FFFC
FFFC
FFFC
FFFC
3FF0
3FF0
ENDCHAR
STARTCHAR char57799
ENCODING 57799
SWIDTH 2304 0
DWIDTH 24 0
BBX 16 16 4 0
BITMAP
F000
F000
FF00
FF00
3FC0
3FC0
3FF0
3FF0
0FF0
0FF0
03CC
03CC
0033
0033
000F
000F
ENDCHAR
STARTCHAR char57800
ENCODING 57800
SWIDTH 2304 0
DWIDTH 24 0
BBX 16 16 4 0
BITMAP
0FF0
0FF0
300C
300C
C003
C003
C003
C003
FFFF
FFFF
0FF0
0FF0
0FF0
0FF0
0FF0
0FF0
ENDCHAR
STARTCHAR char57801
ENCODING 57801
SWIDTH 2304 0
DWIDTH 24 0
BBX 16 16 4 0
BITMAP
0F0C
0F0C
F0C3
F0C3
F0C3
F0C3
FCC3
FCC3
FCC3
FCC3
F0C3
F0C3
F0C3
F0C3
0F0C
0F0C
ENDCHAR
STARTCHAR char57802
ENCODING 57802
SWIDTH 2304 0
DWIDTH 24 0
BBX 16 16 4 0
BITMAP
3F00
3F00
F0C0
F0C0
C030
C030
C00C
C00C
3003
3003
0C03
0C03
030F
030F
00FC
00FC
ENDCHAR
STARTCHAR char57803
ENCODING 57803
SWIDTH 2304 0
DWIDTH 24 0
BBX 16 16 4 0
BITMAP
00FC
00FC
0303
0303
0C0F
0C0F
303F
303F
3FFC
3FFC
30F0
30F0
C300
C300
FC00
FC00
ENDCHAR
STARTCHAR char57804
ENCODING 57804
SWIDTH 2304 0
DWIDTH 24 0
BBX 16 16 4 0
BITMAP
000C
000C
00C3
00C3
0C33
0C33
C333
C333
C333
C333
0C33
0C33
00C3
00C3
000C
000C
ENDCHAR
STARTCHAR char57805
ENCODING 57805
SWIDTH 2304 0
DWIDTH 24 0
BBX 18 18 2 -2
BITMAP
333300
333300
333300
333300
FFFFC0
FFFFC0
C000C0
C000C0
F333C0
F333C0
C000C0
C000C0
F333C0
F333C0
C000C0
C000C0
FFFFC0
FFFFC0
ENDCHAR
STARTCHAR code
ENCODING 57806
SWIDTH 2304 0
DWIDTH 24 0
BBX 16 18 4 -2
BITMAP
3000
3000
3C00
3C00
0F00
0F00
0F00
0F00
03C0
03C0
0FF0
0FF0
3CF0
3CF0
3C3C
3C3C
F00F
F00F
ENDCHAR
STARTCHAR char57807
ENCODING 57807
SWIDTH 2304 0
DWIDTH 24 0
BBX 14 18 4 -2
BITMAP
FFC0
FFC0
C0C0
C0C0
C0FC
C0FC
C00C
C00C
C00C
C00C
C00C
C00C
C00C
C00C
C00C
C00C
FFFC
FFFC
ENDCHAR
STARTCHAR images
ENCODING 57808
SWIDTH 2304 0
DWIDTH 24 0
BBX 24 14 0 0
BITMAP
FFFFFF
FFFFFF
C00003
C00003
C00033
C00033
CC0CFF
CC0CFF
FF3F03
FF3F03
FFFFCF
FFFFCF
FFFFFF
FFFFFF
ENDCHAR
STARTCHAR media
ENCODING 57809
SWIDTH 2304 0
DWIDTH 24 0
BBX 22 18 0 -2
BITMAP
FFFFFC
FFFFFC
C0000C
C0000C
C0C00C
C0C00C
C0F00C
C0F00C
C0FC0C
C0FC0C
C0F00C
C0F00C
C0C00C
C0C00C
C0000C
C0000C
FFFFFC
FFFFFC
ENDCHAR
STARTCHAR char57810
ENCODING 57810
SWIDTH 2304 0
DWIDTH 24 0
BBX 22 14 0 0
BITMAP
FFFFFC
FFFFFC
C0C00C
C0C00C
C0F00C
C0F00C
C0FC0C
C0FC0C
C0F00C
C0F00C
C0C00C
C0C00C
FFFFFC
FFFFFC
ENDCHAR
STARTCHAR git
ENCODING 57811
SWIDTH 2304 0
DWIDTH 24 0
BBX 24 20 0 -2
BITMAP
3C003C
3C003C
3FFFFC
3FFFFC
3FFFFC
3FFFFC
FFFFFF
FFFFFF
FFFFFF
FFFFFF
F0000F
F0000F
F3C3CF
F3C3CF
F3C3CF
F3C3CF
3C003C
3C003C
03FFC0
03FFC0
ENDCHAR
STARTCHAR punk_small
ENCODING 57812
SWIDTH 2304 0
DWIDTH 24 0
BBX 22 20 0 -2
BITMAP
00FC00
00FC00
03FF00
03FF00
0FF0C0
0FF0C0
300030
300030
F3CF3C
F3CF3C
F0003C
F0003C
FFCF3C
FFCF3C
33CF30
33CF30
03CF00
03CF00
00FC00
00FC00
ENDCHAR
STARTCHAR char57813
ENCODING 57813
SWIDTH 2304 0
DWIDTH 24 0
BBX 18 20 2 -2
BITMAP
FFF000
FFF000
FF3C00
FF3C00
FF3F00
FF3F00
FF00C0
FF00C0
FFFFC0
FFFFC0
F003C0
F003C0
FFFFC0
FFFFC0
F003C0
F003C0
FFFFC0
FFFFC0
FFFFC0
FFFFC0
ENDCHAR
STARTCHAR folder
ENCODING 57814
SWIDTH 2304 0
DWIDTH 24 0
BBX 20 18 2 -2
BITMAP
FF0000
FF0000
FFFFF0
FFFFF0
C0FFF0
C0FFF0
C00030
C00030
C00030
C00030
C00030
C00030
C00030
C00030
C00030
C00030
FFFFF0
FFFFF0
ENDCHAR
STARTCHAR monitor
ENCODING 57815
SWIDTH 2304 0
DWIDTH 24 0
BBX 20 18 2 -2
BITMAP
FFFFF0
FFFFF0
C00030
C00030
C00030
C00030
C00030
C00030
C00030
C00030
FFFFF0
FFFFF0
FFFFF0
FFFFF0
03FC00
03FC00
03FC00
03FC00
ENDCHAR
STARTCHAR laptop
ENCODING 57816
SWIDTH 2304 0
DWIDTH 24 0
BBX 24 18 0 -2
BITMAP
3FFFFC
3FFFFC
30000C
30000C
30000C
30000C
30000C
30000C
30000C
30000C
0FFFF0
0FFFF0
30000C
30000C
FFC3FF
FFC3FF
FFFFFF
FFFFFF
ENDCHAR
STARTCHAR folder_open
ENCODING 57817
SWIDTH 2304 0
DWIDTH 24 0
BBX 22 16 0 0
BITMAP
FF0000
FF0000
C3FF00
C3FF00
C000C0
C000C0
C3FFF0
C3FFF0
CC000C
CC000C
F00030
F00030
C000F0
C000F0
FFFFC0
FFFFC0
ENDCHAR
STARTCHAR image
ENCODING 57818
SWIDTH 2304 0
DWIDTH 24 0
BBX 24 18 0 -2
BITMAP
FFFFFF
FFFFFF
CC0003
CC0003
FF00C3
FF00C3
CC0FC3
CC0FC3
C33FF3
C33FF3
CFFFF3
CFFFF3
FFFFFF
FFFFFF
C00003
C00003
FFFFFF
FFFFFF
ENDCHAR
STARTCHAR tag
ENCODING 57819
SWIDTH 2304 0
DWIDTH 24 0
BBX 16 16 4 0
BITMAP
FF00
FF00
C3C0
C3C0
C3F0
C3F0
FFFC
FFFC
3FFF
3FFF
0FFF
0FFF
03FC
03FC
00F0
00F0
ENDCHAR
STARTCHAR char57820
ENCODING 57820
SWIDTH 2304 0
DWIDTH 24 0
BBX 22 18 0 -2
BITMAP
FF3C00
FF3C00
C3CF00
C3CF00
C3F3C0
C3F3C0
FFFCF0
FFFCF0
3FFF3C
3FFF3C
0FFF3C
0FFF3C
03FCF0
03FCF0
00F3C0
00F3C0
000300
000300
ENDCHAR
STARTCHAR film_large
ENCODING 57821
SWIDTH 2304 0
DWIDTH 24 0
BBX 24 18 0 -2
BITMAP
FFFFFF
FFFFFF
CC0033
CC0033
FC003F
FC003F
CC0033
CC0033
FFFFFF
FFFFFF
CC0033
CC0033
FC003F
FC003F
CC0033
CC0033
FFFFFF
FFFFFF
ENDCHAR
STARTCHAR barcode
ENCODING 57822
SWIDTH 2304 0
DWIDTH 24 0
BBX 24 18 0 -2
BITMAP
FFFFFF
FFFFFF
CF3333
CF3333
CF3333
CF3333
CF3333
CF3333
CF3333
CF3333
CF3333
CF3333
CF3333
CF3333
CF3333
CF3333
FFFFFF
FFFFFF
ENDCHAR
STARTCHAR book
ENCODING 57823
SWIDTH 2304 0
DWIDTH 24 0
BBX 18 18 2 -2
BITMAP
0FFFC0
0FFFC0
0FFFC0
0FFFC0
3C03C0
3C03C0
3FFFC0
3FFFC0
F00FC0
F00FC0
FFFFC0
FFFFC0
FFFF00
FFFF00
C00300
C00300
3FFC00
3FFC00
ENDCHAR
STARTCHAR char57824
ENCODING 57824
SWIDTH 2304 0
DWIDTH 24 0
BBX 20 16 2 0
BITMAP
FF0000
FF0000
FFFFF0
FFFFF0
FFFFF0
FFFFF0
FFFFF0
FFFFF0
FFFFF0
FFFFF0
FFFFF0
FFFFF0
FFFFF0
FFFFF0
FFFFF0
FFFFF0
ENDCHAR
STARTCHAR char57825
ENCODING 57825
SWIDTH 2304 0
DWIDTH 24 0
BBX 22 16 0 0
BITMAP
FF0000
FF0000
FFFF00
FFFF00
FFFFC0
FFFFC0
FC00C0
FC00C0
F3FFFC
F3FFFC
CFFFF0
CFFFF0
3FFFC0
3FFFC0
FFFF00
FFFF00
ENDCHAR
STARTCHAR char57826
ENCODING 57826
SWIDTH 2304 0
DWIDTH 24 0
BBX 14 18 4 -2
BITMAP
FFFC
FFFC
FFFC
FFFC
FFFC
FFFC
FFFC
FFFC
FFFC
FFFC
FFFC
FFFC
FCFC
FCFC
F03C
F03C
C00C
C00C
ENDCHAR
STARTCHAR char57827
ENCODING 57827
SWIDTH 2304 0
DWIDTH 24 0
BBX 14 18 4 -2
BITMAP
FFFC
FFFC
C00C
C00C
C00C
C00C
C00C
C00C
C00C
C00C
C30C
C30C
CCCC
CCCC
F03C
F03C
C00C
C00C
ENDCHAR
STARTCHAR drop
ENCODING 57828
SWIDTH 2304 0
DWIDTH 24 0
BBX 14 20 4 -2
BITMAP
0300
0300
0FC0
0FC0
3FF0
3FF0
3FF0
3FF0
FFFC
FFFC
F3FC
F3FC
F3FC
F3FC
F3FC
F3FC
3FF0
3FF0
0FC0
0FC0
ENDCHAR
STARTCHAR pen
ENCODING 57829
SWIDTH 2304 0
DWIDTH 24 0
BBX 22 22 0 -4
BITMAP
0000F0
0000F0
0003FC
0003FC
000FFC
000FFC
0033F0
0033F0
00FCC0
00FCC0
03FF00
03FF00
0FFC00
0FFC00
3FF000
3FF000
CFC000
CFC000
F30000
F30000
FC0000
FC0000
ENDCHAR
STARTCHAR char57830
ENCODING 57830
SWIDTH 2304 0
DWIDTH 24 0
BBX 18 18 2 -2
BITMAP
0FFC00
0FFC00
3C0F00
3C0F00
FFFFC0
FFFFC0
300300
300300
333300
333300
333300
333300
333300
333300
300300
300300
3FFF00
3FFF00
ENDCHAR
STARTCHAR camera
ENCODING 57831
SWIDTH 2304 0
DWIDTH 24 0
BBX 20 16 2 0
BITMAP
FFFFF0
FFFFF0
C30030
C30030
FFFFF0
FFFFF0
CF0FF0
CF0FF0
FCF3F0
FCF3F0
FCF3F0
FCF3F0
FF0FF0
FF0FF0
FFFFF0
FFFFF0
ENDCHAR
STARTCHAR punk_large
ENCODING 57832
SWIDTH 2304 0
DWIDTH 24 0
BBX 24 22 0 -4
BITMAP
00FF00
00FF00
03FFC0
03FFC0
0FFC30
0FFC30
30000C
30000C
F3C3CF
F3C3CF
F0000F
F0000F
FFC3CF
FFC3CF
F3C3CF
F3C3CF
33C3CC
33C3CC
03C3C0
03C3C0
00FF00
00FF00
ENDCHAR
STARTCHAR reddit
ENCODING 57833
SWIDTH 2304 0
DWIDTH 24 0
BBX 24 24 0 -4
BITMAP
000FFC
000FFC
000CFC
000CFC
003C00
003C00
3FC3FC
3FC3FC
CC0033
CC0033
F0000F
F0000F
C3C3C3
C3C3C3
C3C3C3
C3C3C3
C00003
C00003
30FF0C
30FF0C
0F00F0
0F00F0
00FF00
00FF00
ENDCHAR
STARTCHAR hackernews
ENCODING 57834
SWIDTH 2304 0
DWIDTH 24 0
BBX 16 16 4 0
BITMAP
3FFC
3FFC
0FF0
0FF0
C3C3
C3C3
F00F
F00F
FC3F
FC3F
FC3F
FC3F
FC3F
FC3F
FC3F
FC3F
ENDCHAR
STARTCHAR youtube
ENCODING 57835
SWIDTH 2304 0
DWIDTH 24 0
BBX 20 16 2 0
BITMAP
3FFFC0
3FFFC0
FFFFF0
FFFFF0
FF3FF0
FF3FF0
FF0FF0
FF0FF0
FF0FF0
FF0FF0
FF3FF0
FF3FF0
FFFFF0
FFFFF0
3FFFC0
3FFFC0
ENDCHAR
STARTCHAR char57836
ENCODING 57836
SWIDTH 2304 0
DWIDTH 24 0
BBX 22 16 0 0
BITMAP
C00000
C00000
F00000
F00000
3C0000
3C0000
0F0000
0F0000
0F0000
0F0000
3C0000
3C0000
F00000
F00000
C03FFC
C03FFC
ENDCHAR
STARTCHAR char57837
ENCODING 57837
SWIDTH 2304 0
DWIDTH 24 0
BBX 18 20 2 -2
BITMAP
FFF000
FFF000
C03C00
C03C00
C03300
C03300
C03FC0
C03FC0
C000C0
C000C0
CFFCC0
CFFCC0
C000C0
C000C0
CFFCC0
CFFCC0
C000C0
C000C0
FFFFC0
FFFFC0
ENDCHAR
STARTCHAR find
ENCODING 57838
SWIDTH 2304 0
DWIDTH 24 0
BBX 20 20 2 -2
BITMAP
0FC000
0FC000
303000
303000
C00C00
C00C00
C00C00
C00C00
C00C00
C00C00
303000
303000
0FCC00
0FCC00
000300
000300
0000C0
0000C0
000030
000030
ENDCHAR
STARTCHAR terminal_big
ENCODING 57839
SWIDTH 2304 0
DWIDTH 24 0
BBX 20 16 2 0
BITMAP
FFFFF0
FFFFF0
FFFFF0
FFFFF0
C00030
C00030
CC0030
CC0030
C30030
C30030
CC3F30
CC3F30
C00030
C00030
FFFFF0
FFFFF0
ENDCHAR
STARTCHAR char57840
ENCODING 57840
SWIDTH 2304 0
DWIDTH 24 0
BBX 24 20 0 -2
BITMAP
003C3C
003C3C
00FF3C
00FF3C
03C3FC
03C3FC
0F00FC
0F00FC
3C003C
3C003C
F0000F
F0000F
F0FF0F
F0FF0F
30C30C
30C30C
30C30C
30C30C
3FC3FC
3FC3FC
ENDCHAR
STARTCHAR char57841
ENCODING 57841
SWIDTH 2304 0
DWIDTH 24 0
BBX 20 14 2 0
BITMAP
FFFFF0
FFFFF0
000000
000000
FFFFF0
FFFFF0
000000
000000
FFFFF0
FFFFF0
000000
000000
FFFFF0
FFFFF0
ENDCHAR
STARTCHAR char57842
ENCODING 57842
SWIDTH 2304 0
DWIDTH 24 0
BBX 20 14 2 0
BITMAP
CFFFF0
CFFFF0
000000
000000
CFFFF0
CFFFF0
000000
000000
CFFFF0
CFFFF0
000000
000000
CFFFF0
CFFFF0
ENDCHAR
STARTCHAR char57843
ENCODING 57843
SWIDTH 2304 0
DWIDTH 24 0
BBX 20 14 2 0
BITMAP
FFFF00
FFFF00
000000
000000
FFFFC0
FFFFC0
000000
000000
FFFF00
FFFF00
000000
000000
FFFFF0
FFFFF0
ENDCHAR
STARTCHAR char57844
ENCODING 57844
SWIDTH 2304 0
DWIDTH 24 0
BBX 20 14 2 0
BITMAP
0FFFF0
0FFFF0
000000
000000
3FFFF0
3FFFF0
000000
000000
0FFFF0
0FFFF0
000000
000000
FFFFF0
FFFFF0
ENDCHAR
STARTCHAR char57845
ENCODING 57845
SWIDTH 2304 0
DWIDTH 24 0
BBX 20 14 2 0
BITMAP
FFFC30
FFFC30
FFFCF0
FFFCF0
FFFFF0
FFFFF0
FFFFF0
FFFFF0
FFFFF0
FFFFF0
FFFCF0
FFFCF0
FFFC30
FFFC30
ENDCHAR
STARTCHAR char57846
ENCODING 57846
SWIDTH 2304 0
DWIDTH 24 0
BBX 14 24 4 -4
BITMAP
3FF0
3FF0
3FF0
3FF0
3CF0
3CF0
3CF0
3CF0
3FF0
3FF0
3FF0
3FF0
FFFC
FFFC
FFFC
FFFC
0300
0300
0300
0300
0300
0300
0300
0300
ENDCHAR
STARTCHAR char57847
ENCODING 57847
SWIDTH 2304 0
DWIDTH 24 0
BBX 18 24 2 -4
BITMAP
FFFFC0
FFFFC0
FFC0C0
FFC0C0
FFC0C0
FFC0C0
FFC0C0
FFC0C0
FFC0C0
FFC0C0
FFC0C0
FFC0C0
FFC0C0
FFC0C0
FFC3C0
FFC3C0
3FCF00
3FCF00
0FFC00
0FFC00
03F000
03F000
00C000
00C000
ENDCHAR
STARTCHAR char57848
ENCODING 57848
SWIDTH 2304 0
DWIDTH 24 0
BBX 12 12 6 0
BITMAP
0030
0030
00F0
00F0
03F0
03F0
0FF0
0FF0
3FF0
3FF0
FFF0
FFF0
ENDCHAR
STARTCHAR char57849
ENCODING 57849
SWIDTH 2304 0
DWIDTH 24 0
BBX 12 12 6 0
BITMAP
C000
C000
F000
F000
FC00
FC00
FF00
FF00
FFC0
FFC0
FFF0
FFF0
ENDCHAR
STARTCHAR char57850
ENCODING 57850
SWIDTH 2304 0
DWIDTH 24 0
BBX 12 12 6 0
BITMAP
FFF0
FFF0
FFC0
FFC0
FF00
FF00
FC00
FC00
F000
F000
C000
C000
ENDCHAR
STARTCHAR char57851
ENCODING 57851
SWIDTH 2304 0
DWIDTH 24 0
BBX 12 12 6 0
BITMAP
FFF0
FFF0
3FF0
3FF0
0FF0
0FF0
03F0
03F0
00F0
00F0
0030
0030
ENDCHAR
STARTCHAR char57852
ENCODING 57852
SWIDTH 2304 0
DWIDTH 24 0
BBX 10 14 6 0
BITMAP
3300
3300
3300
3300
F3C0
F3C0
3300
3300
F3C0
F3C0
3300
3300
3300
3300
ENDCHAR
STARTCHAR char57853
ENCODING 57853
SWIDTH 2304 0
DWIDTH 24 0
BBX 14 20 4 -2
BITMAP
0FC0
0FC0
FFFC
FFFC
C00C
C00C
C00C
C00C
C00C
C00C
C00C
C00C
C00C
C00C
C00C
C00C
C00C
C00C
FFFC
FFFC
ENDCHAR
STARTCHAR char57854
ENCODING 57854
SWIDTH 2304 0
DWIDTH 24 0
BBX 14 20 4 -2
BITMAP
0FC0
0FC0
FFFC
FFFC
C00C
C00C
C00C
C00C
C00C
C00C
CFCC
CFCC
CFCC
CFCC
CFCC
CFCC
C00C
C00C
FFFC
FFFC
ENDCHAR
STARTCHAR char57855
ENCODING 57855
SWIDTH 2304 0
DWIDTH 24 0
BBX 14 20 4 -2
BITMAP
0FC0
0FC0
FFFC
FFFC
C00C
C00C
CFCC
CFCC
CFCC
CFCC
CFCC
CFCC
CFCC
CFCC
CFCC
CFCC
C00C
C00C
FFFC
FFFC
ENDCHAR
STARTCHAR char57856
ENCODING 57856
SWIDTH 2304 0
DWIDTH 24 0
BBX 14 20 4 -2
BITMAP
0FC0
0FC0
FFFC
FFFC
F33C
F33C
F33C
F33C
C00C
C00C
C00C
C00C
F03C
F03C
FCFC
FCFC
FCFC
FCFC
FFFC
FFFC
ENDCHAR
STARTCHAR char57857
ENCODING 57857
SWIDTH 2304 0
DWIDTH 24 0
BBX 14 20 4 -2
BITMAP
0FC0
0FC0
FFFC
FFFC
FF3C
FF3C
FCFC
FCFC
F0FC
F0FC
C00C
C00C
FC3C
FC3C
FCFC
FCFC
F3FC
F3FC
FFFC
FFFC
ENDCHAR
STARTCHAR char57858
ENCODING 57858
SWIDTH 2304 0
DWIDTH 24 0
BBX 14 18 4 -2
BITMAP
00C0
00C0
C3C0
C3C0
33C0
33C0
CCC0
CCC0
F300
F300
FCC0
FCC0
0F30
0F30
03CC
03CC
00C0
00C0
ENDCHAR
STARTCHAR char57859
ENCODING 57859
SWIDTH 2304 0
DWIDTH 24 0
BBX 16 18 4 -2
BITMAP
00C3
00C3
03CC
03CC
0FC0
0FC0
FFC0
FFC0
FFCF
FFCF
FFC0
FFC0
0FC0
0FC0
03CC
03CC
00C3
00C3
ENDCHAR
STARTCHAR char57860
ENCODING 57860
SWIDTH 2304 0
DWIDTH 24 0
BBX 10 18 6 -2
BITMAP
00C0
00C0
03C0
03C0
0FC0
0FC0
FFC0
FFC0
FFC0
FFC0
FFC0
FFC0
0FC0
0FC0
03C0
03C0
00C0
00C0
ENDCHAR
STARTCHAR char57861
ENCODING 57861
SWIDTH 2304 0
DWIDTH 24 0
BBX 14 14 4 0
BITMAP
0FFC
0FFC
0FFC
0FFC
0C0C
0C0C
0FFC
0FFC
0C0C
0C0C
FCFC
FCFC
FCFC
FCFC
ENDCHAR
STARTCHAR char57862
ENCODING 57862
SWIDTH 2304 0
DWIDTH 24 0
BBX 12 10 6 2
BITMAP
C300
C300
F3C0
F3C0
FFF0
FFF0
F3C0
F3C0
C300
C300
ENDCHAR
STARTCHAR char57863
ENCODING 57863
SWIDTH 2304 0
DWIDTH 24 0
BBX 12 10 6 2
BITMAP
0C30
0C30
3CF0
3CF0
FFF0
FFF0
3CF0
3CF0
0C30
0C30
ENDCHAR
STARTCHAR char57864
ENCODING 57864
SWIDTH 2304 0
DWIDTH 24 0
BBX 10 12 6 0
BITMAP
0C00
0C00
3F00
3F00
FFC0
FFC0
0C00
0C00
3F00
3F00
FFC0
FFC0
ENDCHAR
STARTCHAR char57865
ENCODING 57865
SWIDTH 2304 0
DWIDTH 24 0
BBX 10 12 6 0
BITMAP
FFC0
FFC0
3F00
3F00
0C00
0C00
FFC0
FFC0
3F00
3F00
0C00
0C00
ENDCHAR
STARTCHAR char57866
ENCODING 57866
SWIDTH 2304 0
DWIDTH 24 0
BBX 14 10 4 2
BITMAP
C30C
C30C
F3CC
F3CC
FFFC
FFFC
F3CC
F3CC
C30C
C30C
ENDCHAR
STARTCHAR char57867
ENCODING 57867
SWIDTH 2304 0
DWIDTH 24 0
BBX 14 10 4 2
BITMAP
C30C
C30C
CF3C
CF3C
FFFC
FFFC
CF3C
CF3C
C30C
C30C
ENDCHAR
STARTCHAR char57868
ENCODING 57868
SWIDTH 2304 0
DWIDTH 24 0
BBX 12 10 6 2
BITMAP
C330
C330
F330
F330
FF30
FF30
F330
F330
C330
C330
ENDCHAR
STARTCHAR berry_percent
ENCODING 57869
SWIDTH 2304 0
DWIDTH 24 0
BBX 10 14 6 0
BITMAP
30C0
30C0
CCC0
CCC0
3300
3300
0C00
0C00
3300
3300
CCC0
CCC0
C300
C300
ENDCHAR
STARTCHAR char57870
ENCODING 57870
SWIDTH 2304 0
DWIDTH 24 0
BBX 16 12 4 0
BITMAP
03F0
03F0
0FFF
0FFF
FFF0
FFF0
FFF0
FFF0
0FFF
0FFF
03F0
03F0
ENDCHAR
STARTCHAR char57871
ENCODING 57871
SWIDTH 2304 0
DWIDTH 24 0
BBX 22 16 0 0
BITMAP
00003C
00003C
03F03C
03F03C
0FFF3C
0FFF3C
FFF03C
FFF03C
FFF03C
FFF03C
0FFF00
0FFF00
03F03C
03F03C
00003C
00003C
ENDCHAR
STARTCHAR char57872
ENCODING 57872
SWIDTH 2304 0
DWIDTH 24 0
BBX 14 22 4 -2
BITMAP
0FC0
0FC0
FFFC
FFFC
C00C
C00C
C00C
C00C
C00C
C00C
C00C
C00C
C00C
C00C
C00C
C00C
C00C
C00C
C00C
C00C
FFFC
FFFC
ENDCHAR
STARTCHAR char57873
ENCODING 57873
SWIDTH 2304 0
DWIDTH 24 0
BBX 22 22 0 -2
BITMAP
0FC000
0FC000
FFFC00
FFFC00
C00C3C
C00C3C
C00C3C
C00C3C
C00C3C
C00C3C
C00C3C
C00C3C
C00C3C
C00C3C
C00C00
C00C00
C00C3C
C00C3C
C00C3C
C00C3C
FFFC00
FFFC00
ENDCHAR
STARTCHAR char57874
ENCODING 57874
SWIDTH 2304 0
DWIDTH 24 0
BBX 22 22 0 -2
BITMAP
0FC000
0FC000
FFFC00
FFFC00
C00C3C
C00C3C
C00C3C
C00C3C
C00C3C
C00C3C
C00C3C
C00C3C
C00C3C
C00C3C
CC0C00
CC0C00
CF0C3C
CF0C3C
C00C3C
C00C3C
FFFC00
FFFC00
ENDCHAR
STARTCHAR char57875
ENCODING 57875
SWIDTH 2304 0
DWIDTH 24 0
BBX 14 22 4 -2
BITMAP
0FC0
0FC0
FFFC
FFFC
C00C
C00C
C00C
C00C
CC0C
CC0C
CF0C
CF0C
C3CC
C3CC
CCCC
CCCC
CF0C
CF0C
C00C
C00C
FFFC
FFFC
ENDCHAR
STARTCHAR char57876
ENCODING 57876
SWIDTH 2304 0
DWIDTH 24 0
BBX 14 22 4 -2
BITMAP
0FC0
0FC0
FFFC
FFFC
C00C
C00C
C3CC
C3CC
CCCC
CCCC
CF0C
CF0C
C3CC
C3CC
CCCC
CCCC
CF0C
CF0C
C00C
C00C
FFFC
FFFC
ENDCHAR
STARTCHAR char57877
ENCODING 57877
SWIDTH 2304 0
DWIDTH 24 0
BBX 12 20 6 -2
BITMAP
00C0
00C0
0300
0300
0F00
0F00
3C00
3C00
3FF0
3FF0
FFC0
FFC0
03C0
03C0
0F00
0F00
0C00
0C00
3000
3000
ENDCHAR
STARTCHAR char57878
ENCODING 57878
SWIDTH 2304 0
DWIDTH 24 0
BBX 10 18 6 -2
BITMAP
00C0
00C0
0300
0300
0C00
0C00
3C00
3C00
FFC0
FFC0
0F00
0F00
0C00
0C00
3000
3000
C000
C000
ENDCHAR
STARTCHAR char57879
ENCODING 57879
SWIDTH 2304 0
DWIDTH 24 0
BBX 16 10 4 0
BITMAP
03CF
03CF
00FC
00FC
F030
F030
F0FC
F0FC
03CF
03CF
ENDCHAR
STARTCHAR char57880
ENCODING 57880
SWIDTH 2304 0
DWIDTH 24 0
BBX 12 8 6 0
BITMAP
3FC0
3FC0
C030
C030
0F00
0F00
0F00
0F00
ENDCHAR
STARTCHAR char57881
ENCODING 57881
SWIDTH 2304 0
DWIDTH 24 0
BBX 16 12 4 0
BITMAP
3FFC
3FFC
C003
C003
0FF0
0FF0
300C
300C
03C0
03C0
03C0
03C0
ENDCHAR
STARTCHAR char57882
ENCODING 57882
SWIDTH 2304 0
DWIDTH 24 0
BBX 20 16 2 0
BITMAP
3FFFC0
3FFFC0
C00030
C00030
0FFF00
0FFF00
3000C0
3000C0
03FC00
03FC00
0C0300
0C0300
00F000
00F000
00F000
00F000
ENDCHAR
STARTCHAR char57883
ENCODING 57883
SWIDTH 2304 0
DWIDTH 24 0
BBX 20 16 2 0
BITMAP
C00000
C00000
C00000
C00000
000000
000000
C03CF0
C03CF0
C00FC0
C00FC0
000300
000300
C00FC0
C00FC0
C03CF0
C03CF0
ENDCHAR
STARTCHAR char57884
ENCODING 57884
SWIDTH 2304 0
DWIDTH 24 0
BBX 6 16 2 0
BITMAP
C0
C0
C0
C0
00
00
C0
C0
C0
C0
00
00
FC
FC
FC
FC
ENDCHAR
STARTCHAR char57885
ENCODING 57885
SWIDTH 2304 0
DWIDTH 24 0
BBX 12 16 2 0
BITMAP
C000
C000
C000
C000
0000
0000
FFF0
FFF0
FFF0
FFF0
0000
0000
FC00
FC00
FC00
FC00
ENDCHAR
STARTCHAR char57886
ENCODING 57886
SWIDTH 2304 0
DWIDTH 24 0
BBX 18 16 2 0
BITMAP
FFFFC0
FFFFC0
FFFFC0
FFFFC0
000000
000000
FFF000
FFF000
FFF000
FFF000
000000
000000
FC0000
FC0000
FC0000
FC0000
ENDCHAR
STARTCHAR char57887
ENCODING 57887
SWIDTH 2304 0
DWIDTH 24 0
BBX 16 2 4 0
BITMAP
F3CF
F3CF
ENDCHAR
STARTCHAR char57888
ENCODING 57888
SWIDTH 2304 0
DWIDTH 24 0
BBX 16 6 4 0
BITMAP
F000
F000
F000
F000
F3CF
F3CF
ENDCHAR
STARTCHAR char57889
ENCODING 57889
SWIDTH 2304 0
DWIDTH 24 0
BBX 16 12 4 0
BITMAP
03C0
03C0
03C0
03C0
03C0
03C0
F3C0
F3C0
F3C0
F3C0
F3CF
F3CF
ENDCHAR
STARTCHAR char57890
ENCODING 57890
SWIDTH 2304 0
DWIDTH 24 0
BBX 16 18 4 -2
BITMAP
000F
000F
000F
000F
000F
000F
03CF
03CF
03CF
03CF
03CF
03CF
F3CF
F3CF
F3CF
F3CF
F3CF
F3CF
ENDCHAR
STARTCHAR char57891
ENCODING 57891
SWIDTH 2304 0
DWIDTH 24 0
BBX 18 18 2 -2
BITMAP
3FFF00
3FFF00
C000C0
C000C0
C300C0
C300C0
C300C0
C300C0
CCCCC0
CCCCC0
C030C0
C030C0
C030C0
C030C0
C000C0
C000C0
3FFF00
3FFF00
ENDCHAR
STARTCHAR char57892
ENCODING 57892
SWIDTH 2304 0
DWIDTH 24 0
BBX 18 18 2 -2
BITMAP
3FFF00
3FFF00
FCFFC0
FCFFC0
FCFFC0
FCFFC0
FCFFC0
FCFFC0
C330C0
C330C0
FFCFC0
FFCFC0
FFCFC0
FFCFC0
FFCFC0
FFCFC0
3FFF00
3FFF00
ENDCHAR
STARTCHAR char57893
ENCODING 57893
SWIDTH 2304 0
DWIDTH 24 0
BBX 18 18 2 -2
BITMAP
300300
300300
FFFFC0
FFFFC0
FFFFC0
FFFFC0
C000C0
C000C0
CCCCC0
CCCCC0
C000C0
C000C0
CCCCC0
CCCCC0
C000C0
C000C0
FFFFC0
FFFFC0
ENDCHAR
STARTCHAR char57894
ENCODING 57894
SWIDTH 2304 0
DWIDTH 24 0
BBX 18 18 2 -2
BITMAP
300300
300300
FFFFC0
FFFFC0
FFFFC0
FFFFC0
C000C0
C000C0
C000C0
C000C0
C000C0
C000C0
C000C0
C000C0
C000C0
C000C0
FFFFC0
FFFFC0
ENDCHAR
STARTCHAR char57895
ENCODING 57895
SWIDTH 2304 0
DWIDTH 24 0
BBX 24 18 0 -2
BITMAP
300300
300300
FFFFCF
FFFFCF
FFFFCF
FFFFCF
C000CF
C000CF
C000CF
C000CF
C000CF
C000CF
C000C0
C000C0
C000CF
C000CF
FFFFCF
FFFFCF
ENDCHAR
STARTCHAR char57896
ENCODING 57896
SWIDTH 2304 0
DWIDTH 24 0
BBX 18 14 2 0
BITMAP
FFFFC0
FFFFC0
F003C0
F003C0
CC0CC0
CC0CC0
C330C0
C330C0
CCCCC0
CCCCC0
F003C0
F003C0
FFFFC0
FFFFC0
ENDCHAR
STARTCHAR char57897
ENCODING 57897
SWIDTH 2304 0
DWIDTH 24 0
BBX 18 14 2 0
BITMAP
FFFFC0
FFFFC0
CFFCC0
CFFCC0
F3F3C0
F3F3C0
FCCFC0
FCCFC0
F333C0
F333C0
CFFCC0
CFFCC0
FFFFC0
FFFFC0
ENDCHAR
STARTCHAR art
ENCODING 57898
SWIDTH 2304 0
DWIDTH 24 0
BBX 18 18 2 -2
BITMAP
000300
000300
000FC0
000FC0
003F00
003F00
00FC00
00FC00
03F000
03F000
0FC000
0FC000
3F0000
3F0000
3C0000
3C0000
C00000
C00000
ENDCHAR
STARTCHAR w_cloud
ENCODING 57899
SWIDTH 2304 0
DWIDTH 24 0
BBX 14 10 4 4
BITMAP
0FC0
0FC0
3FF0
3FF0
FFFC
FFFC
FFFC
FFFC
3CF0
3CF0
ENDCHAR
STARTCHAR w_lightning
ENCODING 57900
SWIDTH 2304 0
DWIDTH 24 0
BBX 14 16 4 0
BITMAP
0FC0
0FC0
3FF0
3FF0
FFFC
FFFC
FFFC
FFFC
3CF0
3CF0
0300
0300
0F00
0F00
0C00
0C00
ENDCHAR
STARTCHAR w_rain
ENCODING 57901
SWIDTH 2304 0
DWIDTH 24 0
BBX 14 16 4 0
BITMAP
0FC0
0FC0
3FF0
3FF0
FFFC
FFFC
FFFC
FFFC
3CF0
3CF0
0000
0000
3330
3330
CCC0
CCC0
ENDCHAR
STARTCHAR char57902
ENCODING 57902
SWIDTH 2304 0
DWIDTH 24 0
BBX 14 18 4 -2
BITMAP
0FC0
0FC0
3FF0
3FF0
FFFC
FFFC
FFFC
FFFC
3CF0
3CF0
0000
0000
C300
C300
0CC0
0CC0
030C
030C
ENDCHAR
STARTCHAR w_hail
ENCODING 57903
SWIDTH 2304 0
DWIDTH 24 0
BBX 14 18 4 -2
BITMAP
0FC0
0FC0
3FF0
3FF0
FFFC
FFFC
FFFC
FFFC
3CF0
3CF0
0300
0300
3030
3030
0300
0300
3030
3030
ENDCHAR
STARTCHAR w_morerainidunno
ENCODING 57904
SWIDTH 2304 0
DWIDTH 24 0
BBX 14 16 4 -2
BITMAP
0FC0
0FC0
3FF0
3FF0
FFFC
FFFC
FFFC
FFFC
3CF0
3CF0
0000
0000
3030
3030
0300
0300
ENDCHAR
STARTCHAR char57905
ENCODING 57905
SWIDTH 2304 0
DWIDTH 24 0
BBX 16 14 4 0
BITMAP
00CC
00CC
0CF0
0CF0
3F0F
3F0F
FC0C
FC0C
FF0F
FF0F
FFF0
FFF0
33CC
33CC
ENDCHAR
STARTCHAR w_partlymoon
ENCODING 57906
SWIDTH 2304 0
DWIDTH 24 0
BBX 16 16 4 0
BITMAP
00C0
00C0
0300
0300
0300
0300
33C3
33C3
FCFC
FCFC
FF00
FF00
FFF0
FFF0
33C0
33C0
ENDCHAR
STARTCHAR w_moon
ENCODING 57907
SWIDTH 2304 0
DWIDTH 24 0
BBX 10 10 6 2
BITMAP
3000
3000
C000
C000
C000
C000
F0C0
F0C0
3F00
3F00
ENDCHAR
STARTCHAR w_sun
ENCODING 57908
SWIDTH 2304 0
DWIDTH 24 0
BBX 14 14 4 0
BITMAP
C30C
C30C
3FF0
3FF0
3030
3030
3030
3030
3030
3030
3FF0
3FF0
C30C
C30C
ENDCHAR
STARTCHAR w_wind
ENCODING 57909
SWIDTH 2304 0
DWIDTH 24 0
BBX 16 14 4 0
BITMAP
03C0
03C0
FFC0
FFC0
000F
000F
FFFF
FFFF
0000
0000
FFF0
FFF0
00F0
00F0
ENDCHAR
STARTCHAR char57910
ENCODING 57910
SWIDTH 2304 0
DWIDTH 24 0
BBX 20 14 2 0
BITMAP
FFFFC0
FFFFC0
C000C0
C000C0
C000F0
C000F0
C000F0
C000F0
C000F0
C000F0
C000C0
C000C0
FFFFC0
FFFFC0
ENDCHAR
STARTCHAR char57911
ENCODING 57911
SWIDTH 2304 0
DWIDTH 24 0
BBX 20 14 2 0
BITMAP
FFFFC0
FFFFC0
C000C0
C000C0
CFC0F0
CFC0F0
CFC0F0
CFC0F0
CFC0F0
CFC0F0
C000C0
C000C0
FFFFC0
FFFFC0
ENDCHAR
STARTCHAR char57912
ENCODING 57912
SWIDTH 2304 0
DWIDTH 24 0
BBX 20 14 2 0
BITMAP
FFFFC0
FFFFC0
C000C0
C000C0
CFFCF0
CFFCF0
CFFCF0
CFFCF0
CFFCF0
CFFCF0
C000C0
C000C0
FFFFC0
FFFFC0
ENDCHAR
STARTCHAR char57913
ENCODING 57913
SWIDTH 2304 0
DWIDTH 24 0
BBX 20 14 2 0
BITMAP
FFFFC0
FFFFC0
FF0FC0
FF0FC0
FC00F0
FC00F0
C00FF0
C00FF0
FC00F0
FC00F0
FF0FC0
FF0FC0
FFFFC0
FFFFC0
ENDCHAR
STARTCHAR char57914
ENCODING 57914
SWIDTH 2304 0
DWIDTH 24 0
BBX 20 14 2 0
BITMAP
FFFFC0
FFFFC0
FF3FC0
FF3FC0
FC3CF0
FC3CF0
F003F0
F003F0
CF0FF0
CF0FF0
FF3FC0
FF3FC0
FFFFC0
FFFFC0
ENDCHAR
STARTCHAR char57915
ENCODING 57915
SWIDTH 2304 0
DWIDTH 24 0
BBX 20 14 2 0
BITMAP
3FFFF0
3FFFF0
300030
300030
F00030
F00030
F00030
F00030
F00030
F00030
300030
300030
3FFFF0
3FFFF0
ENDCHAR
STARTCHAR char57916
ENCODING 57916
SWIDTH 2304 0
DWIDTH 24 0
BBX 20 14 2 0
BITMAP
3FFFF0
3FFFF0
300030
300030
F03F30
F03F30
F03F30
F03F30
F03F30
F03F30
300030
300030
3FFFF0
3FFFF0
ENDCHAR
STARTCHAR char57917
ENCODING 57917
SWIDTH 2304 0
DWIDTH 24 0
BBX 20 14 2 0
BITMAP
3FFFF0
3FFFF0
300030
300030
F3FF30
F3FF30
F3FF30
F3FF30
F3FF30
F3FF30
300030
300030
3FFFF0
3FFFF0
ENDCHAR
STARTCHAR char57918
ENCODING 57918
SWIDTH 2304 0
DWIDTH 24 0
BBX 20 14 2 0
BITMAP
3FFFF0
3FFFF0
3F0FF0
3F0FF0
F003F0
F003F0
FF0030
FF0030
F003F0
F003F0
3F0FF0
3F0FF0
3FFFF0
3FFFF0
ENDCHAR
STARTCHAR char57919
ENCODING 57919
SWIDTH 2304 0
DWIDTH 24 0
BBX 20 14 2 0
BITMAP
3FFFF0
3FFFF0
3FCFF0
3FCFF0
F3C3F0
F3C3F0
FC00F0
FC00F0
FF0F30
FF0F30
3FCFF0
3FCFF0
3FFFF0
3FFFF0
ENDCHAR
STARTCHAR char57920
ENCODING 57920
SWIDTH 2304 0
DWIDTH 24 0
BBX 24 10 0 0
BITMAP
030000
030000
030000
030000
FF33FF
FF33FF
C33333
C33333
FFFF33
FFFF33
ENDCHAR
STARTCHAR char57921
ENCODING 57921
SWIDTH 2304 0
DWIDTH 24 0
BBX 24 14 0 0
BITMAP
030000
030000
030000
030000
030000
030000
FF33FF
FF33FF
C33333
C33333
C33333
C33333
FFFF33
FFFF33
ENDCHAR
STARTCHAR char57922
ENCODING 57922
SWIDTH 2304 0
DWIDTH 24 0
BBX 24 14 0 0
BITMAP
FFFFFC
FFFFFC
C0000F
C0000F
C00003
C00003
C00003
C00003
C00003
C00003
C0000F
C0000F
FFFFFC
FFFFFC
ENDCHAR
STARTCHAR char57923
ENCODING 57923
SWIDTH 2304 0
DWIDTH 24 0
BBX 24 14 0 0
BITMAP
FFFFFC
FFFFFC
C0000F
C0000F
F00003
F00003
F00003
F00003
F00003
F00003
C0000F
C0000F
FFFFFC
FFFFFC
ENDCHAR
STARTCHAR char57924
ENCODING 57924
SWIDTH 2304 0
DWIDTH 24 0
BBX 24 14 0 0
BITMAP
FFFFFC
FFFFFC
C0000F
C0000F
FC0003
FC0003
FC0003
FC0003
FC0003
FC0003
C0000F
C0000F
FFFFFC
FFFFFC
ENDCHAR
STARTCHAR char57925
ENCODING 57925
SWIDTH 2304 0
DWIDTH 24 0
BBX 24 14 0 0
BITMAP
FFFFFC
FFFFFC
C0000F
C0000F
FF0003
FF0003
FF0003
FF0003
FF0003
FF0003
C0000F
C0000F
FFFFFC
FFFFFC
ENDCHAR
STARTCHAR char57926
ENCODING 57926
SWIDTH 2304 0
DWIDTH 24 0
BBX 24 14 0 0
BITMAP
FFFFFC
FFFFFC
C0000F
C0000F
FFC003
FFC003
FFC003
FFC003
FFC003
FFC003
C0000F
C0000F
FFFFFC
FFFFFC
ENDCHAR
STARTCHAR char57927
ENCODING 57927
SWIDTH 2304 0
DWIDTH 24 0
BBX 24 14 0 0
BITMAP
FFFFFC
FFFFFC
C0000F
C0000F
FFF003
FFF003
FFF003
FFF003
FFF003
FFF003
C0000F
C0000F
FFFFFC
FFFFFC
ENDCHAR
STARTCHAR char57928
ENCODING 57928
SWIDTH 2304 0
DWIDTH 24 0
BBX 24 14 0 0
BITMAP
FFFFFC
FFFFFC
C0000F
C0000F
FFFC03
FFFC03
FFFC03
FFFC03
FFFC03
FFFC03
C0000F
C0000F
FFFFFC
FFFFFC
ENDCHAR
STARTCHAR char57929
ENCODING 57929
SWIDTH 2304 0
DWIDTH 24 0
BBX 24 14 0 0
BITMAP
FFFFFC
FFFFFC
C0000F
C0000F
FFFF03
FFFF03
FFFF03
FFFF03
FFFF03
FFFF03
C0000F
C0000F
FFFFFC
FFFFFC
ENDCHAR
STARTCHAR char57930
ENCODING 57930
SWIDTH 2304 0
DWIDTH 24 0
BBX 24 14 0 0
BITMAP
FFFFFC
FFFFFC
C0000F
C0000F
FFFFC3
FFFFC3
FFFFC3
FFFFC3
FFFFC3
FFFFC3
C0000F
C0000F
FFFFFC
FFFFFC
ENDCHAR
STARTCHAR char57931
ENCODING 57931
SWIDTH 2304 0
DWIDTH 24 0
BBX 24 14 0 0
BITMAP
FFFFFC
FFFFFC
C0000F
C0000F
FFFFF3
FFFFF3
FFFFF3
FFFFF3
FFFFF3
FFFFF3
C0000F
C0000F
FFFFFC
FFFFFC
ENDCHAR
STARTCHAR char57932
ENCODING 57932
SWIDTH 2304 0
DWIDTH 24 0
BBX 24 14 0 0
BITMAP
FFFFFC
FFFFFC
F0000F
F0000F
F00003
F00003
F00003
F00003
F00003
F00003
F0000F
F0000F
FFFFFC
FFFFFC
ENDCHAR
STARTCHAR char57933
ENCODING 57933
SWIDTH 2304 0
DWIDTH 24 0
BBX 24 14 0 0
BITMAP
FFFFFC
FFFFFC
FC000F
FC000F
FC0003
FC0003
FC0003
FC0003
FC0003
FC0003
FC000F
FC000F
FFFFFC
FFFFFC
ENDCHAR
STARTCHAR char57934
ENCODING 57934
SWIDTH 2304 0
DWIDTH 24 0
BBX 24 14 0 0
BITMAP
FFFFFC
FFFFFC
FF000F
FF000F
FF0003
FF0003
FF0003
FF0003
FF0003
FF0003
FF000F
FF000F
FFFFFC
FFFFFC
ENDCHAR
STARTCHAR char57935
ENCODING 57935
SWIDTH 2304 0
DWIDTH 24 0
BBX 24 14 0 0
BITMAP
FFFFFC
FFFFFC
FFC00F
FFC00F
FFC003
FFC003
FFC003
FFC003
FFC003
FFC003
FFC00F
FFC00F
FFFFFC
FFFFFC
ENDCHAR
STARTCHAR char57936
ENCODING 57936
SWIDTH 2304 0
DWIDTH 24 0
BBX 24 14 0 0
BITMAP
FFFFFC
FFFFFC
FFF00F
FFF00F
FFF003
FFF003
FFF003
FFF003
FFF003
FFF003
FFF00F
FFF00F
FFFFFC
FFFFFC
ENDCHAR
STARTCHAR char57937
ENCODING 57937
SWIDTH 2304 0
DWIDTH 24 0
BBX 24 14 0 0
BITMAP
FFFFFC
FFFFFC
FFFC0F
FFFC0F
FFFC03
FFFC03
FFFC03
FFFC03
FFFC03
FFFC03
FFFC0F
FFFC0F
FFFFFC
FFFFFC
ENDCHAR
STARTCHAR char57938
ENCODING 57938
SWIDTH 2304 0
DWIDTH 24 0
BBX 24 14 0 0
BITMAP
FFFFFC
FFFFFC
FFFF0F
FFFF0F
FFFF03
FFFF03
FFFF03
FFFF03
FFFF03
FFFF03
FFFF0F
FFFF0F
FFFFFC
FFFFFC
ENDCHAR
STARTCHAR char57939
ENCODING 57939
SWIDTH 2304 0
DWIDTH 24 0
BBX 24 14 0 0
BITMAP
FFFFFC
FFFFFC
FFFFCF
FFFFCF
FFFFC3
FFFFC3
FFFFC3
FFFFC3
FFFFC3
FFFFC3
FFFFCF
FFFFCF
FFFFFC
FFFFFC
ENDCHAR
STARTCHAR char57940
ENCODING 57940
SWIDTH 2304 0
DWIDTH 24 0
BBX 24 14 0 0
BITMAP
FFFFFC
FFFFFC
FFFFFF
FFFFFF
FFFFF3
FFFFF3
FFFFF3
FFFFF3
FFFFF3
FFFFF3
FFFFFF
FFFFFF
FFFFFC
FFFFFC
ENDCHAR
STARTCHAR layout_full
ENCODING 57941
SWIDTH 2304 0
DWIDTH 24 0
BBX 22 14 0 0
BITMAP
FFFFFC
FFFFFC
C0000C
C0000C
C0000C
C0000C
C0000C
C0000C
C0000C
C0000C
C0000C
C0000C
FFFFFC
FFFFFC
ENDCHAR
STARTCHAR layout_mirror
ENCODING 57942
SWIDTH 2304 0
DWIDTH 24 0
BBX 22 14 0 0
BITMAP
FFFFFC
FFFFFC
C0000C
C0000C
C0000C
C0000C
FFFFFC
FFFFFC
C0300C
C0300C
C0300C
C0300C
FFFFFC
FFFFFC
ENDCHAR
STARTCHAR layout_tall
ENCODING 57943
SWIDTH 2304 0
DWIDTH 24 0
BBX 22 14 0 0
BITMAP
FFFFFC
FFFFFC
C0300C
C0300C
C0300C
C0300C
C03FFC
C03FFC
C0300C
C0300C
C0300C
C0300C
FFFFFC
FFFFFC
ENDCHAR
STARTCHAR wifi_1
ENCODING 57944
SWIDTH 2304 0
DWIDTH 24 0
BBX 2 2 2 2
BITMAP
C0
C0
ENDCHAR
STARTCHAR wifi_2
ENCODING 57945
SWIDTH 2304 0
DWIDTH 24 0
BBX 6 4 2 2
BITMAP
0C
0C
CC
CC
ENDCHAR
STARTCHAR wifi_3
ENCODING 57946
SWIDTH 2304 0
DWIDTH 24 0
BBX 10 6 2 2
BITMAP
00C0
00C0
0CC0
0CC0
CCC0
CCC0
ENDCHAR
STARTCHAR wifi_4
ENCODING 57947
SWIDTH 2304 0
DWIDTH 24 0
BBX 14 8 2 2
BITMAP
000C
000C
00CC
00CC
0CCC
0CCC
CCCC
CCCC
ENDCHAR
STARTCHAR wifi_5
ENCODING 57948
SWIDTH 2304 0
DWIDTH 24 0
BBX 18 10 2 2
BITMAP
0000C0
0000C0
000CC0
000CC0
00CCC0
00CCC0
0CCCC0
0CCCC0
CCCCC0
CCCCC0
ENDCHAR
STARTCHAR wifi_alt_1
ENCODING 57949
SWIDTH 2304 0
DWIDTH 24 0
BBX 18 2 2 2
BITMAP
CCCCC0
CCCCC0
ENDCHAR
STARTCHAR wifi_alt_2
ENCODING 57950
SWIDTH 2304 0
DWIDTH 24 0
BBX 18 4 2 2
BITMAP
0C0000
0C0000
CCCCC0
CCCCC0
ENDCHAR
STARTCHAR wifi_alt_3
ENCODING 57951
SWIDTH 2304 0
DWIDTH 24 0
BBX 18 6 2 2
BITMAP
00C000
00C000
0CC000
0CC000
CCCCC0
CCCCC0
ENDCHAR
STARTCHAR wifi_alt_4
ENCODING 57952
SWIDTH 2304 0
DWIDTH 24 0
BBX 18 8 2 2
BITMAP
000C00
000C00
00CC00
00CC00
0CCC00
0CCC00
CCCCC0
CCCCC0
ENDCHAR
STARTCHAR wifi_alt_5
ENCODING 57953
SWIDTH 2304 0
DWIDTH 24 0
BBX 18 10 2 2
BITMAP
0000C0
0000C0
000CC0
000CC0
00CCC0
00CCC0
0CCCC0
0CCCC0
CCCCC0
CCCCC0
ENDCHAR
STARTCHAR calendar_large
ENCODING 57954
SWIDTH 2304 0
DWIDTH 24 0
BBX 24 18 0 -2
BITMAP
0CCCC0
0CCCC0
FFFFFF
FFFFFF
CCCCC3
CCCCC3
C00003
C00003
CCCCCF
CCCCCF
C00003
C00003
CCCCCF
CCCCCF
C00003
C00003
FFFFFF
FFFFFF
ENDCHAR
STARTCHAR film_small
ENCODING 57955
SWIDTH 2304 0
DWIDTH 24 0
BBX 20 14 2 0
BITMAP
FFFFF0
FFFFF0
CC0330
CC0330
FC03F0
FC03F0
CFFF30
CFFF30
FC03F0
FC03F0
CC0330
CC0330
FFFFF0
FFFFF0
ENDCHAR
STARTCHAR folder_small
ENCODING 57956
SWIDTH 2304 0
DWIDTH 24 0
BBX 16 12 4 0
BITMAP
FC00
FC00
FFFF
FFFF
FFFF
FFFF
FFFF
FFFF
FFFF
FFFF
FFFF
FFFF
ENDCHAR
STARTCHAR view_calendar_month
ENCODING 57957
SWIDTH 2304 0
DWIDTH 24 0
BBX 18 16 2 0
BITMAP
FFFFC0
FFFFC0
FFFFC0
FFFFC0
CCCCC0
CCCCC0
FFFFC0
FFFFC0
CCCCC0
CCCCC0
FFFFC0
FFFFC0
CCCCC0
CCCCC0
FFFFC0
FFFFC0
ENDCHAR
STARTCHAR calendar_small
ENCODING 57958
SWIDTH 2304 0
DWIDTH 24 0
BBX 20 18 2 -2
BITMAP
333300
333300
FFFFF0
FFFFF0
F33330
F33330
C00030
C00030
CCCCF0
CCCCF0
C00030
C00030
CCCCF0
CCCCF0
C00030
C00030
FFFFF0
FFFFF0
ENDCHAR
STARTCHAR char57959
ENCODING 57959
SWIDTH 2304 0
DWIDTH 24 0
BBX 20 16 2 0
BITMAP
FFFFF0
FFFFF0
FFFFF0
FFFFF0
C00030
C00030
CCCCF0
CCCCF0
C00030
C00030
CCCCF0
CCCCF0
C00030
C00030
FFFFF0
FFFFF0
ENDCHAR
STARTCHAR editor_large
ENCODING 57960
SWIDTH 2304 0
DWIDTH 24 0
BBX 20 16 2 0
BITMAP
3FFFC0
3FFFC0
FFFFF0
FFFFF0
C00030
C00030
CFFF30
CFFF30
C00030
C00030
CFFF30
CFFF30
C00030
C00030
FFFFF0
FFFFF0
ENDCHAR
STARTCHAR char57961
ENCODING 57961
SWIDTH 2304 0
DWIDTH 24 0
BBX 20 16 2 0
BITMAP
FFFFF0
FFFFF0
FFFFF0
FFFFF0
C00030
C00030
CCFF30
CCFF30
C00030
C00030
CCFF30
CCFF30
C00030
C00030
FFFFF0
FFFFF0
ENDCHAR
STARTCHAR char57962
ENCODING 57962
SWIDTH 2304 0
DWIDTH 24 0
BBX 18 18 2 -2
BITMAP
300300
300300
CFFCC0
CFFCC0
FFFFC0
FFFFC0
CCCCC0
CCCCC0
FFFFC0
FFFFC0
CCCCC0
CCCCC0
FFFFC0
FFFFC0
CCCCC0
CCCCC0
FFFFC0
FFFFC0
ENDCHAR
STARTCHAR layout_deck
ENCODING 57963
SWIDTH 2304 0
DWIDTH 24 0
BBX 16 16 4 0
BITMAP
FF3F
FF3F
FF3F
FF3F
FF3F
FF3F
FF3F
FF3F
FF3F
FF3F
FF3F
FF3F
FF3F
FF3F
FF3F
FF3F
ENDCHAR
STARTCHAR char57964
ENCODING 57964
SWIDTH 2304 0
DWIDTH 24 0
BBX 18 18 2 -2
BITMAP
FFFFC0
FFFFC0
FFFFC0
FFFFC0
C0C0C0
C0C0C0
C0C0C0
C0C0C0
C0C0C0
C0C0C0
C0C0C0
C0C0C0
C0C0C0
C0C0C0
C0C0C0
C0C0C0
FFFFC0
FFFFC0
ENDCHAR
STARTCHAR web_invert
ENCODING 57965
SWIDTH 2304 0
DWIDTH 24 0
BBX 16 16 4 0
BITMAP
0FF0
0FF0
3C3C
3C3C
FCFF
FCFF
CCFF
CCFF
CC33
CC33
FC33
FC33
3F0C
3F0C
0FF0
0FF0
ENDCHAR
STARTCHAR char57966
ENCODING 57966
SWIDTH 2304 0
DWIDTH 24 0
BBX 10 16 6 0
BITMAP
3F00
3F00
FCC0
FCC0
C3C0
C3C0
C0C0
C0C0
3300
3300
3F00
3F00
3F00
3F00
0C00
0C00
ENDCHAR
STARTCHAR keyboard_layout
ENCODING 57967
SWIDTH 2304 0
DWIDTH 24 0
BBX 24 16 0 0
BITMAP
FFFFFF
FFFFFF
CCCC03
CCCC03
C00033
C00033
FCCCF3
FCCCF3
C00003
C00003
CCFF33
CCFF33
C00003
C00003
FFFFFF
FFFFFF
ENDCHAR
STARTCHAR Quarter
ENCODING 57968
SWIDTH 2304 0
DWIDTH 24 0
BBX 6 14 8 0
BITMAP
0C
0C
0C
0C
0C
0C
0C
0C
0C
0C
FC
FC
FC
FC
ENDCHAR
STARTCHAR Eighth
ENCODING 57969
SWIDTH 2304 0
DWIDTH 24 0
BBX 10 14 6 0
BITMAP
0F00
0F00
0CC0
0CC0
0CC0
0CC0
0C00
0C00
0C00
0C00
FC00
FC00
FC00
FC00
ENDCHAR
STARTCHAR Beamed
ENCODING 57970
SWIDTH 2304 0
DWIDTH 24 0
BBX 10 14 6 0
BITMAP
3FC0
3FC0
30C0
30C0
30C0
30C0
30C0
30C0
30C0
30C0
F3C0
F3C0
F3C0
F3C0
ENDCHAR
STARTCHAR Beamed
ENCODING 57971
SWIDTH 2304 0
DWIDTH 24 0
BBX 10 14 6 0
BITMAP
3FC0
3FC0
3FC0
3FC0
30C0
30C0
3FC0
3FC0
30C0
30C0
F3C0
F3C0
F3C0
F3C0
ENDCHAR
STARTCHAR Music
ENCODING 57972
SWIDTH 2304 0
DWIDTH 24 0
BBX 6 14 8 0
BITMAP
C0
C0
C0
C0
C0
C0
C0
C0
FC
FC
CC
CC
F0
F0
ENDCHAR
STARTCHAR Music
ENCODING 57973
SWIDTH 2304 0
DWIDTH 24 0
BBX 8 16 8 0
BITMAP
C0
C0
C3
C3
CF
CF
F3
F3
CF
CF
F3
F3
C3
C3
03
03
ENDCHAR
STARTCHAR Music
ENCODING 57974
SWIDTH 2304 0
DWIDTH 24 0
BBX 10 16 6 0
BITMAP
0300
0300
33C0
33C0
3F00
3F00
F300
F300
33C0
33C0
3F00
3F00
F300
F300
3000
3000
ENDCHAR
STARTCHAR char57975
ENCODING 57975
SWIDTH 2304 0
DWIDTH 24 0
BBX 16 18 4 -2
BITMAP
03C0
03C0
0FF0
0FF0
3FFC
3FFC
3FFC
3FFC
3FFC
3FFC
3FFC
3FFC
FFFF
FFFF
0000
0000
03C0
03C0
ENDCHAR
STARTCHAR char57975
ENCODING 57976
SWIDTH 2304 0
DWIDTH 24 0
BBX 16 18 4 -2
BITMAP
C3C0
C3C0
3FF0
3FF0
0FFC
0FFC
33FC
33FC
3CFC
3CFC
3F3C
3F3C
FFCF
FFCF
0003
0003
03C0
03C0
ENDCHAR
STARTCHAR char57977
ENCODING 57977
SWIDTH 2304 0
DWIDTH 24 0
BBX 20 14 2 0
BITMAP
03FFF0
03FFF0
0FFFF0
0FFFF0
3FCCF0
3FCCF0
FFF3F0
FFF3F0
3FCCF0
3FCCF0
0FFFF0
0FFFF0
03FFF0
03FFF0
ENDCHAR
STARTCHAR char57978
ENCODING 57978
SWIDTH 2304 0
DWIDTH 24 0
BBX 16 16 4 0
BITMAP
FFF0
FFF0
CCFF
CCFF
CCF3
CCF3
CCF3
CCF3
CCF3
CCF3
CCFC
CCFC
FFF0
FFF0
FFF0
FFF0
ENDCHAR
STARTCHAR char57979
ENCODING 57979
SWIDTH 2304 0
DWIDTH 24 0
BBX 12 12 6 0
BITMAP
F000
F000
FFF0
FFF0
FFF0
FFF0
FFF0
FFF0
FFF0
FFF0
FFF0
FFF0
ENDCHAR
STARTCHAR char57979
ENCODING 57980
SWIDTH 2304 0
DWIDTH 24 0
BBX 14 14 4 0
BITMAP
F000
F000
FFFC
FFFC
FFFC
FFFC
FFFC
FFFC
FFFC
FFFC
FFFC
FFFC
FFFC
FFFC
ENDCHAR
STARTCHAR char57981
ENCODING 57981
SWIDTH 2304 0
DWIDTH 24 0
BBX 20 16 2 0
BITMAP
0FFF00
0FFF00
0C0300
0C0300
FFFFF0
FFFFF0
FFFFF0
FFFFF0
C00030
C00030
FF0FF0
FF0FF0
FFFFF0
FFFFF0
FFFFF0
FFFFF0
ENDCHAR
STARTCHAR char57982
ENCODING 57982
SWIDTH 2304 0
DWIDTH 24 0
BBX 16 16 4 0
BITMAP
C000
C000
C0C0
C0C0
C0CC
C0CC
CCCC
CCCC
CCCC
CCCC
CCCC
CCCC
C000
C000
FFFF
FFFF
ENDCHAR
STARTCHAR char57982
ENCODING 57983
SWIDTH 2304 0
DWIDTH 24 0
BBX 16 16 4 0
BITMAP
C0C0
C0C0
C0CC
C0CC
CCFC
CCFC
CFFF
CFFF
CFFF
CFFF
CFFF
CFFF
C000
C000
FFFF
FFFF
ENDCHAR
STARTCHAR char57984
ENCODING 57984
SWIDTH 2304 0
DWIDTH 24 0
BBX 20 16 2 0
BITMAP
FFFFF0
FFFFF0
C00030
C00030
C00030
C00030
C00030
C00030
C00030
C00030
C00030
C00030
003F00
003F00
FFFFF0
FFFFF0
ENDCHAR
STARTCHAR char57985
ENCODING 57985
SWIDTH 2304 0
DWIDTH 24 0
BBX 14 14 4 0
BITMAP
FFFC
FFFC
FFFC
FFFC
FFCC
FFCC
FF3C
FF3C
CCFC
CCFC
F3FC
F3FC
FFFC
FFFC
ENDCHAR
STARTCHAR char57985
ENCODING 57986
SWIDTH 2304 0
DWIDTH 24 0
BBX 14 14 4 0
BITMAP
FFFC
FFFC
FFFC
FFFC
F33C
F33C
FCFC
FCFC
F33C
F33C
FFFC
FFFC
FFFC
FFFC
ENDCHAR
STARTCHAR char57987
ENCODING 57987
SWIDTH 2304 0
DWIDTH 24 0
BBX 14 14 4 0
BITMAP
0FFC
0FFC
CFFC
CFFC
CFFC
CFFC
CFFC
CFFC
CFFC
CFFC
C000
C000
FFF0
FFF0
ENDCHAR
STARTCHAR char57988
ENCODING 57988
SWIDTH 2304 0
DWIDTH 24 0
BBX 14 14 4 0
BITMAP
FFC0
FFC0
FFCC
FFCC
FFCC
FFCC
FFCC
FFCC
FFCC
FFCC
000C
000C
3FFC
3FFC
ENDCHAR
STARTCHAR char57989
ENCODING 57989
SWIDTH 2304 0
DWIDTH 24 0
BBX 14 14 4 0
BITMAP
FFF0
FFF0
C000
C000
CFFC
CFFC
CFFC
CFFC
CFFC
CFFC
CFFC
CFFC
0FFC
0FFC
ENDCHAR
STARTCHAR char57990
ENCODING 57990
SWIDTH 2304 0
DWIDTH 24 0
BBX 14 14 4 0
BITMAP
3FFC
3FFC
000C
000C
FFCC
FFCC
FFCC
FFCC
FFCC
FFCC
FFCC
FFCC
FFC0
FFC0
ENDCHAR
STARTCHAR char57991
ENCODING 57991
SWIDTH 2304 0
DWIDTH 24 0
BBX 20 18 2 -2
BITMAP
3FFF00
3FFF00
3FFFF0
3FFFF0
3FFF30
3FFF30
3FFF30
3FFF30
3FFFC0
3FFFC0
3FFF00
3FFF00
0FFC00
0FFC00
000000
000000
FFFFC0
FFFFC0
ENDCHAR
STARTCHAR char57992
ENCODING 57992
SWIDTH 2304 0
DWIDTH 24 0
BBX 16 16 4 0
BITMAP
C3C3
C3C3
3FFC
3FFC
3C3C
3C3C
F3CF
F3CF
F3CF
F3CF
3C3C
3C3C
3FFC
3FFC
C3C3
C3C3
ENDCHAR
STARTCHAR char57993
ENCODING 57993
SWIDTH 2304 0
DWIDTH 24 0
BBX 12 12 6 0
BITMAP
CF30
CF30
3FC0
3FC0
F0F0
F0F0
F0F0
F0F0
3FC0
3FC0
CF30
CF30
ENDCHAR
STARTCHAR char57994
ENCODING 57994
SWIDTH 2304 0
DWIDTH 24 0
BBX 18 18 2 -2
BITMAP
0FFC00
0FFC00
3FFF00
3FFF00
FFF3C0
FFF3C0
FF0FC0
FF0FC0
FCCFC0
FCCFC0
FC3FC0
FC3FC0
F3FFC0
F3FFC0
3FFF00
3FFF00
0FFC00
0FFC00
ENDCHAR
STARTCHAR char57995
ENCODING 57995
SWIDTH 2304 0
DWIDTH 24 0
BBX 16 16 4 0
BITMAP
0FF0
0FF0
3FFC
3FFC
FC3F
FC3F
F3FF
F3FF
F3FF
F3FF
FC3F
FC3F
3FFC
3FFC
0FF0
0FF0
ENDCHAR
STARTCHAR char57996
ENCODING 57996
SWIDTH 2304 0
DWIDTH 24 0
BBX 16 16 4 0
BITMAP
3FFC
3FFC
FFFF
FFFF
FFFF
FFFF
FFFF
FFFF
FFFF
FFFF
3FFC
3FFC
00F0
00F0
003C
003C
ENDCHAR
STARTCHAR char57996
ENCODING 57997
SWIDTH 2304 0
DWIDTH 24 0
BBX 16 16 4 0
BITMAP
3FFC
3FFC
FFFF
FFFF
FFFF
FFFF
FFFF
FFFF
FFFF
FFFF
3FFC
3FFC
0F00
0F00
3C00
3C00
ENDCHAR
STARTCHAR char57996
ENCODING 57998
SWIDTH 2304 0
DWIDTH 24 0
BBX 18 20 4 -2
BITMAP
C00000
C00000
300000
300000
0FFC00
0FFC00
F3FF00
F3FF00
FCFF00
FCFF00
FF3F00
FF3F00
FFCF00
FFCF00
3FF300
3FF300
0F00C0
0F00C0
3C0000
3C0000
ENDCHAR
STARTCHAR char57999
ENCODING 57999
SWIDTH 2304 0
DWIDTH 24 0
BBX 20 20 2 -2
BITMAP
000300
000300
0003C0
0003C0
FFFFF0
FFFFF0
0003C0
0003C0
000300
000300
0C0000
0C0000
3C0000
3C0000
FFFFF0
FFFFF0
3C0000
3C0000
0C0000
0C0000
ENDCHAR
STARTCHAR char57999
ENCODING 58000
SWIDTH 2304 0
DWIDTH 24 0
BBX 20 20 2 -2
BITMAP
000300
000300
0003C0
0003C0
FFFFF0
FFFFF0
0003C0
0003C0
000300
000300
0C0000
0C0000
3C0000
3C0000
FFFFF0
FFFFF0
3C0000
3C0000
0C0000
0C0000
ENDCHAR
STARTCHAR char57999
ENCODING 58001
SWIDTH 2304 0
DWIDTH 24 0
BBX 18 20 2 -2
BITMAP
000C00
000C00
000F00
000F00
FFFFC0
FFFFC0
000F00
000F00
000C00
000C00
0C0000
0C0000
3C0000
3C0000
FFFFC0
FFFFC0
3C0000
3C0000
0C0000
0C0000
ENDCHAR
STARTCHAR char57999
ENCODING 58002
SWIDTH 2304 0
DWIDTH 24 0
BBX 20 14 2 0
BITMAP
000300
000300
0003C0
0003C0
FFFFF0
FFFFF0
000000
000000
FFFFF0
FFFFF0
3C0000
3C0000
0C0000
0C0000
ENDCHAR
STARTCHAR char57999
ENCODING 58003
SWIDTH 2304 0
DWIDTH 24 0
BBX 20 16 2 0
BITMAP
000300
000300
0003C0
0003C0
FFFFF0
FFFFF0
000000
000000
000000
000000
FFFFF0
FFFFF0
3C0000
3C0000
0C0000
0C0000
ENDCHAR
STARTCHAR char57999
ENCODING 58004
SWIDTH 2304 0
DWIDTH 24 0
BBX 16 16 4 0
BITMAP
0030
0030
003C
003C
FFFF
FFFF
0000
0000
0000
0000
FFFF
FFFF
3C00
3C00
0C00
0C00
ENDCHAR
STARTCHAR char58005
ENCODING 58005
SWIDTH 2304 0
DWIDTH 24 0
BBX 20 16 2 0
BITMAP
0C0300
0C0300
0C0FC0
0C0FC0
0C3FF0
0C3FF0
0C0300
0C0300
0C0300
0C0300
FFC300
FFC300
3F0300
3F0300
0C0300
0C0300
ENDCHAR
STARTCHAR char58005
ENCODING 58006
SWIDTH 2304 0
DWIDTH 24 0
BBX 24 16 0 0
BITMAP
0C0030
0C0030
0C00FC
0C00FC
0C03FF
0C03FF
0C0030
0C0030
0C0030
0C0030
FFC030
FFC030
3F0030
3F0030
0C0030
0C0030
ENDCHAR
STARTCHAR char58005
ENCODING 58007
SWIDTH 2304 0
DWIDTH 24 0
BBX 16 16 4 0
BITMAP
0C30
0C30
0C3C
0C3C
0C3F
0C3F
0C30
0C30
0C30
0C30
FC30
FC30
3C30
3C30
0C30
0C30
ENDCHAR
STARTCHAR char58005
ENCODING 58008
SWIDTH 2304 0
DWIDTH 24 0
BBX 20 16 2 0
BITMAP
0C0300
0C0300
0C03C0
0C03C0
0C03F0
0C03F0
0C0300
0C0300
0C0300
0C0300
FC0300
FC0300
3C0300
3C0300
0C0300
0C0300
ENDCHAR
STARTCHAR char58009
ENCODING 58009
SWIDTH 2304 0
DWIDTH 24 0
BBX 24 14 0 0
BITMAP
00003F
00003F
00300F
00300F
00C033
00C033
0300C0
0300C0
CC0300
CC0300
F00C00
F00C00
FC0000
FC0000
ENDCHAR
STARTCHAR char58009
ENCODING 58010
SWIDTH 2304 0
DWIDTH 24 0
BBX 24 18 0 -2
BITMAP
000C00
000C00
003000
003000
00C0FF
00C0FF
C3003F
C3003F
FC003F
FC003F
FC00C3
FC00C3
FF0300
FF0300
000C00
000C00
003000
003000
ENDCHAR
STARTCHAR char58009
ENCODING 58011
SWIDTH 2304 0
DWIDTH 24 0
BBX 24 14 0 0
BITMAP
00003F
00003F
00300F
00300F
00C033
00C033
0300C0
0300C0
CC0300
CC0300
F00C00
F00C00
FC0000
FC0000
ENDCHAR
STARTCHAR char58009
ENCODING 58012
SWIDTH 2304 0
DWIDTH 24 0
BBX 24 14 0 0
BITMAP
00003F
00003F
00000F
00000F
00C033
00C033
0300C0
0300C0
CC0300
CC0300
F00000
F00000
FC0000
FC0000
ENDCHAR
STARTCHAR char58013
ENCODING 58013
SWIDTH 2304 0
DWIDTH 24 0
BBX 16 14 4 0
BITMAP
0030
0030
003C
003C
C03F
C03F
3FF0
3FF0
3FF0
3FF0
3030
3030
3030
3030
ENDCHAR
STARTCHAR char58014
ENCODING 58014
SWIDTH 2304 0
DWIDTH 24 0
BBX 18 16 2 0
BITMAP
FF0F00
FF0F00
C03F00
C03F00
C0FC00
C0FC00
C3F0C0
C3F0C0
CCC0C0
CCC0C0
CF00C0
CF00C0
C000C0
C000C0
FFFFC0
FFFFC0
ENDCHAR
STARTCHAR char58014
ENCODING 58015
SWIDTH 2304 0
DWIDTH 24 0
BBX 18 18 2 -2
BITMAP
FFC3C0
FFC3C0
C00FC0
C00FC0
C03F00
C03F00
C0FC00
C0FC00
C3F0C0
C3F0C0
CCC0C0
CCC0C0
CF00C0
CF00C0
C000C0
C000C0
FFFFC0
FFFFC0
ENDCHAR
STARTCHAR char58016
ENCODING 58016
SWIDTH 2304 0
DWIDTH 24 0
BBX 14 14 4 0
BITMAP
003C
003C
00FC
00FC
03F0
03F0
0FC0
0FC0
3F00
3F00
CC00
CC00
F000
F000
ENDCHAR
STARTCHAR char58017
ENCODING 58017
SWIDTH 2304 0
DWIDTH 24 0
BBX 24 18 0 -2
BITMAP
FC0000
FC0000
0FFFFF
0FFFFF
03FFFC
03FFFC
03FFFC
03FFFC
00FFF0
00FFF0
00FFF0
00FFF0
000000
000000
00FFF0
00FFF0
00C030
00C030
ENDCHAR
STARTCHAR char58018
ENCODING 58018
SWIDTH 2304 0
DWIDTH 24 0
BBX 14 18 4 -2
BITMAP
C30C
C30C
3030
3030
0FC0
0FC0
0FC0
0FC0
0FC0
0FC0
0FC0
0FC0
0FC0
0FC0
0CC0
0CC0
0CC0
0CC0
ENDCHAR
STARTCHAR char58019
ENCODING 58019
SWIDTH 2304 0
DWIDTH 24 0
BBX 22 20 2 -2
BITMAP
003FC0
003FC0
FFF0C0
FFF0C0
CCFFC0
CCFFC0
FFF0C0
FFF0C0
CCFFC0
CCFFC0
FFF0FC
FFF0FC
CCFFCC
CCFFCC
FFFFFC
FFFFFC
CCFFCC
CCFFCC
FFFFFC
FFFFFC
ENDCHAR
STARTCHAR char58020
ENCODING 58020
SWIDTH 2304 0
DWIDTH 24 0
BBX 14 22 6 -2
BITMAP
0300
0300
0CC0
0CC0
FFFC
FFFC
C00C
C00C
FFFC
FFFC
FFFC
FFFC
FFFC
FFFC
FFFC
FFFC
FFFC
FFFC
FFFC
FFFC
FFFC
FFFC
ENDCHAR
STARTCHAR char58020
ENCODING 58021
SWIDTH 2304 0
DWIDTH 24 0
BBX 14 22 6 -2
BITMAP
0300
0300
0CC0
0CC0
FFFC
FFFC
C00C
C00C
FFFC
FFFC
FFCC
FFCC
FF3C
FF3C
CCFC
CCFC
F3FC
F3FC
FFFC
FFFC
FFFC
FFFC
ENDCHAR
STARTCHAR char57998
ENCODING 58022
SWIDTH 2304 0
DWIDTH 24 0
BBX 14 14 4 0
BITMAP
0FC0
0FC0
0FC0
0FC0
3FF0
3FF0
0FC0
0FC0
0300
0300
0000
0000
FFFC
FFFC
ENDCHAR
STARTCHAR char57998
ENCODING 58023
SWIDTH 2304 0
DWIDTH 24 0
BBX 16 14 4 0
BITMAP
0FF0
0FF0
0FF0
0FF0
3FFC
3FFC
0FF0
0FF0
03C0
03C0
0000
0000
FFFF
FFFF
ENDCHAR
STARTCHAR char58024
ENCODING 58024
SWIDTH 2304 0
DWIDTH 24 0
BBX 18 22 2 -4
BITMAP
033000
033000
0F3C00
0F3C00
3F3300
3F3300
CF30C0
CF30C0
F333C0
F333C0
CC0FC0
CC0FC0
C33FC0
C33FC0
C33FC0
C33FC0
333F00
333F00
0F3C00
0F3C00
033000
033000
ENDCHAR
STARTCHAR char58025
ENCODING 58025
SWIDTH 2304 0
DWIDTH 24 0
BBX 24 14 0 0
BITMAP
FF003F
FF003F
C30FF0
C30FF0
FFFF00
FFFF00
00F000
00F000
FFFF00
FFFF00
C30FF0
C30FF0
FF003F
FF003F
ENDCHAR
STARTCHAR char58025
ENCODING 58026
SWIDTH 2304 0
DWIDTH 24 0
BBX 22 14 0 0
BITMAP
FC03FC
FC03FC
CC3FC0
CC3FC0
FFFC00
FFFC00
03C000
03C000
FFFC00
FFFC00
CC3FC0
CC3FC0
FC03FC
FC03FC
ENDCHAR
STARTCHAR char58023
ENCODING 58027
SWIDTH 2304 0
DWIDTH 24 0
BBX 16 20 4 -2
BITMAP
0FCC
0FCC
0FCF
0FCF
CFC0
CFC0
CFFF
CFFF
CFFF
CFFF
CFFF
CFFF
CFFF
CFFF
CFFF
CFFF
C000
C000
FFFC
FFFC
ENDCHAR
STARTCHAR char58028
ENCODING 58028
SWIDTH 2304 0
DWIDTH 24 0
BBX 4 22 10 -4
BITMAP
F0
F0
F0
F0
00
00
F0
F0
F0
F0
00
00
F0
F0
F0
F0
00
00
F0
F0
F0
F0
ENDCHAR
STARTCHAR char58027
ENCODING 58029
SWIDTH 2304 0
DWIDTH 24 0
BBX 22 4 0 4
BITMAP
F3CF3C
F3CF3C
F3CF3C
F3CF3C
ENDCHAR
STARTCHAR char58030
ENCODING 58030
SWIDTH 2304 0
DWIDTH 24 0
BBX 24 14 0 0
BITMAP
00FF00
00FF00
03FFC0
03FFC0
3FC3FC
3FC3FC
FF00FF
FF00FF
3FC3FC
3FC3FC
03FFC0
03FFC0
00FF00
00FF00
ENDCHAR
STARTCHAR char58030
ENCODING 58031
SWIDTH 2304 0
DWIDTH 24 0
BBX 24 16 0 0
BITMAP
030000
030000
00FF00
00FF00
033FC0
033FC0
3FCFFC
3FCFFC
FF03FF
FF03FF
3FC0FC
3FC0FC
03FF30
03FF30
00FF0C
00FF0C
ENDCHAR
STARTCHAR char58032
ENCODING 58032
SWIDTH 2304 0
DWIDTH 24 0
BBX 20 18 2 -2
BITMAP
000C00
000C00
003F00
003F00
00FFC0
00FFC0
03FFF0
03FFF0
0CFFC0
0CFFC0
303F00
303F00
0C0C00
0C0C00
033000
033000
FFFFF0
FFFFF0
ENDCHAR
STARTCHAR char58033
ENCODING 58033
SWIDTH 2304 0
DWIDTH 24 0
BBX 20 20 2 -2
BITMAP
FC03F0
FC03F0
F000F0
F000F0
CC0330
CC0330
030C00
030C00
00F000
00F000
00F000
00F000
030C00
030C00
CC0330
CC0330
F000F0
F000F0
FC03F0
FC03F0
ENDCHAR
STARTCHAR char58033
ENCODING 58034
SWIDTH 2304 0
DWIDTH 24 0
BBX 16 16 4 0
BITMAP
FC3F
FC3F
F00F
F00F
CC33
CC33
03C0
03C0
03C0
03C0
CC33
CC33
F00F
F00F
FC3F
FC3F
ENDCHAR
STARTCHAR char58035
ENCODING 58035
SWIDTH 2304 0
DWIDTH 24 0
BBX 18 20 4 -2
BITMAP
003FC0
003FC0
FF03C0
FF03C0
C00CC0
C00CC0
C030C0
C030C0
C0C000
C0C000
C30300
C30300
C00300
C00300
C00300
C00300
C00300
C00300
FFFF00
FFFF00
ENDCHAR
STARTCHAR char58036
ENCODING 58036
SWIDTH 2304 0
DWIDTH 24 0
BBX 22 20 0 -2
BITMAP
003000
003000
00FC00
00FC00
00FC00
00FC00
03CF00
03CF00
03CF00
03CF00
0FCFC0
0FCFC0
0FCFC0
0FCFC0
3FFFF0
3FFFF0
3FCFF0
3FCFF0
FFFFFC
FFFFFC
ENDCHAR
STARTCHAR U+E02D
ENCODING 58037
SWIDTH 2304 0
DWIDTH 24 0
BBX 16 16 4 0
BITMAP
FFC0
FFC0
0030
0030
FF0C
FF0C
00C3
00C3
FC33
FC33
0333
0333
F333
F333
F333
F333
ENDCHAR
STARTCHAR U+E02D
ENCODING 58038
SWIDTH 2304 0
DWIDTH 24 0
BBX 16 16 4 0
BITMAP
03FF
03FF
0C00
0C00
30FF
30FF
C300
C300
CC3F
CC3F
CCC0
CCC0
CCCF
CCCF
CCCF
CCCF
ENDCHAR
STARTCHAR char57807
ENCODING 58039
SWIDTH 2304 0
DWIDTH 24 0
BBX 16 20 4 -2
BITMAP
FFF0
FFF0
C0CC
C0CC
C0C3
C0C3
C0FF
C0FF
C003
C003
C003
C003
C003
C003
C003
C003
C003
C003
FFFF
FFFF
ENDCHAR
STARTCHAR char57807
ENCODING 58040
SWIDTH 2304 0
DWIDTH 24 0
BBX 16 20 4 -2
BITMAP
FFC0
FFC0
C330
C330
C30C
C30C
C303
C303
C3FF
C3FF
C003
C003
C003
C003
C003
C003
C003
C003
FFFF
FFFF
ENDCHAR
STARTCHAR char57807
ENCODING 58041
SWIDTH 2304 0
DWIDTH 24 0
BBX 16 20 4 -2
BITMAP
FF30
FF30
FF3C
FF3C
FF3F
FF3F
FF00
FF00
FFFF
FFFF
FFFF
FFFF
FFFF
FFFF
FFFF
FFFF
FFFF
FFFF
FFFF
FFFF
ENDCHAR
STARTCHAR char57807
ENCODING 58042
SWIDTH 2304 0
DWIDTH 24 0
BBX 16 20 4 -2
BITMAP
FCC0
FCC0
FCF0
FCF0
FCFC
FCFC
FCFF
FCFF
FC00
FC00
FFFF
FFFF
FFFF
FFFF
FFFF
FFFF
FFFF
FFFF
FFFF
FFFF
ENDCHAR
STARTCHAR char58043
ENCODING 58043
SWIDTH 2304 0
DWIDTH 24 0
BBX 12 20 6 -2
BITMAP
FC00
FC00
FFF0
FFF0
FFF0
FFF0
FFF0
FFF0
FFF0
FFF0
C3F0
C3F0
C000
C000
C000
C000
C000
C000
C000
C000
ENDCHAR
STARTCHAR char58044
ENCODING 58044
SWIDTH 2304 0
DWIDTH 24 0
BBX 14 18 4 -2
BITMAP
0FC0
0FC0
3030
3030
C30C
C30C
CCCC
CCCC
C0CC
C0CC
330C
330C
0C30
0C30
00C0
00C0
0F00
0F00
ENDCHAR
STARTCHAR char58045
ENCODING 58045
SWIDTH 2304 0
DWIDTH 24 0
BBX 18 18 2 -2
BITMAP
FFFFC0
FFFFC0
3FFF00
3FFF00
0FFC00
0FFC00
03F000
03F000
00C000
00C000
00C000
00C000
00C000
00C000
00C000
00C000
0FFC00
0FFC00
ENDCHAR
STARTCHAR char58045
ENCODING 58046
SWIDTH 2304 0
DWIDTH 24 0
BBX 18 18 4 -2
BITMAP
000F00
000F00
0030C0
0030C0
FFFCC0
FFFCC0
3FF300
3FF300
0FC000
0FC000
030000
030000
030000
030000
030000
030000
3FF000
3FF000
ENDCHAR
STARTCHAR char58047
ENCODING 58047
SWIDTH 2304 0
DWIDTH 24 0
BBX 20 22 2 -4
BITMAP
0FC000
0FC000
FFF000
FFF000
00FF00
00FF00
00FFF0
00FFF0
03CFC0
03CFC0
03C300
03C300
0F0000
0F0000
0F0000
0F0000
3C0000
3C0000
3C0000
3C0000
F00000
F00000
ENDCHAR
STARTCHAR char58048
ENCODING 58048
SWIDTH 2304 0
DWIDTH 24 0
BBX 20 12 2 0
BITMAP
03C000
03C000
CFFFF0
CFFFF0
CFFC00
CFFC00
CFFC00
CFFC00
CFFC00
CFFC00
CFF000
CFF000
ENDCHAR
STARTCHAR char58049
ENCODING 58049
SWIDTH 2304 0
DWIDTH 24 0
BBX 18 18 2 -2
BITMAP
0FFC00
0FFC00
300300
300300
C000C0
C000C0
C000C0
C000C0
CF3CC0
CF3CC0
CF3CC0
CF3CC0
3F3F00
3F3F00
0F3C00
0F3C00
0F3C00
0F3C00
ENDCHAR
STARTCHAR char58050
ENCODING 58050
SWIDTH 2304 0
DWIDTH 24 0
BBX 20 20 2 -2
BITMAP
3F0000
3F0000
FFC000
FFC000
FFF000
FFF000
FFFC00
FFFC00
3FFF00
3FFF00
0FFFC0
0FFFC0
03FF00
03FF00
00FF00
00FF00
0030C0
0030C0
000030
000030
ENDCHAR
STARTCHAR char58051
ENCODING 58051
SWIDTH 2304 0
DWIDTH 24 0
BBX 22 22 0 -4
BITMAP
C00000
C00000
3C0000
3C0000
3FC000
3FC000
0FFC00
0FFC00
0FFFC0
0FFFC0
03FFFC
03FFFC
03FFF0
03FFF0
00FFC0
00FFC0
00FFF0
00FFF0
003CFC
003CFC
00303C
00303C
ENDCHAR
STARTCHAR char58052
ENCODING 58052
SWIDTH 2304 0
DWIDTH 24 0
BBX 18 20 4 -2
BITMAP
FFFC00
FFFC00
FFFFC0
FFFFC0
FFFCC0
FFFCC0
0000C0
0000C0
00FF00
00FF00
03C000
03C000
03C000
03C000
03C000
03C000
03C000
03C000
03C000
03C000
ENDCHAR
STARTCHAR char58053
ENCODING 58053
SWIDTH 2304 0
DWIDTH 24 0
BBX 24 14 0 0
BITMAP
0CFFF0
0CFFF0
3F0030
3F0030
FFC030
FFC030
0C0030
0C0030
0C03FF
0C03FF
0C00FC
0C00FC
0FFF30
0FFF30
ENDCHAR
STARTCHAR char58053
ENCODING 58054
SWIDTH 2304 0
DWIDTH 24 0
BBX 24 18 0 -2
BITMAP
00FFF0
00FFF0
0C0030
0C0030
3F0030
3F0030
FFC030
FFC030
0C0030
0C0030
0C03FF
0C03FF
0C00FC
0C00FC
0C0030
0C0030
0FFF00
0FFF00
ENDCHAR
STARTCHAR char58053
ENCODING 58055
SWIDTH 2304 0
DWIDTH 24 0
BBX 24 18 0 -2
BITMAP
003FF0
003FF0
0C0030
0C0030
3F0030
3F0030
FFC030
FFC030
0C0030
0C0030
0C03FF
0C03FF
0C00FC
0C00FC
0C0030
0C0030
0FFC00
0FFC00
ENDCHAR
STARTCHAR char58053
ENCODING 58056
SWIDTH 2304 0
DWIDTH 24 0
BBX 24 18 0 -2
BITMAP
003FC0
003FC0
0C00F0
0C00F0
3F0030
3F0030
FFC030
FFC030
0C0030
0C0030
0C03FF
0C03FF
0C00FC
0C00FC
0F0030
0F0030
03FC00
03FC00
ENDCHAR
STARTCHAR char58057
ENCODING 58057
SWIDTH 2304 0
DWIDTH 24 0
BBX 18 18 2 -2
BITMAP
0C0C00
0C0C00
3F0F00
3F0F00
FFCFC0
FFCFC0
000F00
000F00
0C0C00
0C0C00
3C0000
3C0000
FCFFC0
FCFFC0
3C3F00
3C3F00
0C0C00
0C0C00
ENDCHAR
STARTCHAR char58057
ENCODING 58058
SWIDTH 2304 0
DWIDTH 24 0
BBX 18 18 2 -2
BITMAP
0C0C00
0C0C00
3F0F00
3F0F00
FFFFC0
FFFFC0
0C0F00
0C0F00
0C0C00
0C0C00
3C0C00
3C0C00
FFFFC0
FFFFC0
3C3F00
3C3F00
0C0C00
0C0C00
ENDCHAR
STARTCHAR char58059
ENCODING 58059
SWIDTH 2304 0
DWIDTH 24 0
BBX 20 20 2 -2
BITMAP
FF0000
FF0000
F00000
F00000
FF0000
FF0000
F00000
F00000
FF0000
FF0000
F00000
F00000
FF3330
FF3330
F33330
F33330
CFFFF0
CFFFF0
3FFFF0
3FFFF0
ENDCHAR
STARTCHAR char58060
ENCODING 58060
SWIDTH 2304 0
DWIDTH 24 0
BBX 22 10 0 2
BITMAP
CCCCCC
CCCCCC
CCCCCC
CCCCCC
FFFFFC
FFFFFC
FFFFFC
FFFFFC
FFFFFC
FFFFFC
ENDCHAR
STARTCHAR char58061
ENCODING 58061
SWIDTH 2304 0
DWIDTH 24 0
BBX 20 22 2 -4
BITMAP
FFFFF0
FFFFF0
FFFC30
FFFC30
FFFFF0
FFFFF0
000000
000000
FFFFF0
FFFFF0
FFFC30
FFFC30
FFFFF0
FFFFF0
000000
000000
FFFFF0
FFFFF0
FFFC30
FFFC30
FFFFF0
FFFFF0
ENDCHAR
STARTCHAR char58062
ENCODING 58062
SWIDTH 2304 0
DWIDTH 24 0
BBX 16 18 4 -2
BITMAP
3FFF
3FFF
3003
3003
0303
0303
FFC3
FFC3
FFF3
FFF3
FFC3
FFC3
0303
0303
3003
3003
3FFF
3FFF
ENDCHAR
STARTCHAR char58063
ENCODING 58063
SWIDTH 2304 0
DWIDTH 24 0
BBX 10 14 6 0
BITMAP
0C00
0C00
3F00
3F00
FFC0
FFC0
0000
0000
FFC0
FFC0
3F00
3F00
0C00
0C00
ENDCHAR
STARTCHAR char58063
ENCODING 58064
SWIDTH 2304 0
DWIDTH 24 0
BBX 10 16 6 0
BITMAP
0C00
0C00
3F00
3F00
FFC0
FFC0
0000
0000
0000
0000
FFC0
FFC0
3F00
3F00
0C00
0C00
ENDCHAR
STARTCHAR char58065
ENCODING 58065
SWIDTH 2304 0
DWIDTH 24 0
BBX 24 10 0 2
BITMAP
0000C0
0000C0
000330
000330
FC0C0F
FC0C0F
033000
033000
00C000
00C000
ENDCHAR
STARTCHAR char58065
ENCODING 58066
SWIDTH 2304 0
DWIDTH 24 0
BBX 24 18 0 -2
BITMAP
0000C0
0000C0
0000C0
0000C0
000330
000330
000330
000330
FC0C0F
FC0C0F
033000
033000
033000
033000
00C000
00C000
00C000
00C000
ENDCHAR
STARTCHAR char58067
ENCODING 58067
SWIDTH 2304 0
DWIDTH 24 0
BBX 22 22 0 -4
BITMAP
00FC00
00FC00
00FC00
00FC00
00FC00
00FC00
003000
003000
003000
003000
3FFFF0
3FFFF0
303030
303030
303030
303030
FCFCFC
FCFCFC
FCFCFC
FCFCFC
FCFCFC
FCFCFC
ENDCHAR
STARTCHAR char58068
ENCODING 58068
SWIDTH 2304 0
DWIDTH 24 0
BBX 24 18 0 -2
BITMAP
0C03C0
0C03C0
0C0000
0C0000
0C03F0
0C03F0
0C0000
0C0000
0C03F0
0C03F0
0C0000
0C0000
FFC3FC
FFC3FC
3F0000
3F0000
0C03FF
0C03FF
ENDCHAR
STARTCHAR char58068
ENCODING 58069
SWIDTH 2304 0
DWIDTH 24 0
BBX 24 18 0 -2
BITMAP
0C03FF
0C03FF
0C0000
0C0000
0C03FC
0C03FC
0C0000
0C0000
0C03F0
0C03F0
0C0000
0C0000
FFC3F0
FFC3F0
3F0000
3F0000
0C03C0
0C03C0
ENDCHAR
STARTCHAR char58070
ENCODING 58070
SWIDTH 2304 0
DWIDTH 24 0
BBX 22 20 0 -2
BITMAP
F03C00
F03C00
C00C00
C00C00
C00C00
C00C00
C00C3C
C00C3C
C00C3C
C00C3C
303030
303030
0FC030
0FC030
030030
030030
00C0C0
00C0C0
003F00
003F00
ENDCHAR
STARTCHAR char58071
ENCODING 58071
SWIDTH 2304 0
DWIDTH 24 0
BBX 16 16 4 0
BITMAP
FFFC
FFFC
FFFC
FFFC
0000
0000
3FFF
3FFF
3FFF
3FFF
0000
0000
FFFC
FFFC
FFFC
FFFC
ENDCHAR
STARTCHAR char58072
ENCODING 58072
SWIDTH 2304 0
DWIDTH 24 0
BBX 24 22 0 -4
BITMAP
003F00
003F00
0003C0
0003C0
0C00C0
0C00C0
3F00F0
3F00F0
FFC030
FFC030
0C0030
0C0030
0C03FF
0C03FF
0F00FC
0F00FC
030030
030030
03C000
03C000
00FC00
00FC00
ENDCHAR
STARTCHAR char57981
ENCODING 58073
SWIDTH 2304 0
DWIDTH 24 0
BBX 20 16 2 0
BITMAP
0FFF00
0FFF00
0C0300
0C0300
FFFFF0
FFFFF0
F0F0F0
F0F0F0
000000
000000
F0F0F0
F0F0F0
FFFFF0
FFFFF0
FFFFF0
FFFFF0
ENDCHAR
STARTCHAR char57981
ENCODING 58074
SWIDTH 2304 0
DWIDTH 24 0
BBX 20 18 2 -2
BITMAP
0FFF00
0FFF00
0C0300
0C0300
FFFFF0
FFFFF0
FFFFF0
FFFFF0
F0F0F0
F0F0F0
000000
000000
F0F0F0
F0F0F0
FFFFF0
FFFFF0
FFFFF0
FFFFF0
ENDCHAR
STARTCHAR char58075
ENCODING 58075
SWIDTH 2304 0
DWIDTH 24 0
BBX 24 20 0 -2
BITMAP
003C00
003C00
03FFC0
03FFC0
3FFFFC
3FFFFC
FFFFFF
FFFFFF
3C3C3C
3C3C3C
3C3C3C
3C3C3C
3C3C3C
3C3C3C
FFFFFF
FFFFFF
000000
000000
FFFFFF
FFFFFF
ENDCHAR
STARTCHAR char58076
ENCODING 58076
SWIDTH 2304 0
DWIDTH 24 0
BBX 16 20 4 -2
BITMAP
03C0
03C0
0C30
0C30
300C
300C
300C
300C
FFFF
FFFF
FFFF
FFFF
FFFF
FFFF
FFFF
FFFF
FFFF
FFFF
FFFF
FFFF
ENDCHAR
STARTCHAR char57998
ENCODING 58077
SWIDTH 2304 0
DWIDTH 24 0
BBX 14 14 4 0
BITMAP
FFFC
FFFC
0000
0000
0300
0300
0FC0
0FC0
3FF0
3FF0
0FC0
0FC0
0FC0
0FC0
ENDCHAR
STARTCHAR char57998
ENCODING 58078
SWIDTH 2304 0
DWIDTH 24 0
BBX 18 16 2 0
BITMAP
FFFFC0
FFFFC0
000000
000000
00C000
00C000
03F000
03F000
0FFC00
0FFC00
3FFF00
3FFF00
0FFC00
0FFC00
0FFC00
0FFC00
ENDCHAR
STARTCHAR char58079
ENCODING 58079
SWIDTH 2304 0
DWIDTH 24 0
BBX 20 16 2 0
BITMAP
333330
333330
CCCCC0
CCCCC0
000000
000000
333330
333330
CCCCC0
CCCCC0
000000
000000
333330
333330
CCCCC0
CCCCC0
ENDCHAR
STARTCHAR char58080
ENCODING 58080
SWIDTH 2304 0
DWIDTH 24 0
BBX 18 20 2 -2
BITMAP
00C000
00C000
03F000
03F000
0FFC00
0FFC00
3FFF00
3FFF00
C000C0
C000C0
CFFCC0
CFFCC0
CFFCC0
CFFCC0
C000C0
C000C0
CFFCC0
CFFCC0
CFFCC0
CFFCC0
ENDCHAR
STARTCHAR char58080
ENCODING 58081
SWIDTH 2304 0
DWIDTH 24 0
BBX 18 20 2 -2
BITMAP
00C000
00C000
03F000
03F000
0FFC00
0FFC00
3FFF00
3FFF00
C000C0
C000C0
CFFCC0
CFFCC0
C000C0
C000C0
CFFCC0
CFFCC0
C000C0
C000C0
CFFCC0
CFFCC0
ENDCHAR
STARTCHAR char58082
ENCODING 58082
SWIDTH 2304 0
DWIDTH 24 0
BBX 16 14 4 0
BITMAP
FFFC
FFFC
C000
C000
FFFF
FFFF
FFFF
FFFF
FFF3
FFF3
FFFF
FFFF
FFFF
FFFF
ENDCHAR
STARTCHAR char58083
ENCODING 58083
SWIDTH 2304 0
DWIDTH 24 0
BBX 12 20 6 -2
BITMAP
FFF0
FFF0
FFF0
FFF0
FFF0
FFF0
FFF0
FFF0
FFF0
FFF0
FFF0
FFF0
3FC0
3FC0
0F00
0F00
3FC0
3FC0
FFF0
FFF0
ENDCHAR
STARTCHAR char58083
ENCODING 58084
SWIDTH 2304 0
DWIDTH 24 0
BBX 12 20 6 -2
BITMAP
FFF0
FFF0
C030
C030
C030
C030
FFF0
FFF0
FFF0
FFF0
FFF0
FFF0
3FC0
3FC0
0F00
0F00
3FC0
3FC0
FFF0
FFF0
ENDCHAR
STARTCHAR char58085
ENCODING 58085
SWIDTH 2304 0
DWIDTH 24 0
BBX 12 18 6 -2
BITMAP
FFF0
FFF0
C030
C030
30C0
30C0
0F00
0F00
0F00
0F00
0F00
0F00
30C0
30C0
C030
C030
FFF0
FFF0
ENDCHAR
STARTCHAR char58085
ENCODING 58086
SWIDTH 2304 0
DWIDTH 24 0
BBX 12 18 6 -2
BITMAP
FFF0
FFF0
C030
C030
30C0
30C0
0F00
0F00
0F00
0F00
0F00
0F00
3FC0
3FC0
FFF0
FFF0
FFF0
FFF0
ENDCHAR
STARTCHAR char58085
ENCODING 58087
SWIDTH 2304 0
DWIDTH 24 0
BBX 12 18 6 -2
BITMAP
FFF0
FFF0
FFF0
FFF0
3FC0
3FC0
0F00
0F00
0F00
0F00
0F00
0F00
3FC0
3FC0
FFF0
FFF0
FFF0
FFF0
ENDCHAR
STARTCHAR U+E015
ENCODING 58088
SWIDTH 2304 0
DWIDTH 24 0
BBX 16 16 4 0
BITMAP
0FF0
0FF0
3CFC
3CFC
FCFF
FCFF
FCFF
FCFF
FF3F
FF3F
FFCF
FFCF
3FFC
3FFC
0FF0
0FF0
ENDCHAR
STARTCHAR U+E015
ENCODING 58089
SWIDTH 2304 0
DWIDTH 24 0
BBX 20 18 2 -2
BITMAP
3000C0
3000C0
C3FC30
C3FC30
0F3F00
0F3F00
3F3FC0
3F3FC0
3F3FC0
3F3FC0
3FCFC0
3FCFC0
3FF3C0
3FF3C0
0FFF00
0FFF00
03FC00
03FC00
ENDCHAR
STARTCHAR char58090
ENCODING 58090
SWIDTH 2304 0
DWIDTH 24 0
BBX 20 16 2 0
BITMAP
FFFFF0
FFFFF0
C00030
C00030
CF0030
CF0030
CC0030
CC0030
C00330
C00330
C00F30
C00F30
C00030
C00030
FFFFF0
FFFFF0
ENDCHAR
STARTCHAR char58091
ENCODING 58091
SWIDTH 2304 0
DWIDTH 24 0
BBX 16 14 4 0
BITMAP
FFFF
FFFF
C003
C003
FC3F
FC3F
FFFF
FFFF
0000
0000
FC3F
FC3F
FFFF
FFFF
ENDCHAR
STARTCHAR char58092
ENCODING 58092
SWIDTH 2304 0
DWIDTH 24 0
BBX 18 14 2 0
BITMAP
FFFFC0
FFFFC0
FFFFC0
FFFFC0
F3FFC0
F3FFC0
F3F3C0
F3F3C0
F333C0
F333C0
F333C0
F333C0
FFFFC0
FFFFC0
ENDCHAR
STARTCHAR char58093
ENCODING 58093
SWIDTH 2304 0
DWIDTH 24 0
BBX 18 18 2 -2
BITMAP
FFFFC0
FFFFC0
FF3FC0
FF3FC0
FF3FC0
FF3FC0
FF3FC0
FF3FC0
FFFFC0
FFFFC0
FF3FC0
FF3FC0
FFFFC0
FFFFC0
3C0000
3C0000
F00000
F00000
ENDCHAR
STARTCHAR char58093
ENCODING 58094
SWIDTH 2304 0
DWIDTH 24 0
BBX 22 22 0 -4
BITMAP
FFFFFC
FFFFFC
FFFFFC
FFFFFC
FFCFFC
FFCFFC
FFCFFC
FFCFFC
FFCFFC
FFCFFC
FFCFFC
FFCFFC
FFFFFC
FFFFFC
FFCFFC
FFCFFC
FFFFFC
FFFFFC
3C0000
3C0000
F00000
F00000
ENDCHAR
STARTCHAR char58095
ENCODING 58095
SWIDTH 2304 0
DWIDTH 24 0
BBX 20 14 2 0
BITMAP
FFFFF0
FFFFF0
F003F0
F003F0
FFFFF0
FFFFF0
F03FF0
F03FF0
FFFFF0
FFFFF0
F000F0
F000F0
FFFFF0
FFFFF0
ENDCHAR
STARTCHAR char57826
ENCODING 58096
SWIDTH 2304 0
DWIDTH 24 0
BBX 18 22 4 -4
BITMAP
3FFFC0
3FFFC0
0000C0
0000C0
FFFCC0
FFFCC0
FFFCC0
FFFCC0
FFFCC0
FFFCC0
FFFCC0
FFFCC0
FFFCC0
FFFCC0
FFFCC0
FFFCC0
FCFCC0
FCFCC0
F03CC0
F03CC0
C00C00
C00C00
ENDCHAR
STARTCHAR char58097
ENCODING 58097
SWIDTH 2304 0
DWIDTH 24 0
BBX 24 14 0 0
BITMAP
000300
000300
0C0330
0C0330
300C0C
300C0C
C00C03
C00C03
30300C
30300C
0CF030
0CF030
00C000
00C000
ENDCHAR
STARTCHAR char58098
ENCODING 58098
SWIDTH 2304 0
DWIDTH 24 0
BBX 18 10 2 2
BITMAP
000CC0
000CC0
003300
003300
CCCC00
CCCC00
333000
333000
0CC000
0CC000
ENDCHAR
STARTCHAR char58099
ENCODING 58099
SWIDTH 2304 0
DWIDTH 24 0
BBX 14 20 4 -2
BITMAP
FFFC
FFFC
CFCC
CFCC
FFFC
FFFC
CFCC
CFCC
FFFC
FFFC
CFCC
CFCC
FFFC
FFFC
CFCC
CFCC
FFFC
FFFC
CFCC
CFCC
ENDCHAR
STARTCHAR char58100
ENCODING 58100
SWIDTH 2304 0
DWIDTH 24 0
BBX 18 18 2 -2
BITMAP
3FFF00
3FFF00
000000
000000
3FFF00
3FFF00
FFFFC0
FFFFC0
FFFFC0
FFFFC0
FFFFC0
FFFFC0
300300
300300
300300
300300
3FFF00
3FFF00
ENDCHAR
STARTCHAR char58101
ENCODING 58101
SWIDTH 2304 0
DWIDTH 24 0
BBX 16 18 4 -2
BITMAP
0FF0
0FF0
FFFF
FFFF
0000
0000
3FFC
3FFC
3FFC
3FFC
3FFC
3FFC
3FFC
3FFC
3FFC
3FFC
3FFC
3FFC
ENDCHAR
STARTCHAR char58101
ENCODING 58102
SWIDTH 2304 0
DWIDTH 24 0
BBX 24 18 0 -2
BITMAP
0FF000
0FF000
FFFF00
FFFF00
000000
000000
3FFCFF
3FFCFF
3FFC00
3FFC00
3FFCF0
3FFCF0
3FFC00
3FFC00
3FFCFC
3FFCFC
3FFC00
3FFC00
ENDCHAR
STARTCHAR char58103
ENCODING 58103
SWIDTH 2304 0
DWIDTH 24 0
BBX 20 12 2 2
BITMAP
C00000
C00000
303000
303000
0CCC00
0CCC00
030330
030330
0000F0
0000F0
0003F0
0003F0
ENDCHAR
STARTCHAR char58104
ENCODING 58104
SWIDTH 2304 0
DWIDTH 24 0
BBX 20 12 2 2
BITMAP
0003F0
0003F0
0000F0
0000F0
030330
030330
0CCC00
0CCC00
303000
303000
C00000
C00000
ENDCHAR
STARTCHAR char58105
ENCODING 58105
SWIDTH 2304 0
DWIDTH 24 0
BBX 18 18 2 -2
BITMAP
03F000
03F000
03F000
03F000
03F000
03F000
FCCFC0
FCCFC0
FF3FC0
FF3FC0
FCCFC0
FCCFC0
03F000
03F000
03F000
03F000
03F000
03F000
ENDCHAR
STARTCHAR char58106
ENCODING 58106
SWIDTH 2304 0
DWIDTH 24 0
BBX 14 14 4 0
BITMAP
FFFC
FFFC
FCFC
FCFC
FCFC
FCFC
C00C
C00C
FCFC
FCFC
FCFC
FCFC
FFFC
FFFC
ENDCHAR
STARTCHAR char58106
ENCODING 58107
SWIDTH 2304 0
DWIDTH 24 0
BBX 18 18 4 -2
BITMAP
3FFFC0
3FFFC0
0000C0
0000C0
FFFCC0
FFFCC0
FCFCC0
FCFCC0
FCFCC0
FCFCC0
C00CC0
C00CC0
FCFCC0
FCFCC0
FCFCC0
FCFCC0
FFFC00
FFFC00
ENDCHAR
STARTCHAR char58106
ENCODING 58108
SWIDTH 2304 0
DWIDTH 24 0
BBX 18 18 4 -2
BITMAP
3FFFC0
3FFFC0
0000C0
0000C0
FFFCC0
FFFCC0
FFFCC0
FFFCC0
F33CC0
F33CC0
FCFCC0
FCFCC0
F33CC0
F33CC0
FFFCC0
FFFCC0
FFFC00
FFFC00
ENDCHAR
STARTCHAR char58106
ENCODING 58109
SWIDTH 2304 0
DWIDTH 24 0
BBX 18 18 4 -2
BITMAP
3FFFC0
3FFFC0
0000C0
0000C0
FFFCC0
FFFCC0
F3FCC0
F3FCC0
F0FCC0
F0FCC0
F03CC0
F03CC0
F0FCC0
F0FCC0
F3FCC0
F3FCC0
FFFC00
FFFC00
ENDCHAR
STARTCHAR char58109
ENCODING 58110
SWIDTH 2304 0
DWIDTH 24 0
BBX 16 18 4 -2
BITMAP
003F
003F
C00F
C00F
3033
3033
0CC0
0CC0
0300
0300
0CC0
0CC0
3033
3033
C00F
C00F
003F
003F
ENDCHAR
STARTCHAR char58109
ENCODING 58111
SWIDTH 2304 0
DWIDTH 24 0
BBX 18 18 2 -2
BITMAP
C00FC0
C00FC0
3003C0
3003C0
0C0CC0
0C0CC0
033000
033000
00C000
00C000
033000
033000
0C0CC0
0C0CC0
3003C0
3003C0
C00FC0
C00FC0
ENDCHAR
STARTCHAR char58112
ENCODING 58112
SWIDTH 2304 0
DWIDTH 24 0
BBX 18 16 2 0
BITMAP
FC0FC0
FC0FC0
F003C0
F003C0
CC0CC0
CC0CC0
030000
030000
00C000
00C000
00C000
00C000
00C000
00C000
00C000
00C000
ENDCHAR
STARTCHAR char58093
ENCODING 58113
SWIDTH 2304 0
DWIDTH 24 0
BBX 22 22 0 -4
BITMAP
FFFFFC
FFFFFC
FFFFFC
FFFFFC
F0003C
F0003C
FFFFFC
FFFFFC
F000FC
F000FC
FFFFFC
FFFFFC
F0003C
F0003C
FFFFFC
FFFFFC
FFFFFC
FFFFFC
3C0000
3C0000
F00000
F00000
ENDCHAR
STARTCHAR char58114
ENCODING 58114
SWIDTH 2304 0
DWIDTH 24 0
BBX 22 16 2 0
BITMAP
00FFFC
00FFFC
00FFFC
00FFFC
000000
000000
0FFFC0
0FFFC0
0FFFC0
0FFFC0
000000
000000
FFFC00
FFFC00
FFFC00
FFFC00
ENDCHAR
STARTCHAR char58115
ENCODING 58115
SWIDTH 2304 0
DWIDTH 24 0
BBX 16 22 4 -4
BITMAP
F3CF
F3CF
F3CF
F3CF
0000
0000
F3CF
F3CF
F3CF
F3CF
0000
0000
F3CF
F3CF
F3CF
F3CF
0000
0000
03C0
03C0
03C0
03C0
ENDCHAR
STARTCHAR char58116
ENCODING 58116
SWIDTH 2304 0
DWIDTH 24 0
BBX 18 18 2 -2
BITMAP
3FFF00
3FFF00
000000
000000
FFFFC0
FFFFC0
FF3FC0
FF3FC0
FF3FC0
FF3FC0
F003C0
F003C0
FC0FC0
FC0FC0
FF3FC0
FF3FC0
FFFFC0
FFFFC0
ENDCHAR
STARTCHAR char58102
ENCODING 58117
SWIDTH 2304 0
DWIDTH 24 0
BBX 20 20 2 -2
BITMAP
0FFF00
0FFF00
3000C0
3000C0
FFFFF0
FFFFF0
FF3FF0
FF3FF0
FF0FF0
FF0FF0
FF03F0
FF03F0
FF0FF0
FF0FF0
FF3FF0
FF3FF0
FFFFF0
FFFFF0
3FFFC0
3FFFC0
ENDCHAR
STARTCHAR char58118
ENCODING 58118
SWIDTH 2304 0
DWIDTH 24 0
BBX 18 22 2 -4
BITMAP
003000
003000
00CC00
00CC00
030300
030300
0C00C0
0C00C0
300300
300300
C00C00
C00C00
303000
303000
0CC000
0CC000
030000
030000
F03FC0
F03FC0
FFFFC0
FFFFC0
ENDCHAR
STARTCHAR char58119
ENCODING 58119
SWIDTH 2304 0
DWIDTH 24 0
BBX 18 18 2 -2
BITMAP
FF0000
FF0000
C00000
C00000
C033C0
C033C0
FC3CC0
FC3CC0
C030C0
C030C0
C030C0
C030C0
FF30C0
FF30C0
000000
000000
FFFFC0
FFFFC0
ENDCHAR
STARTCHAR char58119
ENCODING 58120
SWIDTH 2304 0
DWIDTH 24 0
BBX 20 18 2 -2
BITMAP
3F0000
3F0000
0C00C0
0C00C0
0C00C0
0C00C0
0C0FC0
0C0FC0
0C30C0
0C30C0
0C30C0
0C30C0
3F0FC0
3F0FC0
000000
000000
FFFFF0
FFFFF0
ENDCHAR
STARTCHAR char58121
ENCODING 58121
SWIDTH 2304 0
DWIDTH 24 0
BBX 18 10 2 2
BITMAP
F3FFC0
F3FFC0
C300C0
C300C0
C3FCC0
C3FCC0
C000C0
C000C0
FFFFC0
FFFFC0
ENDCHAR
STARTCHAR char58122
ENCODING 58122
SWIDTH 2304 0
DWIDTH 24 0
BBX 14 20 6 -2
BITMAP
FFFC
FFFC
C00C
C00C
C00C
C00C
C00C
C00C
C00C
C00C
C00C
C00C
C00C
C00C
FFFC
FFFC
F03C
F03C
FFFC
FFFC
ENDCHAR
STARTCHAR char58123
ENCODING 58123
SWIDTH 2304 0
DWIDTH 24 0
BBX 20 10 2 2
BITMAP
FFFFF0
FFFFF0
F3FFF0
F3FFF0
C0F330
C0F330
F3FFF0
F3FFF0
FFFFF0
FFFFF0
ENDCHAR
STARTCHAR char58124
ENCODING 58124
SWIDTH 2304 0
DWIDTH 24 0
BBX 16 22 4 -4
BITMAP
FFFF
FFFF
FC3F
FC3F
FC3F
FC3F
FFFF
FFFF
FC3F
FC3F
F00F
F00F
C3C3
C3C3
C3C3
C3C3
F00F
F00F
FC3F
FC3F
FFFF
FFFF
ENDCHAR
STARTCHAR U+E016
ENCODING 58125
SWIDTH 2304 0
DWIDTH 24 0
BBX 16 20 4 -2
BITMAP
0FF0
0FF0
0FF0
0FF0
300C
300C
C303
C303
C303
C303
C3F3
C3F3
C003
C003
300C
300C
0FF0
0FF0
0FF0
0FF0
ENDCHAR
STARTCHAR U+E016
ENCODING 58126
SWIDTH 2304 0
DWIDTH 24 0
BBX 16 18 4 -2
BITMAP
300C
300C
CFF3
CFF3
300C
300C
C303
C303
C303
C303
C3F3
C3F3
C003
C003
300C
300C
0FF0
0FF0
ENDCHAR
STARTCHAR char58127
ENCODING 58127
SWIDTH 2304 0
DWIDTH 24 0
BBX 20 10 2 2
BITMAP
C0FFC0
C0FFC0
CCFFF0
CCFFF0
CCFFF0
CCFFF0
C0FFF0
C0FFF0
FFFFF0
FFFFF0
ENDCHAR
STARTCHAR char58128
ENCODING 58128
SWIDTH 2304 0
DWIDTH 24 0
BBX 20 20 2 -2
BITMAP
00F000
00F000
0FFF00
0FFF00
3FFFC0
3FFFC0
FFFFF0
FFFFF0
FFFFF0
FFFFF0
003000
003000
003000
003000
003000
003000
033000
033000
00C000
00C000
ENDCHAR
STARTCHAR U+E05C
ENCODING 58129
SWIDTH 2304 0
DWIDTH 24 0
BBX 20 16 2 0
BITMAP
03FFF0
03FFF0
03FFF0
03FFF0
030030
030030
030030
030030
030030
030030
030030
030030
FF0FF0
FF0FF0
FF0FF0
FF0FF0
ENDCHAR
ENDFONT
